<svg width="68" height="68" viewBox="0 0 68 68" fill="none" xmlns="http://www.w3.org/2000/svg">
<circle cx="34" cy="34" r="34" fill="#222222"/>
<path d="M26.5 39.2144C26.7775 42.34 29.3369 44.5581 33.2331 44.845V47.125H35.1887V44.845C39.445 44.5094 42.085 42.1488 42.085 38.6575C42.085 35.6763 40.3094 33.9512 36.5425 32.98L35.1887 32.6294V25.5006C37.2925 25.7069 38.7119 26.8394 39.07 28.5306H41.8262C41.515 25.5306 38.9387 23.3781 35.1887 23.14V20.875H33.2331V23.1869C29.5975 23.6181 27.1019 25.9469 27.1019 29.1044C27.1019 31.8306 28.9131 33.76 32.0912 34.5737L33.235 34.8775V42.4356C31.0806 42.1169 29.5975 40.9356 29.2394 39.2144H26.5V39.2144ZM32.8581 32.0219C30.9025 31.5288 29.8581 30.475 29.8581 28.9919C29.8581 27.2219 31.1781 25.915 33.2331 25.5644V32.1175L32.8581 32.0238V32.0219ZM35.8413 35.5319C38.2544 36.1375 39.3137 37.1425 39.3137 38.8488C39.3137 40.9056 37.765 42.2762 35.1887 42.4844V35.3687L35.8413 35.53V35.5319Z" fill="white"/>
</svg>
