<svg width="68" height="68" viewBox="0 0 68 68" fill="none" xmlns="http://www.w3.org/2000/svg">
<circle cx="34" cy="34" r="34" fill="#222222"/>
<path d="M25.5625 22.75C26.3084 22.75 27.0238 23.0463 27.5512 23.5738C28.0787 24.1012 28.375 24.8166 28.375 25.5625V28.375H25.5625C25.1932 28.375 24.8274 28.3023 24.4862 28.1609C24.145 28.0196 23.8349 27.8124 23.5738 27.5512C23.3126 27.2901 23.1054 26.98 22.9641 26.6388C22.8227 26.2976 22.75 25.9318 22.75 25.5625C22.75 25.1932 22.8227 24.8274 22.9641 24.4862C23.1054 24.145 23.3126 23.8349 23.5738 23.5738C23.8349 23.3126 24.145 23.1054 24.4862 22.9641C24.8274 22.8227 25.1932 22.75 25.5625 22.75V22.75ZM30.25 28.375V25.5625C30.25 24.6354 29.9751 23.7291 29.46 22.9583C28.9449 22.1874 28.2129 21.5866 27.3563 21.2318C26.4998 20.877 25.5573 20.7842 24.648 20.9651C23.7387 21.1459 22.9035 21.5924 22.2479 22.2479C21.5924 22.9035 21.1459 23.7387 20.9651 24.648C20.7842 25.5573 20.877 26.4998 21.2318 27.3563C21.5866 28.2129 22.1874 28.9449 22.9583 29.46C23.7291 29.9751 24.6354 30.25 25.5625 30.25H28.375V37.75H25.5625C24.6354 37.75 23.7291 38.0249 22.9583 38.54C22.1874 39.0551 21.5866 39.7871 21.2318 40.6437C20.877 41.5002 20.7842 42.4427 20.9651 43.352C21.1459 44.2613 21.5924 45.0965 22.2479 45.7521C22.9035 46.4076 23.7387 46.8541 24.648 47.0349C25.5573 47.2158 26.4998 47.123 27.3563 46.7682C28.2129 46.4134 28.9449 45.8126 29.46 45.0417C29.9751 44.2709 30.25 43.3646 30.25 42.4375V39.625H37.75V42.4375C37.75 43.3646 38.0249 44.2709 38.54 45.0417C39.0551 45.8126 39.7871 46.4134 40.6437 46.7682C41.5002 47.123 42.4427 47.2158 43.352 47.0349C44.2613 46.8541 45.0965 46.4076 45.7521 45.7521C46.4076 45.0965 46.8541 44.2613 47.0349 43.352C47.2158 42.4427 47.123 41.5002 46.7682 40.6437C46.4134 39.7871 45.8126 39.0551 45.0417 38.54C44.2709 38.0249 43.3646 37.75 42.4375 37.75H39.625V30.25H42.4375C43.3646 30.25 44.2709 29.9751 45.0417 29.46C45.8126 28.9449 46.4134 28.2129 46.7682 27.3563C47.123 26.4998 47.2158 25.5573 47.0349 24.648C46.8541 23.7387 46.4076 22.9035 45.7521 22.2479C45.0965 21.5924 44.2613 21.1459 43.352 20.9651C42.4427 20.7842 41.5002 20.877 40.6437 21.2318C39.7871 21.5866 39.0551 22.1874 38.54 22.9583C38.0249 23.7291 37.75 24.6354 37.75 25.5625V28.375H30.25ZM37.75 30.25V37.75H30.25V30.25H37.75ZM39.625 28.375V25.5625C39.625 25.0062 39.79 24.4625 40.099 24C40.408 23.5374 40.8473 23.177 41.3612 22.9641C41.8751 22.7512 42.4406 22.6955 42.9862 22.804C43.5318 22.9126 44.0329 23.1804 44.4262 23.5738C44.8196 23.9671 45.0874 24.4682 45.196 25.0138C45.3045 25.5594 45.2488 26.1249 45.0359 26.6388C44.823 27.1527 44.4626 27.592 44 27.901C43.5375 28.2101 42.9938 28.375 42.4375 28.375H39.625ZM39.625 39.625H42.4375C42.9938 39.625 43.5375 39.79 44 40.099C44.4626 40.408 44.823 40.8473 45.0359 41.3612C45.2488 41.8751 45.3045 42.4406 45.196 42.9862C45.0874 43.5318 44.8196 44.0329 44.4262 44.4262C44.0329 44.8196 43.5318 45.0874 42.9862 45.196C42.4406 45.3045 41.8751 45.2488 41.3612 45.0359C40.8473 44.823 40.408 44.4626 40.099 44C39.79 43.5375 39.625 42.9938 39.625 42.4375V39.625ZM28.375 39.625V42.4375C28.375 42.9938 28.2101 43.5375 27.901 44C27.592 44.4626 27.1527 44.823 26.6388 45.0359C26.1249 45.2488 25.5594 45.3045 25.0138 45.196C24.4682 45.0874 23.9671 44.8196 23.5738 44.4262C23.1804 44.0329 22.9126 43.5318 22.804 42.9862C22.6955 42.4406 22.7512 41.8751 22.9641 41.3612C23.177 40.8473 23.5374 40.408 24 40.099C24.4625 39.79 25.0062 39.625 25.5625 39.625H28.375Z" fill="white"/>
</svg>
