<svg width="68" height="68" viewBox="0 0 68 68" fill="none" xmlns="http://www.w3.org/2000/svg">
<circle cx="34" cy="34" r="34" fill="#222222"/>
<path d="M34 34C35.4918 34 36.9226 33.4074 37.9775 32.3525C39.0324 31.2976 39.625 29.8668 39.625 28.375C39.625 26.8832 39.0324 25.4524 37.9775 24.3975C36.9226 23.3426 35.4918 22.75 34 22.75C32.5082 22.75 31.0774 23.3426 30.0225 24.3975C28.9676 25.4524 28.375 26.8832 28.375 28.375C28.375 29.8668 28.9676 31.2976 30.0225 32.3525C31.0774 33.4074 32.5082 34 34 34V34ZM37.75 28.375C37.75 29.3696 37.3549 30.3234 36.6516 31.0267C35.9484 31.7299 34.9946 32.125 34 32.125C33.0054 32.125 32.0516 31.7299 31.3483 31.0267C30.6451 30.3234 30.25 29.3696 30.25 28.375C30.25 27.3804 30.6451 26.4266 31.3483 25.7233C32.0516 25.0201 33.0054 24.625 34 24.625C34.9946 24.625 35.9484 25.0201 36.6516 25.7233C37.3549 26.4266 37.75 27.3804 37.75 28.375V28.375ZM45.25 43.375C45.25 45.25 43.375 45.25 43.375 45.25H24.625C24.625 45.25 22.75 45.25 22.75 43.375C22.75 41.5 24.625 35.875 34 35.875C43.375 35.875 45.25 41.5 45.25 43.375ZM43.375 43.3675C43.3731 42.9063 43.0863 41.5187 41.815 40.2475C40.5925 39.025 38.2919 37.75 34 37.75C29.7063 37.75 27.4075 39.025 26.185 40.2475C24.9138 41.5187 24.6288 42.9063 24.625 43.3675H43.375Z" fill="white"/>
</svg>
