<svg width="68" height="68" viewBox="0 0 68 68" fill="none" xmlns="http://www.w3.org/2000/svg">
<circle cx="34" cy="34" r="34" fill="#222222"/>
<path d="M24.625 36.8125C23.8791 36.8125 23.1637 36.5162 22.6363 35.9887C22.1088 35.4613 21.8125 34.7459 21.8125 34C21.8125 33.2541 22.1088 32.5387 22.6363 32.0113C23.1637 31.4838 23.8791 31.1875 24.625 31.1875C25.3709 31.1875 26.0863 31.4838 26.6137 32.0113C27.1412 32.5387 27.4375 33.2541 27.4375 34C27.4375 34.7459 27.1412 35.4613 26.6137 35.9887C26.0863 36.5162 25.3709 36.8125 24.625 36.8125ZM34 36.8125C33.2541 36.8125 32.5387 36.5162 32.0113 35.9887C31.4838 35.4613 31.1875 34.7459 31.1875 34C31.1875 33.2541 31.4838 32.5387 32.0113 32.0113C32.5387 31.4838 33.2541 31.1875 34 31.1875C34.7459 31.1875 35.4613 31.4838 35.9887 32.0113C36.5162 32.5387 36.8125 33.2541 36.8125 34C36.8125 34.7459 36.5162 35.4613 35.9887 35.9887C35.4613 36.5162 34.7459 36.8125 34 36.8125ZM43.375 36.8125C42.6291 36.8125 41.9137 36.5162 41.3863 35.9887C40.8588 35.4613 40.5625 34.7459 40.5625 34C40.5625 33.2541 40.8588 32.5387 41.3863 32.0113C41.9137 31.4838 42.6291 31.1875 43.375 31.1875C44.1209 31.1875 44.8363 31.4838 45.3637 32.0113C45.8912 32.5387 46.1875 33.2541 46.1875 34C46.1875 34.7459 45.8912 35.4613 45.3637 35.9887C44.8363 36.5162 44.1209 36.8125 43.375 36.8125Z" fill="white"/>
</svg>
