<svg width="356" height="66" viewBox="0 0 356 66" fill="none" xmlns="http://www.w3.org/2000/svg">
<path d="M79.2 31.14C78.2267 31.14 77.3467 30.9733 76.56 30.64C75.7867 30.3067 75.1733 29.8267 74.72 29.2C74.2667 28.5733 74.0333 27.8333 74.02 26.98H77.02C77.06 27.5533 77.26 28.0067 77.62 28.34C77.9933 28.6733 78.5 28.84 79.14 28.84C79.7933 28.84 80.3067 28.6867 80.68 28.38C81.0533 28.06 81.24 27.6467 81.24 27.14C81.24 26.7267 81.1133 26.3867 80.86 26.12C80.6067 25.8533 80.2867 25.6467 79.9 25.5C79.5267 25.34 79.0067 25.1667 78.34 24.98C77.4333 24.7133 76.6933 24.4533 76.12 24.2C75.56 23.9333 75.0733 23.54 74.66 23.02C74.26 22.4867 74.06 21.78 74.06 20.9C74.06 20.0733 74.2667 19.3533 74.68 18.74C75.0933 18.1267 75.6733 17.66 76.42 17.34C77.1667 17.0067 78.02 16.84 78.98 16.84C80.42 16.84 81.5867 17.1933 82.48 17.9C83.3867 18.5933 83.8867 19.5667 83.98 20.82H80.9C80.8733 20.34 80.6667 19.9467 80.28 19.64C79.9067 19.32 79.4067 19.16 78.78 19.16C78.2333 19.16 77.7933 19.3 77.46 19.58C77.14 19.86 76.98 20.2667 76.98 20.8C76.98 21.1733 77.1 21.4867 77.34 21.74C77.5933 21.98 77.9 22.18 78.26 22.34C78.6333 22.4867 79.1533 22.66 79.82 22.86C80.7267 23.1267 81.4667 23.3933 82.04 23.66C82.6133 23.9267 83.1067 24.3267 83.52 24.86C83.9333 25.3933 84.14 26.0933 84.14 26.96C84.14 27.7067 83.9467 28.4 83.56 29.04C83.1733 29.68 82.6067 30.1933 81.86 30.58C81.1133 30.9533 80.2267 31.14 79.2 31.14ZM89.3675 21.52C89.7275 21.0133 90.2208 20.5933 90.8475 20.26C91.4875 19.9133 92.2142 19.74 93.0275 19.74C93.9742 19.74 94.8275 19.9733 95.5875 20.44C96.3608 20.9067 96.9675 21.5733 97.4075 22.44C97.8608 23.2933 98.0875 24.2867 98.0875 25.42C98.0875 26.5533 97.8608 27.56 97.4075 28.44C96.9675 29.3067 96.3608 29.98 95.5875 30.46C94.8275 30.94 93.9742 31.18 93.0275 31.18C92.2142 31.18 91.4942 31.0133 90.8675 30.68C90.2542 30.3467 89.7542 29.9267 89.3675 29.42V36.28H86.5675V19.92H89.3675V21.52ZM95.2275 25.42C95.2275 24.7533 95.0875 24.18 94.8075 23.7C94.5408 23.2067 94.1808 22.8333 93.7275 22.58C93.2875 22.3267 92.8075 22.2 92.2875 22.2C91.7808 22.2 91.3008 22.3333 90.8475 22.6C90.4075 22.8533 90.0475 23.2267 89.7675 23.72C89.5008 24.2133 89.3675 24.7933 89.3675 25.46C89.3675 26.1267 89.5008 26.7067 89.7675 27.2C90.0475 27.6933 90.4075 28.0733 90.8475 28.34C91.3008 28.5933 91.7808 28.72 92.2875 28.72C92.8075 28.72 93.2875 28.5867 93.7275 28.32C94.1808 28.0533 94.5408 27.6733 94.8075 27.18C95.0875 26.6867 95.2275 26.1 95.2275 25.42ZM105.042 31.18C103.976 31.18 103.016 30.9467 102.162 30.48C101.309 30 100.636 29.3267 100.142 28.46C99.6622 27.5933 99.4222 26.5933 99.4222 25.46C99.4222 24.3267 99.6689 23.3267 100.162 22.46C100.669 21.5933 101.356 20.9267 102.222 20.46C103.089 19.98 104.056 19.74 105.122 19.74C106.189 19.74 107.156 19.98 108.022 20.46C108.889 20.9267 109.569 21.5933 110.062 22.46C110.569 23.3267 110.822 24.3267 110.822 25.46C110.822 26.5933 110.562 27.5933 110.042 28.46C109.536 29.3267 108.842 30 107.962 30.48C107.096 30.9467 106.122 31.18 105.042 31.18ZM105.042 28.74C105.549 28.74 106.022 28.62 106.462 28.38C106.916 28.1267 107.276 27.7533 107.542 27.26C107.809 26.7667 107.942 26.1667 107.942 25.46C107.942 24.4067 107.662 23.6 107.102 23.04C106.556 22.4667 105.882 22.18 105.082 22.18C104.282 22.18 103.609 22.4667 103.062 23.04C102.529 23.6 102.262 24.4067 102.262 25.46C102.262 26.5133 102.522 27.3267 103.042 27.9C103.576 28.46 104.242 28.74 105.042 28.74ZM116.136 22.22V27.58C116.136 27.9533 116.223 28.2267 116.396 28.4C116.583 28.56 116.889 28.64 117.316 28.64H118.616V31H116.856C114.496 31 113.316 29.8533 113.316 27.56V22.22H111.996V19.92H113.316V17.18H116.136V19.92H118.616V22.22H116.136ZM122.05 18.6C121.557 18.6 121.143 18.4467 120.81 18.14C120.49 17.82 120.33 17.4267 120.33 16.96C120.33 16.4933 120.49 16.1067 120.81 15.8C121.143 15.48 121.557 15.32 122.05 15.32C122.543 15.32 122.95 15.48 123.27 15.8C123.603 16.1067 123.77 16.4933 123.77 16.96C123.77 17.4267 123.603 17.82 123.27 18.14C122.95 18.4467 122.543 18.6 122.05 18.6ZM123.43 19.92V31H120.63V19.92H123.43ZM131.276 22.22H129.336V31H126.496V22.22H125.236V19.92H126.496V19.36C126.496 18 126.883 17 127.656 16.36C128.43 15.72 129.596 15.42 131.156 15.46V17.82C130.476 17.8067 130.003 17.92 129.736 18.16C129.47 18.4 129.336 18.8333 129.336 19.46V19.92H131.276V22.22ZM143.691 19.92L136.831 36.24H133.851L136.251 30.72L131.811 19.92H134.951L137.811 27.66L140.711 19.92H143.691ZM165.186 17.04V31H162.386V21.92L158.646 31H156.526L152.766 21.92V31H149.966V17.04H153.146L157.586 27.42L162.026 17.04H165.186ZM178.414 19.92V31H175.594V29.6C175.234 30.08 174.761 30.46 174.174 30.74C173.601 31.0067 172.974 31.14 172.294 31.14C171.428 31.14 170.661 30.96 169.994 30.6C169.328 30.2267 168.801 29.6867 168.414 28.98C168.041 28.26 167.854 27.4067 167.854 26.42V19.92H170.654V26.02C170.654 26.9 170.874 27.58 171.314 28.06C171.754 28.5267 172.354 28.76 173.114 28.76C173.888 28.76 174.494 28.5267 174.934 28.06C175.374 27.58 175.594 26.9 175.594 26.02V19.92H178.414ZM185.417 31.18C184.51 31.18 183.697 31.02 182.977 30.7C182.257 30.3667 181.684 29.92 181.257 29.36C180.844 28.8 180.617 28.18 180.577 27.5H183.397C183.45 27.9267 183.657 28.28 184.017 28.56C184.39 28.84 184.85 28.98 185.397 28.98C185.93 28.98 186.344 28.8733 186.637 28.66C186.944 28.4467 187.097 28.1733 187.097 27.84C187.097 27.48 186.91 27.2133 186.537 27.04C186.177 26.8533 185.597 26.6533 184.797 26.44C183.97 26.24 183.29 26.0333 182.757 25.82C182.237 25.6067 181.784 25.28 181.397 24.84C181.024 24.4 180.837 23.8067 180.837 23.06C180.837 22.4467 181.01 21.8867 181.357 21.38C181.717 20.8733 182.224 20.4733 182.877 20.18C183.544 19.8867 184.324 19.74 185.217 19.74C186.537 19.74 187.59 20.0733 188.377 20.74C189.164 21.3933 189.597 22.28 189.677 23.4H186.997C186.957 22.96 186.77 22.6133 186.437 22.36C186.117 22.0933 185.684 21.96 185.137 21.96C184.63 21.96 184.237 22.0533 183.957 22.24C183.69 22.4267 183.557 22.6867 183.557 23.02C183.557 23.3933 183.744 23.68 184.117 23.88C184.49 24.0667 185.07 24.26 185.857 24.46C186.657 24.66 187.317 24.8667 187.837 25.08C188.357 25.2933 188.804 25.6267 189.177 26.08C189.564 26.52 189.764 27.1067 189.777 27.84C189.777 28.48 189.597 29.0533 189.237 29.56C188.89 30.0667 188.384 30.4667 187.717 30.76C187.064 31.04 186.297 31.18 185.417 31.18ZM193.495 18.6C193.002 18.6 192.589 18.4467 192.255 18.14C191.935 17.82 191.775 17.4267 191.775 16.96C191.775 16.4933 191.935 16.1067 192.255 15.8C192.589 15.48 193.002 15.32 193.495 15.32C193.989 15.32 194.395 15.48 194.715 15.8C195.049 16.1067 195.215 16.4933 195.215 16.96C195.215 17.4267 195.049 17.82 194.715 18.14C194.395 18.4467 193.989 18.6 193.495 18.6ZM194.875 19.92V31H192.075V19.92H194.875ZM196.922 25.46C196.922 24.3133 197.155 23.3133 197.622 22.46C198.088 21.5933 198.735 20.9267 199.562 20.46C200.388 19.98 201.335 19.74 202.402 19.74C203.775 19.74 204.908 20.0867 205.802 20.78C206.708 21.46 207.315 22.42 207.622 23.66H204.602C204.442 23.18 204.168 22.8067 203.782 22.54C203.408 22.26 202.942 22.12 202.382 22.12C201.582 22.12 200.948 22.4133 200.482 23C200.015 23.5733 199.782 24.3933 199.782 25.46C199.782 26.5133 200.015 27.3333 200.482 27.92C200.948 28.4933 201.582 28.78 202.382 28.78C203.515 28.78 204.255 28.2733 204.602 27.26H207.622C207.315 28.46 206.708 29.4133 205.802 30.12C204.895 30.8267 203.762 31.18 202.402 31.18C201.335 31.18 200.388 30.9467 199.562 30.48C198.735 30 198.088 29.3333 197.622 28.48C197.155 27.6133 196.922 26.6067 196.922 25.46Z" fill="black"/>
<path d="M306.34 36.98C306.34 37.6733 306.16 38.3267 305.8 38.94C305.453 39.54 304.933 40.04 304.24 40.44C303.56 40.8267 302.753 41.0533 301.82 41.12V42.74H300.54V41.1C299.207 40.98 298.133 40.58 297.32 39.9C296.507 39.2067 296.087 38.2733 296.06 37.1H299.06C299.14 38.06 299.633 38.64 300.54 38.84V35.02C299.58 34.78 298.807 34.54 298.22 34.3C297.633 34.06 297.127 33.6733 296.7 33.14C296.273 32.6067 296.06 31.88 296.06 30.96C296.06 29.8 296.473 28.8533 297.3 28.12C298.14 27.3867 299.22 26.9667 300.54 26.86V25.24H301.82V26.86C303.1 26.9667 304.12 27.3533 304.88 28.02C305.653 28.6867 306.087 29.6067 306.18 30.78H303.16C303.12 30.3933 302.98 30.06 302.74 29.78C302.513 29.4867 302.207 29.28 301.82 29.16V32.94C302.82 33.1933 303.607 33.44 304.18 33.68C304.767 33.9067 305.273 34.2867 305.7 34.82C306.127 35.34 306.34 36.06 306.34 36.98ZM298.98 30.82C298.98 31.26 299.113 31.62 299.38 31.9C299.647 32.1667 300.033 32.3867 300.54 32.56V29.1C300.06 29.1667 299.68 29.3467 299.4 29.64C299.12 29.9333 298.98 30.3267 298.98 30.82ZM301.82 38.88C302.327 38.7867 302.72 38.58 303 38.26C303.293 37.94 303.44 37.5533 303.44 37.1C303.44 36.66 303.3 36.3067 303.02 36.04C302.74 35.7733 302.34 35.5533 301.82 35.38V38.88ZM321.472 30.06C321.338 29.5 321.105 29.08 320.772 28.8C320.452 28.52 319.985 28.38 319.372 28.38C318.452 28.38 317.772 28.7533 317.332 29.5C316.905 30.2333 316.685 31.4333 316.672 33.1C316.992 32.5667 317.458 32.1533 318.072 31.86C318.685 31.5533 319.352 31.4 320.072 31.4C320.938 31.4 321.705 31.5867 322.372 31.96C323.038 32.3333 323.558 32.88 323.932 33.6C324.305 34.3067 324.492 35.16 324.492 36.16C324.492 37.1067 324.298 37.9533 323.912 38.7C323.538 39.4333 322.985 40.0067 322.252 40.42C321.518 40.8333 320.645 41.04 319.632 41.04C318.245 41.04 317.152 40.7333 316.352 40.12C315.565 39.5067 315.012 38.6533 314.692 37.56C314.385 36.4533 314.232 35.0933 314.232 33.48C314.232 31.04 314.652 29.2 315.492 27.96C316.332 26.7067 317.658 26.08 319.472 26.08C320.872 26.08 321.958 26.46 322.732 27.22C323.505 27.98 323.952 28.9267 324.072 30.06H321.472ZM319.432 33.7C318.725 33.7 318.132 33.9067 317.652 34.32C317.172 34.7333 316.932 35.3333 316.932 36.12C316.932 36.9067 317.152 37.5267 317.592 37.98C318.045 38.4333 318.678 38.66 319.492 38.66C320.212 38.66 320.778 38.44 321.192 38C321.618 37.56 321.832 36.9667 321.832 36.22C321.832 35.4467 321.625 34.8333 321.212 34.38C320.812 33.9267 320.218 33.7 319.432 33.7ZM328.265 41.14C327.758 41.14 327.338 40.9867 327.005 40.68C326.685 40.36 326.525 39.9667 326.525 39.5C326.525 39.0333 326.685 38.6467 327.005 38.34C327.338 38.02 327.758 37.86 328.265 37.86C328.758 37.86 329.165 38.02 329.485 38.34C329.805 38.6467 329.965 39.0333 329.965 39.5C329.965 39.9667 329.805 40.36 329.485 40.68C329.165 40.9867 328.758 41.14 328.265 41.14ZM341.7 28.84H335.22V32.26C335.5 31.9133 335.9 31.6333 336.42 31.42C336.94 31.1933 337.493 31.08 338.08 31.08C339.147 31.08 340.02 31.3133 340.7 31.78C341.38 32.2467 341.873 32.8467 342.18 33.58C342.487 34.3 342.64 35.0733 342.64 35.9C342.64 37.4333 342.2 38.6667 341.32 39.6C340.453 40.5333 339.213 41 337.6 41C336.08 41 334.867 40.62 333.96 39.86C333.053 39.1 332.54 38.1067 332.42 36.88H335.14C335.26 37.4133 335.527 37.84 335.94 38.16C336.367 38.48 336.907 38.64 337.56 38.64C338.347 38.64 338.94 38.3933 339.34 37.9C339.74 37.4067 339.94 36.7533 339.94 35.94C339.94 35.1133 339.733 34.4867 339.32 34.06C338.92 33.62 338.327 33.4 337.54 33.4C336.98 33.4 336.513 33.54 336.14 33.82C335.767 34.1 335.5 34.4733 335.34 34.94H332.66V26.38H341.7V28.84ZM345.651 37.84C346.931 36.7733 347.951 35.8867 348.711 35.18C349.471 34.46 350.104 33.7133 350.611 32.94C351.118 32.1667 351.371 31.4067 351.371 30.66C351.371 29.98 351.211 29.4467 350.891 29.06C350.571 28.6733 350.078 28.48 349.411 28.48C348.744 28.48 348.231 28.7067 347.871 29.16C347.511 29.6 347.324 30.2067 347.311 30.98H344.591C344.644 29.38 345.118 28.1667 346.011 27.34C346.918 26.5133 348.064 26.1 349.451 26.1C350.971 26.1 352.138 26.5067 352.951 27.32C353.764 28.12 354.171 29.18 354.171 30.5C354.171 31.54 353.891 32.5333 353.331 33.48C352.771 34.4267 352.131 35.2533 351.411 35.96C350.691 36.6533 349.751 37.4933 348.591 38.48H354.491V40.8H344.611V38.72L345.651 37.84Z" fill="black"/>
<rect width="66" height="66" rx="17" fill="#F4F6F5"/>
<path d="M33 13C21.9721 13 13 21.9721 13 33C13 44.0279 21.9721 53 33 53C44.0279 53 53 44.0287 53 33C53 21.9713 44.0279 13 33 13ZM41.4654 41.9895C41.2142 42.3668 40.8004 42.5702 40.3789 42.5702C40.1303 42.5702 39.879 42.4998 39.6565 42.3511C37.5069 40.9178 33.8614 39.9616 30.8191 39.9625C27.5908 39.9642 25.1709 40.757 25.1466 40.7648C24.4651 40.996 23.7254 40.624 23.4976 39.9408C23.2699 39.2576 23.6393 38.5187 24.3225 38.2918C24.4373 38.2536 27.1727 37.3574 30.8191 37.3557C33.8614 37.3539 38.0928 38.1745 41.1038 40.1815C41.7036 40.5814 41.8652 41.3906 41.4654 41.9895ZM44.0661 36.6525C43.7836 37.1062 43.296 37.3557 42.7979 37.3557C42.5284 37.3557 42.2555 37.2835 42.0104 37.1297C38.1128 34.7011 34.1074 34.1874 30.6566 34.2178C26.7607 34.2526 23.6454 34.9957 23.5924 35.0114C22.804 35.2356 21.9747 34.775 21.7496 33.9831C21.5245 33.1895 21.986 32.3646 22.7788 32.1403C23.0196 32.0717 26.1288 31.3067 30.3854 31.2711C34.2665 31.239 39.1028 31.8013 43.5898 34.5968C44.2878 35.0314 44.5025 35.9528 44.0661 36.6525ZM46.6607 30.4114C46.3365 30.9625 45.7559 31.2694 45.1596 31.2694C44.8606 31.2694 44.5581 31.192 44.2808 31.0303C39.7382 28.3636 34.2152 27.7977 30.3819 27.7925C30.3636 27.7925 30.3454 27.7925 30.3271 27.7925C25.6916 27.7925 22.1216 28.6078 22.086 28.6165C21.149 28.8312 20.2163 28.2523 19.999 27.317C19.7817 26.3826 20.3615 25.449 21.2959 25.2309C21.4567 25.1935 25.2709 24.3156 30.3271 24.3156C30.3471 24.3156 30.3671 24.3156 30.3871 24.3156C34.6507 24.3217 40.8274 24.9701 46.0419 28.0315C46.8694 28.5183 47.1466 29.5839 46.6607 30.4114Z" fill="black"/>
<path d="M73.9 52.39C73.9 50.66 74.19 49.31 74.77 48.34C75.36 47.36 76.37 46.87 77.8 46.87C79.23 46.87 80.235 47.36 80.815 48.34C81.405 49.31 81.7 50.66 81.7 52.39C81.7 54.14 81.405 55.51 80.815 56.5C80.235 57.48 79.23 57.97 77.8 57.97C76.37 57.97 75.36 57.48 74.77 56.5C74.19 55.51 73.9 54.14 73.9 52.39ZM80.02 52.39C80.02 51.58 79.965 50.895 79.855 50.335C79.755 49.775 79.545 49.32 79.225 48.97C78.905 48.61 78.43 48.43 77.8 48.43C77.17 48.43 76.695 48.61 76.375 48.97C76.055 49.32 75.84 49.775 75.73 50.335C75.63 50.895 75.58 51.58 75.58 52.39C75.58 53.23 75.63 53.935 75.73 54.505C75.83 55.075 76.04 55.535 76.36 55.885C76.69 56.235 77.17 56.41 77.8 56.41C78.43 56.41 78.905 56.235 79.225 55.885C79.555 55.535 79.77 55.075 79.87 54.505C79.97 53.935 80.02 53.23 80.02 52.39ZM84.4544 55.675C85.4144 54.845 86.1694 54.165 86.7194 53.635C87.2794 53.095 87.7444 52.535 88.1144 51.955C88.4844 51.375 88.6694 50.795 88.6694 50.215C88.6694 49.615 88.5244 49.145 88.2344 48.805C87.9544 48.465 87.5094 48.295 86.8994 48.295C86.3094 48.295 85.8494 48.485 85.5194 48.865C85.1994 49.235 85.0294 49.735 85.0094 50.365H83.3594C83.3894 49.225 83.7294 48.355 84.3794 47.755C85.0394 47.145 85.8744 46.84 86.8844 46.84C87.9744 46.84 88.8244 47.14 89.4344 47.74C90.0544 48.34 90.3644 49.14 90.3644 50.14C90.3644 50.86 90.1794 51.555 89.8094 52.225C89.4494 52.885 89.0144 53.48 88.5044 54.01C88.0044 54.53 87.3644 55.135 86.5844 55.825L85.9094 56.425H90.6644V57.85H83.3744V56.605L84.4544 55.675ZM94.2666 55.945L92.4516 60.085H91.3416L92.4066 55.945H94.2666ZM100.527 48.64C100.217 48.64 99.9572 48.535 99.7472 48.325C99.5372 48.115 99.4322 47.855 99.4322 47.545C99.4322 47.235 99.5372 46.975 99.7472 46.765C99.9572 46.555 100.217 46.45 100.527 46.45C100.827 46.45 101.082 46.555 101.292 46.765C101.502 46.975 101.607 47.235 101.607 47.545C101.607 47.855 101.502 48.115 101.292 48.325C101.082 48.535 100.827 48.64 100.527 48.64ZM101.367 59.62C101.367 60.43 101.162 61.015 100.752 61.375C100.352 61.745 99.7672 61.93 98.9972 61.93H98.1122V60.49H98.6972C99.0472 60.49 99.2922 60.42 99.4322 60.28C99.5822 60.15 99.6572 59.93 99.6572 59.62V49.735H101.367V59.62ZM103.042 53.83C103.042 53 103.212 52.265 103.552 51.625C103.902 50.985 104.372 50.49 104.962 50.14C105.562 49.78 106.222 49.6 106.942 49.6C107.592 49.6 108.157 49.73 108.637 49.99C109.127 50.24 109.517 50.555 109.807 50.935V49.735H111.532V58H109.807V56.77C109.517 57.16 109.122 57.485 108.622 57.745C108.122 58.005 107.552 58.135 106.912 58.135C106.202 58.135 105.552 57.955 104.962 57.595C104.372 57.225 103.902 56.715 103.552 56.065C103.212 55.405 103.042 54.66 103.042 53.83ZM109.807 53.86C109.807 53.29 109.687 52.795 109.447 52.375C109.217 51.955 108.912 51.635 108.532 51.415C108.152 51.195 107.742 51.085 107.302 51.085C106.862 51.085 106.452 51.195 106.072 51.415C105.692 51.625 105.382 51.94 105.142 52.36C104.912 52.77 104.797 53.26 104.797 53.83C104.797 54.4 104.912 54.9 105.142 55.33C105.382 55.76 105.692 56.09 106.072 56.32C106.462 56.54 106.872 56.65 107.302 56.65C107.742 56.65 108.152 56.54 108.532 56.32C108.912 56.1 109.217 55.78 109.447 55.36C109.687 54.93 109.807 54.43 109.807 53.86ZM117.948 49.6C118.598 49.6 119.178 49.735 119.688 50.005C120.208 50.275 120.613 50.675 120.903 51.205C121.193 51.735 121.338 52.375 121.338 53.125V58H119.643V53.38C119.643 52.64 119.458 52.075 119.088 51.685C118.718 51.285 118.213 51.085 117.573 51.085C116.933 51.085 116.423 51.285 116.043 51.685C115.673 52.075 115.488 52.64 115.488 53.38V58H113.778V49.735H115.488V50.68C115.768 50.34 116.123 50.075 116.553 49.885C116.993 49.695 117.458 49.6 117.948 49.6ZM125.395 55.945L123.58 60.085H122.47L123.535 55.945H125.395ZM131.505 55.675C132.465 54.845 133.22 54.165 133.77 53.635C134.33 53.095 134.795 52.535 135.165 51.955C135.535 51.375 135.72 50.795 135.72 50.215C135.72 49.615 135.575 49.145 135.285 48.805C135.005 48.465 134.56 48.295 133.95 48.295C133.36 48.295 132.9 48.485 132.57 48.865C132.25 49.235 132.08 49.735 132.06 50.365H130.41C130.44 49.225 130.78 48.355 131.43 47.755C132.09 47.145 132.925 46.84 133.935 46.84C135.025 46.84 135.875 47.14 136.485 47.74C137.105 48.34 137.415 49.14 137.415 50.14C137.415 50.86 137.23 51.555 136.86 52.225C136.5 52.885 136.065 53.48 135.555 54.01C135.055 54.53 134.415 55.135 133.635 55.825L132.96 56.425H137.715V57.85H130.425V56.605L131.505 55.675ZM139.217 52.39C139.217 50.66 139.507 49.31 140.087 48.34C140.677 47.36 141.687 46.87 143.117 46.87C144.547 46.87 145.552 47.36 146.132 48.34C146.722 49.31 147.017 50.66 147.017 52.39C147.017 54.14 146.722 55.51 146.132 56.5C145.552 57.48 144.547 57.97 143.117 57.97C141.687 57.97 140.677 57.48 140.087 56.5C139.507 55.51 139.217 54.14 139.217 52.39ZM145.337 52.39C145.337 51.58 145.282 50.895 145.172 50.335C145.072 49.775 144.862 49.32 144.542 48.97C144.222 48.61 143.747 48.43 143.117 48.43C142.487 48.43 142.012 48.61 141.692 48.97C141.372 49.32 141.157 49.775 141.047 50.335C140.947 50.895 140.897 51.58 140.897 52.39C140.897 53.23 140.947 53.935 141.047 54.505C141.147 55.075 141.357 55.535 141.677 55.885C142.007 56.235 142.487 56.41 143.117 56.41C143.747 56.41 144.222 56.235 144.542 55.885C144.872 55.535 145.087 55.075 145.187 54.505C145.287 53.935 145.337 53.23 145.337 52.39ZM149.772 55.675C150.732 54.845 151.487 54.165 152.037 53.635C152.597 53.095 153.062 52.535 153.432 51.955C153.802 51.375 153.987 50.795 153.987 50.215C153.987 49.615 153.842 49.145 153.552 48.805C153.272 48.465 152.827 48.295 152.217 48.295C151.627 48.295 151.167 48.485 150.837 48.865C150.517 49.235 150.347 49.735 150.327 50.365H148.677C148.707 49.225 149.047 48.355 149.697 47.755C150.357 47.145 151.192 46.84 152.202 46.84C153.292 46.84 154.142 47.14 154.752 47.74C155.372 48.34 155.682 49.14 155.682 50.14C155.682 50.86 155.497 51.555 155.127 52.225C154.767 52.885 154.332 53.48 153.822 54.01C153.322 54.53 152.682 55.135 151.902 55.825L151.227 56.425H155.982V57.85H148.692V56.605L149.772 55.675ZM158.429 55.675C159.389 54.845 160.144 54.165 160.694 53.635C161.254 53.095 161.719 52.535 162.089 51.955C162.459 51.375 162.644 50.795 162.644 50.215C162.644 49.615 162.499 49.145 162.209 48.805C161.929 48.465 161.484 48.295 160.874 48.295C160.284 48.295 159.824 48.485 159.494 48.865C159.174 49.235 159.004 49.735 158.984 50.365H157.334C157.364 49.225 157.704 48.355 158.354 47.755C159.014 47.145 159.849 46.84 160.859 46.84C161.949 46.84 162.799 47.14 163.409 47.74C164.029 48.34 164.339 49.14 164.339 50.14C164.339 50.86 164.154 51.555 163.784 52.225C163.424 52.885 162.989 53.48 162.479 54.01C161.979 54.53 161.339 55.135 160.559 55.825L159.884 56.425H164.639V57.85H157.349V56.605L158.429 55.675Z" fill="#AAAAAA"/>
</svg>
