<svg width="361" height="66" viewBox="0 0 361 66" fill="none" xmlns="http://www.w3.org/2000/svg">
<path d="M84.1 21.24C83.78 20.6533 83.34 20.2067 82.78 19.9C82.22 19.5933 81.5667 19.44 80.82 19.44C79.9933 19.44 79.26 19.6267 78.62 20C77.98 20.3733 77.48 20.9067 77.12 21.6C76.76 22.2933 76.58 23.0933 76.58 24C76.58 24.9333 76.76 25.7467 77.12 26.44C77.4933 27.1333 78.0067 27.6667 78.66 28.04C79.3133 28.4133 80.0733 28.6 80.94 28.6C82.0067 28.6 82.88 28.32 83.56 27.76C84.24 27.1867 84.6867 26.3933 84.9 25.38H80.1V23.24H87.66V25.68C87.4733 26.6533 87.0733 27.5533 86.46 28.38C85.8467 29.2067 85.0533 29.8733 84.08 30.38C83.12 30.8733 82.04 31.12 80.84 31.12C79.4933 31.12 78.2733 30.82 77.18 30.22C76.1 29.6067 75.2467 28.76 74.62 27.68C74.0067 26.6 73.7 25.3733 73.7 24C73.7 22.6267 74.0067 21.4 74.62 20.32C75.2467 19.2267 76.1 18.38 77.18 17.78C78.2733 17.1667 79.4867 16.86 80.82 16.86C82.3933 16.86 83.76 17.2467 84.92 18.02C86.08 18.78 86.88 19.8533 87.32 21.24H84.1ZM91.1516 18.6C90.6582 18.6 90.2449 18.4467 89.9116 18.14C89.5916 17.82 89.4316 17.4267 89.4316 16.96C89.4316 16.4933 89.5916 16.1067 89.9116 15.8C90.2449 15.48 90.6582 15.32 91.1516 15.32C91.6449 15.32 92.0516 15.48 92.3716 15.8C92.7049 16.1067 92.8716 16.4933 92.8716 16.96C92.8716 17.4267 92.7049 17.82 92.3716 18.14C92.0516 18.4467 91.6449 18.6 91.1516 18.6ZM92.5316 19.92V31H89.7316V19.92H92.5316ZM98.558 22.22V27.58C98.558 27.9533 98.6446 28.2267 98.818 28.4C99.0046 28.56 99.3113 28.64 99.738 28.64H101.038V31H99.278C96.918 31 95.738 29.8533 95.738 27.56V22.22H94.418V19.92H95.738V17.18H98.558V19.92H101.038V22.22H98.558ZM109.292 19.76C110.132 19.76 110.879 19.9467 111.532 20.32C112.185 20.68 112.692 21.22 113.052 21.94C113.425 22.6467 113.612 23.5 113.612 24.5V31H110.812V24.88C110.812 24 110.592 23.3267 110.152 22.86C109.712 22.38 109.112 22.14 108.352 22.14C107.579 22.14 106.965 22.38 106.512 22.86C106.072 23.3267 105.852 24 105.852 24.88V31H103.052V16.2H105.852V21.3C106.212 20.82 106.692 20.4467 107.292 20.18C107.892 19.9 108.559 19.76 109.292 19.76ZM126.735 19.92V31H123.915V29.6C123.555 30.08 123.081 30.46 122.495 30.74C121.921 31.0067 121.295 31.14 120.615 31.14C119.748 31.14 118.981 30.96 118.315 30.6C117.648 30.2267 117.121 29.6867 116.735 28.98C116.361 28.26 116.175 27.4067 116.175 26.42V19.92H118.975V26.02C118.975 26.9 119.195 27.58 119.635 28.06C120.075 28.5267 120.675 28.76 121.435 28.76C122.208 28.76 122.815 28.5267 123.255 28.06C123.695 27.58 123.915 26.9 123.915 26.02V19.92H126.735ZM132.297 21.54C132.657 21.0067 133.151 20.5733 133.777 20.24C134.417 19.9067 135.144 19.74 135.957 19.74C136.904 19.74 137.757 19.9733 138.517 20.44C139.291 20.9067 139.897 21.5733 140.337 22.44C140.791 23.2933 141.017 24.2867 141.017 25.42C141.017 26.5533 140.791 27.56 140.337 28.44C139.897 29.3067 139.291 29.98 138.517 30.46C137.757 30.94 136.904 31.18 135.957 31.18C135.131 31.18 134.404 31.02 133.777 30.7C133.164 30.3667 132.671 29.94 132.297 29.42V31H129.497V16.2H132.297V21.54ZM138.157 25.42C138.157 24.7533 138.017 24.18 137.737 23.7C137.471 23.2067 137.111 22.8333 136.657 22.58C136.217 22.3267 135.737 22.2 135.217 22.2C134.711 22.2 134.231 22.3333 133.777 22.6C133.337 22.8533 132.977 23.2267 132.697 23.72C132.431 24.2133 132.297 24.7933 132.297 25.46C132.297 26.1267 132.431 26.7067 132.697 27.2C132.977 27.6933 133.337 28.0733 133.777 28.34C134.231 28.5933 134.711 28.72 135.217 28.72C135.737 28.72 136.217 28.5867 136.657 28.32C137.111 28.0533 137.471 27.6733 137.737 27.18C138.017 26.6867 138.157 26.1 138.157 25.42ZM155.738 23.84C156.524 23.9867 157.171 24.38 157.678 25.02C158.184 25.66 158.438 26.3933 158.438 27.22C158.438 27.9667 158.251 28.6267 157.878 29.2C157.518 29.76 156.991 30.2 156.298 30.52C155.604 30.84 154.784 31 153.838 31H147.818V17.04H153.578C154.524 17.04 155.338 17.1933 156.018 17.5C156.711 17.8067 157.231 18.2333 157.578 18.78C157.938 19.3267 158.118 19.9467 158.118 20.64C158.118 21.4533 157.898 22.1333 157.457 22.68C157.031 23.2267 156.458 23.6133 155.738 23.84ZM150.618 22.8H153.178C153.844 22.8 154.358 22.6533 154.718 22.36C155.078 22.0533 155.258 21.62 155.258 21.06C155.258 20.5 155.078 20.0667 154.718 19.76C154.358 19.4533 153.844 19.3 153.178 19.3H150.618V22.8ZM153.438 28.72C154.118 28.72 154.644 28.56 155.018 28.24C155.404 27.92 155.598 27.4667 155.598 26.88C155.598 26.28 155.398 25.8133 154.998 25.48C154.598 25.1333 154.058 24.96 153.378 24.96H150.618V28.72H153.438ZM163.469 21.64C163.829 21.0533 164.296 20.5933 164.869 20.26C165.456 19.9267 166.122 19.76 166.869 19.76V22.7H166.129C165.249 22.7 164.582 22.9067 164.129 23.32C163.689 23.7333 163.469 24.4533 163.469 25.48V31H160.669V19.92H163.469V21.64ZM168.035 25.42C168.035 24.3 168.255 23.3067 168.695 22.44C169.148 21.5733 169.755 20.9067 170.515 20.44C171.288 19.9733 172.148 19.74 173.095 19.74C173.922 19.74 174.642 19.9067 175.255 20.24C175.882 20.5733 176.382 20.9933 176.755 21.5V19.92H179.575V31H176.755V29.38C176.395 29.9 175.895 30.3333 175.255 30.68C174.628 31.0133 173.902 31.18 173.075 31.18C172.142 31.18 171.288 30.94 170.515 30.46C169.755 29.98 169.148 29.3067 168.695 28.44C168.255 27.56 168.035 26.5533 168.035 25.42ZM176.755 25.46C176.755 24.78 176.622 24.2 176.355 23.72C176.088 23.2267 175.728 22.8533 175.275 22.6C174.822 22.3333 174.335 22.2 173.815 22.2C173.295 22.2 172.815 22.3267 172.375 22.58C171.935 22.8333 171.575 23.2067 171.295 23.7C171.028 24.18 170.895 24.7533 170.895 25.42C170.895 26.0867 171.028 26.6733 171.295 27.18C171.575 27.6733 171.935 28.0533 172.375 28.32C172.828 28.5867 173.308 28.72 173.815 28.72C174.335 28.72 174.822 28.5933 175.275 28.34C175.728 28.0733 176.088 27.7 176.355 27.22C176.622 26.7267 176.755 26.14 176.755 25.46ZM188.45 19.76C189.77 19.76 190.836 20.18 191.65 21.02C192.463 21.8467 192.87 23.0067 192.87 24.5V31H190.07V24.88C190.07 24 189.85 23.3267 189.41 22.86C188.97 22.38 188.37 22.14 187.61 22.14C186.836 22.14 186.223 22.38 185.77 22.86C185.33 23.3267 185.11 24 185.11 24.88V31H182.31V19.92H185.11V21.3C185.483 20.82 185.956 20.4467 186.53 20.18C187.116 19.9 187.756 19.76 188.45 19.76ZM194.812 25.42C194.812 24.3 195.032 23.3067 195.472 22.44C195.926 21.5733 196.539 20.9067 197.312 20.44C198.086 19.9733 198.946 19.74 199.892 19.74C200.612 19.74 201.299 19.9 201.952 20.22C202.606 20.5267 203.126 20.94 203.512 21.46V16.2H206.352V31H203.512V29.36C203.166 29.9067 202.679 30.3467 202.052 30.68C201.426 31.0133 200.699 31.18 199.872 31.18C198.939 31.18 198.086 30.94 197.312 30.46C196.539 29.98 195.926 29.3067 195.472 28.44C195.032 27.56 194.812 26.5533 194.812 25.42ZM203.532 25.46C203.532 24.78 203.399 24.2 203.132 23.72C202.866 23.2267 202.506 22.8533 202.052 22.6C201.599 22.3333 201.112 22.2 200.592 22.2C200.072 22.2 199.592 22.3267 199.152 22.58C198.712 22.8333 198.352 23.2067 198.072 23.7C197.806 24.18 197.672 24.7533 197.672 25.42C197.672 26.0867 197.806 26.6733 198.072 27.18C198.352 27.6733 198.712 28.0533 199.152 28.32C199.606 28.5867 200.086 28.72 200.592 28.72C201.112 28.72 201.599 28.5933 202.052 28.34C202.506 28.0733 202.866 27.7 203.132 27.22C203.399 26.7267 203.532 26.14 203.532 25.46Z" fill="black"/>
<path d="M306.34 36.98C306.34 37.6733 306.16 38.3267 305.8 38.94C305.453 39.54 304.933 40.04 304.24 40.44C303.56 40.8267 302.753 41.0533 301.82 41.12V42.74H300.54V41.1C299.207 40.98 298.133 40.58 297.32 39.9C296.507 39.2067 296.087 38.2733 296.06 37.1H299.06C299.14 38.06 299.633 38.64 300.54 38.84V35.02C299.58 34.78 298.807 34.54 298.22 34.3C297.633 34.06 297.127 33.6733 296.7 33.14C296.273 32.6067 296.06 31.88 296.06 30.96C296.06 29.8 296.473 28.8533 297.3 28.12C298.14 27.3867 299.22 26.9667 300.54 26.86V25.24H301.82V26.86C303.1 26.9667 304.12 27.3533 304.88 28.02C305.653 28.6867 306.087 29.6067 306.18 30.78H303.16C303.12 30.3933 302.98 30.06 302.74 29.78C302.513 29.4867 302.207 29.28 301.82 29.16V32.94C302.82 33.1933 303.607 33.44 304.18 33.68C304.767 33.9067 305.273 34.2867 305.7 34.82C306.127 35.34 306.34 36.06 306.34 36.98ZM298.98 30.82C298.98 31.26 299.113 31.62 299.38 31.9C299.647 32.1667 300.033 32.3867 300.54 32.56V29.1C300.06 29.1667 299.68 29.3467 299.4 29.64C299.12 29.9333 298.98 30.3267 298.98 30.82ZM301.82 38.88C302.327 38.7867 302.72 38.58 303 38.26C303.293 37.94 303.44 37.5533 303.44 37.1C303.44 36.66 303.3 36.3067 303.02 36.04C302.74 35.7733 302.34 35.5533 301.82 35.38V38.88ZM313.572 29V26.42H318.392V41H315.512V29H313.572ZM322.038 37.84C323.318 36.7733 324.338 35.8867 325.098 35.18C325.858 34.46 326.491 33.7133 326.998 32.94C327.504 32.1667 327.758 31.4067 327.758 30.66C327.758 29.98 327.598 29.4467 327.278 29.06C326.958 28.6733 326.464 28.48 325.798 28.48C325.131 28.48 324.618 28.7067 324.258 29.16C323.898 29.6 323.711 30.2067 323.698 30.98H320.978C321.031 29.38 321.504 28.1667 322.398 27.34C323.304 26.5133 324.451 26.1 325.838 26.1C327.358 26.1 328.524 26.5067 329.338 27.32C330.151 28.12 330.558 29.18 330.558 30.5C330.558 31.54 330.278 32.5333 329.718 33.48C329.158 34.4267 328.518 35.2533 327.798 35.96C327.078 36.6533 326.138 37.4933 324.978 38.48H330.878V40.8H320.998V38.72L322.038 37.84ZM334.202 41.14C333.695 41.14 333.275 40.9867 332.942 40.68C332.622 40.36 332.462 39.9667 332.462 39.5C332.462 39.0333 332.622 38.6467 332.942 38.34C333.275 38.02 333.695 37.86 334.202 37.86C334.695 37.86 335.102 38.02 335.422 38.34C335.742 38.6467 335.902 39.0333 335.902 39.5C335.902 39.9667 335.742 40.36 335.422 40.68C335.102 40.9867 334.695 41.14 334.202 41.14ZM338.717 37.84C339.997 36.7733 341.017 35.8867 341.777 35.18C342.537 34.46 343.171 33.7133 343.677 32.94C344.184 32.1667 344.437 31.4067 344.437 30.66C344.437 29.98 344.277 29.4467 343.957 29.06C343.637 28.6733 343.144 28.48 342.477 28.48C341.811 28.48 341.297 28.7067 340.937 29.16C340.577 29.6 340.391 30.2067 340.377 30.98H337.657C337.711 29.38 338.184 28.1667 339.077 27.34C339.984 26.5133 341.131 26.1 342.517 26.1C344.037 26.1 345.204 26.5067 346.017 27.32C346.831 28.12 347.237 29.18 347.237 30.5C347.237 31.54 346.957 32.5333 346.397 33.48C345.837 34.4267 345.197 35.2533 344.477 35.96C343.757 36.6533 342.817 37.4933 341.657 38.48H347.557V40.8H337.677V38.72L338.717 37.84ZM349.362 30.26C349.428 28.9267 349.895 27.9 350.762 27.18C351.642 26.4467 352.795 26.08 354.222 26.08C355.195 26.08 356.028 26.2533 356.722 26.6C357.415 26.9333 357.935 27.3933 358.282 27.98C358.642 28.5533 358.822 29.2067 358.822 29.94C358.822 30.78 358.602 31.4933 358.162 32.08C357.735 32.6533 357.222 33.04 356.622 33.24V33.32C357.395 33.56 357.995 33.9867 358.422 34.6C358.862 35.2133 359.082 36 359.082 36.96C359.082 37.76 358.895 38.4733 358.522 39.1C358.162 39.7267 357.622 40.22 356.902 40.58C356.195 40.9267 355.342 41.1 354.342 41.1C352.835 41.1 351.608 40.72 350.662 39.96C349.715 39.2 349.215 38.08 349.162 36.6H351.882C351.908 37.2533 352.128 37.78 352.542 38.18C352.968 38.5667 353.548 38.76 354.282 38.76C354.962 38.76 355.482 38.5733 355.842 38.2C356.215 37.8133 356.402 37.32 356.402 36.72C356.402 35.92 356.148 35.3467 355.642 35C355.135 34.6533 354.348 34.48 353.282 34.48H352.702V32.18H353.282C355.175 32.18 356.122 31.5467 356.122 30.28C356.122 29.7067 355.948 29.26 355.602 28.94C355.268 28.62 354.782 28.46 354.142 28.46C353.515 28.46 353.028 28.6333 352.682 28.98C352.348 29.3133 352.155 29.74 352.102 30.26H349.362Z" fill="black"/>
<rect width="66" height="66" rx="17" fill="#F4F6F5"/>
<path d="M34 13C22.9546 13 14 21.9546 14 33C14 42.4438 20.5477 50.3538 29.35 52.4508C28.8946 52.3423 28.4431 52.2208 28 52.0823V47.5C28 47.5 27.25 47.75 26.25 47.75C23.4523 47.75 22.29 45.2538 22 44C21.8238 43.2362 21.3638 42.5123 20.87 42.07C20.28 41.5438 20.0038 41.5423 20 41.3623C19.9923 40.9846 20.5062 41 20.75 41C22 41 22.9477 42.33 23.3877 43.0177C24.4777 44.7154 25.6477 45 26.25 45C27 45 27.6477 44.8877 28.0938 44.6723C28.3 43.22 28.9462 41.9262 30 41C25.31 40.0623 22 37.3723 22 33C22 30.7477 22.9038 28.6777 24.41 27.0062C24.2562 26.57 24 25.6877 24 24.25C24 23.3 24.0662 22.1338 24.5 21C24.5 21 27.3523 21.02 30.0423 23.5677C31.2838 23.2062 32.6123 23 34 23C35.3877 23 36.7162 23.2062 37.9577 23.5677C40.6477 21.02 43.5 21 43.5 21C43.9362 22.1338 44 23.3 44 24.25C44 25.8 43.7938 26.7038 43.6677 27.0938C45.1277 28.75 46 30.7877 46 33C46 37.3723 42.69 40.0623 38 41C39.2523 42.1 40 43.7023 40 45.5V52.0823C39.5569 52.2215 39.1062 52.3423 38.65 52.4508C47.4523 50.3538 54 42.4438 54 33C54 21.9546 45.0454 13 34 13ZM35.3946 52.9462C34.9338 52.9785 34.4692 53 34 53C34.4692 53 34.9331 52.9777 35.3946 52.9462ZM38.4508 52.4969C37.5554 52.7008 36.6377 52.8438 35.7008 52.9231C36.6377 52.8438 37.5554 52.7 38.4508 52.4969ZM34 53C33.5308 53 33.0662 52.9785 32.6054 52.9462C33.0669 52.9777 33.5308 53 34 53ZM32.2985 52.9231C31.3623 52.8438 30.4438 52.7008 29.5492 52.4969C30.4446 52.7 31.3623 52.8438 32.2985 52.9231Z" fill="black"/>
<path d="M74.845 55.675C75.805 54.845 76.56 54.165 77.11 53.635C77.67 53.095 78.135 52.535 78.505 51.955C78.875 51.375 79.06 50.795 79.06 50.215C79.06 49.615 78.915 49.145 78.625 48.805C78.345 48.465 77.9 48.295 77.29 48.295C76.7 48.295 76.24 48.485 75.91 48.865C75.59 49.235 75.42 49.735 75.4 50.365H73.75C73.78 49.225 74.12 48.355 74.77 47.755C75.43 47.145 76.265 46.84 77.275 46.84C78.365 46.84 79.215 47.14 79.825 47.74C80.445 48.34 80.755 49.14 80.755 50.14C80.755 50.86 80.57 51.555 80.2 52.225C79.84 52.885 79.405 53.48 78.895 54.01C78.395 54.53 77.755 55.135 76.975 55.825L76.3 56.425H81.055V57.85H73.765V56.605L74.845 55.675ZM83.5022 55.675C84.4622 54.845 85.2172 54.165 85.7672 53.635C86.3272 53.095 86.7922 52.535 87.1622 51.955C87.5322 51.375 87.7172 50.795 87.7172 50.215C87.7172 49.615 87.5722 49.145 87.2822 48.805C87.0022 48.465 86.5572 48.295 85.9472 48.295C85.3572 48.295 84.8972 48.485 84.5672 48.865C84.2472 49.235 84.0772 49.735 84.0572 50.365H82.4072C82.4372 49.225 82.7772 48.355 83.4272 47.755C84.0872 47.145 84.9222 46.84 85.9322 46.84C87.0222 46.84 87.8722 47.14 88.4822 47.74C89.1022 48.34 89.4122 49.14 89.4122 50.14C89.4122 50.86 89.2272 51.555 88.8572 52.225C88.4972 52.885 88.0622 53.48 87.5522 54.01C87.0522 54.53 86.4122 55.135 85.6322 55.825L84.9572 56.425H89.7122V57.85H82.4222V56.605L83.5022 55.675ZM93.3145 55.945L91.4995 60.085H90.3895L91.4545 55.945H93.3145ZM99.5751 48.64C99.2651 48.64 99.0051 48.535 98.7951 48.325C98.5851 48.115 98.4801 47.855 98.4801 47.545C98.4801 47.235 98.5851 46.975 98.7951 46.765C99.0051 46.555 99.2651 46.45 99.5751 46.45C99.8751 46.45 100.13 46.555 100.34 46.765C100.55 46.975 100.655 47.235 100.655 47.545C100.655 47.855 100.55 48.115 100.34 48.325C100.13 48.535 99.8751 48.64 99.5751 48.64ZM100.415 59.62C100.415 60.43 100.21 61.015 99.8001 61.375C99.4001 61.745 98.8151 61.93 98.0451 61.93H97.1601V60.49H97.7451C98.0951 60.49 98.3401 60.42 98.4801 60.28C98.6301 60.15 98.7051 59.93 98.7051 59.62V49.735H100.415V59.62ZM102.09 53.83C102.09 53 102.26 52.265 102.6 51.625C102.95 50.985 103.42 50.49 104.01 50.14C104.61 49.78 105.27 49.6 105.99 49.6C106.64 49.6 107.205 49.73 107.685 49.99C108.175 50.24 108.565 50.555 108.855 50.935V49.735H110.58V58H108.855V56.77C108.565 57.16 108.17 57.485 107.67 57.745C107.17 58.005 106.6 58.135 105.96 58.135C105.25 58.135 104.6 57.955 104.01 57.595C103.42 57.225 102.95 56.715 102.6 56.065C102.26 55.405 102.09 54.66 102.09 53.83ZM108.855 53.86C108.855 53.29 108.735 52.795 108.495 52.375C108.265 51.955 107.96 51.635 107.58 51.415C107.2 51.195 106.79 51.085 106.35 51.085C105.91 51.085 105.5 51.195 105.12 51.415C104.74 51.625 104.43 51.94 104.19 52.36C103.96 52.77 103.845 53.26 103.845 53.83C103.845 54.4 103.96 54.9 104.19 55.33C104.43 55.76 104.74 56.09 105.12 56.32C105.51 56.54 105.92 56.65 106.35 56.65C106.79 56.65 107.2 56.54 107.58 56.32C107.96 56.1 108.265 55.78 108.495 55.36C108.735 54.93 108.855 54.43 108.855 53.86ZM116.996 49.6C117.646 49.6 118.226 49.735 118.736 50.005C119.256 50.275 119.661 50.675 119.951 51.205C120.241 51.735 120.386 52.375 120.386 53.125V58H118.691V53.38C118.691 52.64 118.506 52.075 118.136 51.685C117.766 51.285 117.261 51.085 116.621 51.085C115.981 51.085 115.471 51.285 115.091 51.685C114.721 52.075 114.536 52.64 114.536 53.38V58H112.826V49.735H114.536V50.68C114.816 50.34 115.171 50.075 115.601 49.885C116.041 49.695 116.506 49.6 116.996 49.6ZM124.442 55.945L122.627 60.085H121.517L122.582 55.945H124.442ZM130.553 55.675C131.513 54.845 132.268 54.165 132.818 53.635C133.378 53.095 133.843 52.535 134.213 51.955C134.583 51.375 134.768 50.795 134.768 50.215C134.768 49.615 134.623 49.145 134.333 48.805C134.053 48.465 133.608 48.295 132.998 48.295C132.408 48.295 131.948 48.485 131.618 48.865C131.298 49.235 131.128 49.735 131.108 50.365H129.458C129.488 49.225 129.828 48.355 130.478 47.755C131.138 47.145 131.973 46.84 132.983 46.84C134.073 46.84 134.923 47.14 135.533 47.74C136.153 48.34 136.463 49.14 136.463 50.14C136.463 50.86 136.278 51.555 135.908 52.225C135.548 52.885 135.113 53.48 134.603 54.01C134.103 54.53 133.463 55.135 132.683 55.825L132.008 56.425H136.763V57.85H129.473V56.605L130.553 55.675ZM138.265 52.39C138.265 50.66 138.555 49.31 139.135 48.34C139.725 47.36 140.735 46.87 142.165 46.87C143.595 46.87 144.6 47.36 145.18 48.34C145.77 49.31 146.065 50.66 146.065 52.39C146.065 54.14 145.77 55.51 145.18 56.5C144.6 57.48 143.595 57.97 142.165 57.97C140.735 57.97 139.725 57.48 139.135 56.5C138.555 55.51 138.265 54.14 138.265 52.39ZM144.385 52.39C144.385 51.58 144.33 50.895 144.22 50.335C144.12 49.775 143.91 49.32 143.59 48.97C143.27 48.61 142.795 48.43 142.165 48.43C141.535 48.43 141.06 48.61 140.74 48.97C140.42 49.32 140.205 49.775 140.095 50.335C139.995 50.895 139.945 51.58 139.945 52.39C139.945 53.23 139.995 53.935 140.095 54.505C140.195 55.075 140.405 55.535 140.725 55.885C141.055 56.235 141.535 56.41 142.165 56.41C142.795 56.41 143.27 56.235 143.59 55.885C143.92 55.535 144.135 55.075 144.235 54.505C144.335 53.935 144.385 53.23 144.385 52.39ZM148.82 55.675C149.78 54.845 150.535 54.165 151.085 53.635C151.645 53.095 152.11 52.535 152.48 51.955C152.85 51.375 153.035 50.795 153.035 50.215C153.035 49.615 152.89 49.145 152.6 48.805C152.32 48.465 151.875 48.295 151.265 48.295C150.675 48.295 150.215 48.485 149.885 48.865C149.565 49.235 149.395 49.735 149.375 50.365H147.725C147.755 49.225 148.095 48.355 148.745 47.755C149.405 47.145 150.24 46.84 151.25 46.84C152.34 46.84 153.19 47.14 153.8 47.74C154.42 48.34 154.73 49.14 154.73 50.14C154.73 50.86 154.545 51.555 154.175 52.225C153.815 52.885 153.38 53.48 152.87 54.01C152.37 54.53 151.73 55.135 150.95 55.825L150.275 56.425H155.03V57.85H147.74V56.605L148.82 55.675ZM157.477 55.675C158.437 54.845 159.192 54.165 159.742 53.635C160.302 53.095 160.767 52.535 161.137 51.955C161.507 51.375 161.692 50.795 161.692 50.215C161.692 49.615 161.547 49.145 161.257 48.805C160.977 48.465 160.532 48.295 159.922 48.295C159.332 48.295 158.872 48.485 158.542 48.865C158.222 49.235 158.052 49.735 158.032 50.365H156.382C156.412 49.225 156.752 48.355 157.402 47.755C158.062 47.145 158.897 46.84 159.907 46.84C160.997 46.84 161.847 47.14 162.457 47.74C163.077 48.34 163.387 49.14 163.387 50.14C163.387 50.86 163.202 51.555 162.832 52.225C162.472 52.885 162.037 53.48 161.527 54.01C161.027 54.53 160.387 55.135 159.607 55.825L158.932 56.425H163.687V57.85H156.397V56.605L157.477 55.675Z" fill="#AAAAAA"/>
</svg>
