<svg width="369" height="66" viewBox="0 0 369 66" fill="none" xmlns="http://www.w3.org/2000/svg">
<path d="M82.94 28.34H77.38L76.46 31H73.52L78.54 17.02H81.8L86.82 31H83.86L82.94 28.34ZM82.18 26.1L80.16 20.26L78.14 26.1H82.18ZM102.456 19.76C103.816 19.76 104.91 20.18 105.736 21.02C106.576 21.8467 106.996 23.0067 106.996 24.5V31H104.196V24.88C104.196 24.0133 103.976 23.3533 103.536 22.9C103.096 22.4333 102.496 22.2 101.736 22.2C100.976 22.2 100.37 22.4333 99.9164 22.9C99.4764 23.3533 99.2564 24.0133 99.2564 24.88V31H96.4564V24.88C96.4564 24.0133 96.2364 23.3533 95.7964 22.9C95.3564 22.4333 94.7564 22.2 93.9964 22.2C93.2231 22.2 92.6097 22.4333 92.1564 22.9C91.7164 23.3533 91.4964 24.0133 91.4964 24.88V31H88.6964V19.92H91.4964V21.26C91.8564 20.7933 92.3164 20.4267 92.8764 20.16C93.4497 19.8933 94.0764 19.76 94.7564 19.76C95.6231 19.76 96.3964 19.9467 97.0764 20.32C97.7564 20.68 98.2831 21.2 98.6564 21.88C99.0164 21.24 99.5364 20.7267 100.216 20.34C100.91 19.9533 101.656 19.76 102.456 19.76ZM108.933 25.42C108.933 24.3 109.153 23.3067 109.593 22.44C110.047 21.5733 110.653 20.9067 111.413 20.44C112.187 19.9733 113.047 19.74 113.993 19.74C114.82 19.74 115.54 19.9067 116.153 20.24C116.78 20.5733 117.28 20.9933 117.653 21.5V19.92H120.473V31H117.653V29.38C117.293 29.9 116.793 30.3333 116.153 30.68C115.527 31.0133 114.8 31.18 113.973 31.18C113.04 31.18 112.187 30.94 111.413 30.46C110.653 29.98 110.047 29.3067 109.593 28.44C109.153 27.56 108.933 26.5533 108.933 25.42ZM117.653 25.46C117.653 24.78 117.52 24.2 117.253 23.72C116.987 23.2267 116.627 22.8533 116.173 22.6C115.72 22.3333 115.233 22.2 114.713 22.2C114.193 22.2 113.713 22.3267 113.273 22.58C112.833 22.8333 112.473 23.2067 112.193 23.7C111.927 24.18 111.793 24.7533 111.793 25.42C111.793 26.0867 111.927 26.6733 112.193 27.18C112.473 27.6733 112.833 28.0533 113.273 28.32C113.727 28.5867 114.207 28.72 114.713 28.72C115.233 28.72 115.72 28.5933 116.173 28.34C116.627 28.0733 116.987 27.7 117.253 27.22C117.52 26.7267 117.653 26.14 117.653 25.46ZM125.768 28.7H130.708V31H122.588V28.74L127.428 22.22H122.608V19.92H130.648V22.18L125.768 28.7ZM137.796 31.18C136.729 31.18 135.769 30.9467 134.916 30.48C134.063 30 133.389 29.3267 132.896 28.46C132.416 27.5933 132.176 26.5933 132.176 25.46C132.176 24.3267 132.423 23.3267 132.916 22.46C133.423 21.5933 134.109 20.9267 134.976 20.46C135.843 19.98 136.809 19.74 137.876 19.74C138.943 19.74 139.909 19.98 140.776 20.46C141.643 20.9267 142.323 21.5933 142.816 22.46C143.323 23.3267 143.576 24.3267 143.576 25.46C143.576 26.5933 143.316 27.5933 142.796 28.46C142.289 29.3267 141.596 30 140.716 30.48C139.849 30.9467 138.876 31.18 137.796 31.18ZM137.796 28.74C138.303 28.74 138.776 28.62 139.216 28.38C139.669 28.1267 140.029 27.7533 140.296 27.26C140.563 26.7667 140.696 26.1667 140.696 25.46C140.696 24.4067 140.416 23.6 139.856 23.04C139.309 22.4667 138.636 22.18 137.836 22.18C137.036 22.18 136.363 22.4667 135.816 23.04C135.283 23.6 135.016 24.4067 135.016 25.46C135.016 26.5133 135.276 27.3267 135.796 27.9C136.329 28.46 136.996 28.74 137.796 28.74ZM151.77 19.76C153.09 19.76 154.157 20.18 154.97 21.02C155.783 21.8467 156.19 23.0067 156.19 24.5V31H153.39V24.88C153.39 24 153.17 23.3267 152.73 22.86C152.29 22.38 151.69 22.14 150.93 22.14C150.157 22.14 149.543 22.38 149.09 22.86C148.65 23.3267 148.43 24 148.43 24.88V31H145.63V19.92H148.43V21.3C148.803 20.82 149.277 20.4467 149.85 20.18C150.437 19.9 151.077 19.76 151.77 19.76Z" fill="black"/>
<path d="M306.34 36.98C306.34 37.6733 306.16 38.3267 305.8 38.94C305.453 39.54 304.933 40.04 304.24 40.44C303.56 40.8267 302.753 41.0533 301.82 41.12V42.74H300.54V41.1C299.207 40.98 298.133 40.58 297.32 39.9C296.507 39.2067 296.087 38.2733 296.06 37.1H299.06C299.14 38.06 299.633 38.64 300.54 38.84V35.02C299.58 34.78 298.807 34.54 298.22 34.3C297.633 34.06 297.127 33.6733 296.7 33.14C296.273 32.6067 296.06 31.88 296.06 30.96C296.06 29.8 296.473 28.8533 297.3 28.12C298.14 27.3867 299.22 26.9667 300.54 26.86V25.24H301.82V26.86C303.1 26.9667 304.12 27.3533 304.88 28.02C305.653 28.6867 306.087 29.6067 306.18 30.78H303.16C303.12 30.3933 302.98 30.06 302.74 29.78C302.513 29.4867 302.207 29.28 301.82 29.16V32.94C302.82 33.1933 303.607 33.44 304.18 33.68C304.767 33.9067 305.273 34.2867 305.7 34.82C306.127 35.34 306.34 36.06 306.34 36.98ZM298.98 30.82C298.98 31.26 299.113 31.62 299.38 31.9C299.647 32.1667 300.033 32.3867 300.54 32.56V29.1C300.06 29.1667 299.68 29.3467 299.4 29.64C299.12 29.9333 298.98 30.3267 298.98 30.82ZM301.82 38.88C302.327 38.7867 302.72 38.58 303 38.26C303.293 37.94 303.44 37.5533 303.44 37.1C303.44 36.66 303.3 36.3067 303.02 36.04C302.74 35.7733 302.34 35.5533 301.82 35.38V38.88ZM313.792 38.16V35.96L320.332 26.6H323.592V35.72H325.352V38.16H323.592V41H320.792V38.16H313.792ZM320.972 29.6L316.872 35.72H320.972V29.6ZM336.934 28.84H330.454V32.26C330.734 31.9133 331.134 31.6333 331.654 31.42C332.174 31.1933 332.728 31.08 333.314 31.08C334.381 31.08 335.254 31.3133 335.934 31.78C336.614 32.2467 337.108 32.8467 337.414 33.58C337.721 34.3 337.874 35.0733 337.874 35.9C337.874 37.4333 337.434 38.6667 336.554 39.6C335.688 40.5333 334.448 41 332.834 41C331.314 41 330.101 40.62 329.194 39.86C328.288 39.1 327.774 38.1067 327.654 36.88H330.374C330.494 37.4133 330.761 37.84 331.174 38.16C331.601 38.48 332.141 38.64 332.794 38.64C333.581 38.64 334.174 38.3933 334.574 37.9C334.974 37.4067 335.174 36.7533 335.174 35.94C335.174 35.1133 334.968 34.4867 334.554 34.06C334.154 33.62 333.561 33.4 332.774 33.4C332.214 33.4 331.748 33.54 331.374 33.82C331.001 34.1 330.734 34.4733 330.574 34.94H327.894V26.38H336.934V28.84ZM341.565 41.14C341.059 41.14 340.639 40.9867 340.305 40.68C339.985 40.36 339.825 39.9667 339.825 39.5C339.825 39.0333 339.985 38.6467 340.305 38.34C340.639 38.02 341.059 37.86 341.565 37.86C342.059 37.86 342.465 38.02 342.785 38.34C343.105 38.6467 343.265 39.0333 343.265 39.5C343.265 39.9667 343.105 40.36 342.785 40.68C342.465 40.9867 342.059 41.14 341.565 41.14ZM355.001 28.84H348.521V32.26C348.801 31.9133 349.201 31.6333 349.721 31.42C350.241 31.1933 350.794 31.08 351.381 31.08C352.447 31.08 353.321 31.3133 354.001 31.78C354.681 32.2467 355.174 32.8467 355.481 33.58C355.787 34.3 355.941 35.0733 355.941 35.9C355.941 37.4333 355.501 38.6667 354.621 39.6C353.754 40.5333 352.514 41 350.901 41C349.381 41 348.167 40.62 347.261 39.86C346.354 39.1 345.841 38.1067 345.721 36.88H348.441C348.561 37.4133 348.827 37.84 349.241 38.16C349.667 38.48 350.207 38.64 350.861 38.64C351.647 38.64 352.241 38.3933 352.641 37.9C353.041 37.4067 353.241 36.7533 353.241 35.94C353.241 35.1133 353.034 34.4867 352.621 34.06C352.221 33.62 351.627 33.4 350.841 33.4C350.281 33.4 349.814 33.54 349.441 33.82C349.067 34.1 348.801 34.4733 348.641 34.94H345.961V26.38H355.001V28.84ZM358.952 37.84C360.232 36.7733 361.252 35.8867 362.012 35.18C362.772 34.46 363.405 33.7133 363.912 32.94C364.418 32.1667 364.672 31.4067 364.672 30.66C364.672 29.98 364.512 29.4467 364.192 29.06C363.872 28.6733 363.378 28.48 362.712 28.48C362.045 28.48 361.532 28.7067 361.172 29.16C360.812 29.6 360.625 30.2067 360.612 30.98H357.892C357.945 29.38 358.418 28.1667 359.312 27.34C360.218 26.5133 361.365 26.1 362.752 26.1C364.272 26.1 365.438 26.5067 366.252 27.32C367.065 28.12 367.472 29.18 367.472 30.5C367.472 31.54 367.192 32.5333 366.632 33.48C366.072 34.4267 365.432 35.2533 364.712 35.96C363.992 36.6533 363.052 37.4933 361.892 38.48H367.792V40.8H357.912V38.72L358.952 37.84Z" fill="black"/>
<rect width="66" height="66" rx="17" fill="#F4F6F5"/>
<path d="M73.9 52.39C73.9 50.66 74.19 49.31 74.77 48.34C75.36 47.36 76.37 46.87 77.8 46.87C79.23 46.87 80.235 47.36 80.815 48.34C81.405 49.31 81.7 50.66 81.7 52.39C81.7 54.14 81.405 55.51 80.815 56.5C80.235 57.48 79.23 57.97 77.8 57.97C76.37 57.97 75.36 57.48 74.77 56.5C74.19 55.51 73.9 54.14 73.9 52.39ZM80.02 52.39C80.02 51.58 79.965 50.895 79.855 50.335C79.755 49.775 79.545 49.32 79.225 48.97C78.905 48.61 78.43 48.43 77.8 48.43C77.17 48.43 76.695 48.61 76.375 48.97C76.055 49.32 75.84 49.775 75.73 50.335C75.63 50.895 75.58 51.58 75.58 52.39C75.58 53.23 75.63 53.935 75.73 54.505C75.83 55.075 76.04 55.535 76.36 55.885C76.69 56.235 77.17 56.41 77.8 56.41C78.43 56.41 78.905 56.235 79.225 55.885C79.555 55.535 79.77 55.075 79.87 54.505C79.97 53.935 80.02 53.23 80.02 52.39ZM84.4544 55.675C85.4144 54.845 86.1694 54.165 86.7194 53.635C87.2794 53.095 87.7444 52.535 88.1144 51.955C88.4844 51.375 88.6694 50.795 88.6694 50.215C88.6694 49.615 88.5244 49.145 88.2344 48.805C87.9544 48.465 87.5094 48.295 86.8994 48.295C86.3094 48.295 85.8494 48.485 85.5194 48.865C85.1994 49.235 85.0294 49.735 85.0094 50.365H83.3594C83.3894 49.225 83.7294 48.355 84.3794 47.755C85.0394 47.145 85.8744 46.84 86.8844 46.84C87.9744 46.84 88.8244 47.14 89.4344 47.74C90.0544 48.34 90.3644 49.14 90.3644 50.14C90.3644 50.86 90.1794 51.555 89.8094 52.225C89.4494 52.885 89.0144 53.48 88.5044 54.01C88.0044 54.53 87.3644 55.135 86.5844 55.825L85.9094 56.425H90.6644V57.85H83.3744V56.605L84.4544 55.675ZM94.2666 55.945L92.4516 60.085H91.3416L92.4066 55.945H94.2666ZM100.527 48.64C100.217 48.64 99.9572 48.535 99.7472 48.325C99.5372 48.115 99.4322 47.855 99.4322 47.545C99.4322 47.235 99.5372 46.975 99.7472 46.765C99.9572 46.555 100.217 46.45 100.527 46.45C100.827 46.45 101.082 46.555 101.292 46.765C101.502 46.975 101.607 47.235 101.607 47.545C101.607 47.855 101.502 48.115 101.292 48.325C101.082 48.535 100.827 48.64 100.527 48.64ZM101.367 59.62C101.367 60.43 101.162 61.015 100.752 61.375C100.352 61.745 99.7672 61.93 98.9972 61.93H98.1122V60.49H98.6972C99.0472 60.49 99.2922 60.42 99.4322 60.28C99.5822 60.15 99.6572 59.93 99.6572 59.62V49.735H101.367V59.62ZM103.042 53.83C103.042 53 103.212 52.265 103.552 51.625C103.902 50.985 104.372 50.49 104.962 50.14C105.562 49.78 106.222 49.6 106.942 49.6C107.592 49.6 108.157 49.73 108.637 49.99C109.127 50.24 109.517 50.555 109.807 50.935V49.735H111.532V58H109.807V56.77C109.517 57.16 109.122 57.485 108.622 57.745C108.122 58.005 107.552 58.135 106.912 58.135C106.202 58.135 105.552 57.955 104.962 57.595C104.372 57.225 103.902 56.715 103.552 56.065C103.212 55.405 103.042 54.66 103.042 53.83ZM109.807 53.86C109.807 53.29 109.687 52.795 109.447 52.375C109.217 51.955 108.912 51.635 108.532 51.415C108.152 51.195 107.742 51.085 107.302 51.085C106.862 51.085 106.452 51.195 106.072 51.415C105.692 51.625 105.382 51.94 105.142 52.36C104.912 52.77 104.797 53.26 104.797 53.83C104.797 54.4 104.912 54.9 105.142 55.33C105.382 55.76 105.692 56.09 106.072 56.32C106.462 56.54 106.872 56.65 107.302 56.65C107.742 56.65 108.152 56.54 108.532 56.32C108.912 56.1 109.217 55.78 109.447 55.36C109.687 54.93 109.807 54.43 109.807 53.86ZM117.948 49.6C118.598 49.6 119.178 49.735 119.688 50.005C120.208 50.275 120.613 50.675 120.903 51.205C121.193 51.735 121.338 52.375 121.338 53.125V58H119.643V53.38C119.643 52.64 119.458 52.075 119.088 51.685C118.718 51.285 118.213 51.085 117.573 51.085C116.933 51.085 116.423 51.285 116.043 51.685C115.673 52.075 115.488 52.64 115.488 53.38V58H113.778V49.735H115.488V50.68C115.768 50.34 116.123 50.075 116.553 49.885C116.993 49.695 117.458 49.6 117.948 49.6ZM125.395 55.945L123.58 60.085H122.47L123.535 55.945H125.395ZM131.505 55.675C132.465 54.845 133.22 54.165 133.77 53.635C134.33 53.095 134.795 52.535 135.165 51.955C135.535 51.375 135.72 50.795 135.72 50.215C135.72 49.615 135.575 49.145 135.285 48.805C135.005 48.465 134.56 48.295 133.95 48.295C133.36 48.295 132.9 48.485 132.57 48.865C132.25 49.235 132.08 49.735 132.06 50.365H130.41C130.44 49.225 130.78 48.355 131.43 47.755C132.09 47.145 132.925 46.84 133.935 46.84C135.025 46.84 135.875 47.14 136.485 47.74C137.105 48.34 137.415 49.14 137.415 50.14C137.415 50.86 137.23 51.555 136.86 52.225C136.5 52.885 136.065 53.48 135.555 54.01C135.055 54.53 134.415 55.135 133.635 55.825L132.96 56.425H137.715V57.85H130.425V56.605L131.505 55.675ZM139.217 52.39C139.217 50.66 139.507 49.31 140.087 48.34C140.677 47.36 141.687 46.87 143.117 46.87C144.547 46.87 145.552 47.36 146.132 48.34C146.722 49.31 147.017 50.66 147.017 52.39C147.017 54.14 146.722 55.51 146.132 56.5C145.552 57.48 144.547 57.97 143.117 57.97C141.687 57.97 140.677 57.48 140.087 56.5C139.507 55.51 139.217 54.14 139.217 52.39ZM145.337 52.39C145.337 51.58 145.282 50.895 145.172 50.335C145.072 49.775 144.862 49.32 144.542 48.97C144.222 48.61 143.747 48.43 143.117 48.43C142.487 48.43 142.012 48.61 141.692 48.97C141.372 49.32 141.157 49.775 141.047 50.335C140.947 50.895 140.897 51.58 140.897 52.39C140.897 53.23 140.947 53.935 141.047 54.505C141.147 55.075 141.357 55.535 141.677 55.885C142.007 56.235 142.487 56.41 143.117 56.41C143.747 56.41 144.222 56.235 144.542 55.885C144.872 55.535 145.087 55.075 145.187 54.505C145.287 53.935 145.337 53.23 145.337 52.39ZM149.772 55.675C150.732 54.845 151.487 54.165 152.037 53.635C152.597 53.095 153.062 52.535 153.432 51.955C153.802 51.375 153.987 50.795 153.987 50.215C153.987 49.615 153.842 49.145 153.552 48.805C153.272 48.465 152.827 48.295 152.217 48.295C151.627 48.295 151.167 48.485 150.837 48.865C150.517 49.235 150.347 49.735 150.327 50.365H148.677C148.707 49.225 149.047 48.355 149.697 47.755C150.357 47.145 151.192 46.84 152.202 46.84C153.292 46.84 154.142 47.14 154.752 47.74C155.372 48.34 155.682 49.14 155.682 50.14C155.682 50.86 155.497 51.555 155.127 52.225C154.767 52.885 154.332 53.48 153.822 54.01C153.322 54.53 152.682 55.135 151.902 55.825L151.227 56.425H155.982V57.85H148.692V56.605L149.772 55.675ZM158.429 55.675C159.389 54.845 160.144 54.165 160.694 53.635C161.254 53.095 161.719 52.535 162.089 51.955C162.459 51.375 162.644 50.795 162.644 50.215C162.644 49.615 162.499 49.145 162.209 48.805C161.929 48.465 161.484 48.295 160.874 48.295C160.284 48.295 159.824 48.485 159.494 48.865C159.174 49.235 159.004 49.735 158.984 50.365H157.334C157.364 49.225 157.704 48.355 158.354 47.755C159.014 47.145 159.849 46.84 160.859 46.84C161.949 46.84 162.799 47.14 163.409 47.74C164.029 48.34 164.339 49.14 164.339 50.14C164.339 50.86 164.154 51.555 163.784 52.225C163.424 52.885 162.989 53.48 162.479 54.01C161.979 54.53 161.339 55.135 160.559 55.825L159.884 56.425H164.639V57.85H157.349V56.605L158.429 55.675Z" fill="#AAAAAA"/>
<path d="M34.3039 14C29.0197 14 23.201 16.0027 21.9899 22.498C21.8174 23.1915 22.3417 23.5197 22.7747 23.6076L28.1334 24.1218C28.6543 24.1218 29.0163 23.6144 29.1888 23.0934C29.6219 20.8404 31.5231 19.7104 33.6002 19.7104C34.7268 19.7104 36.0191 20.1604 36.7126 21.199C37.4906 22.3255 37.335 23.8783 37.335 25.1773V25.9622C34.1314 26.3072 29.9737 26.5576 26.9425 27.8566C23.4784 29.3282 21.0427 32.3661 21.0427 36.8689C21.0427 42.5861 24.6793 45.4481 29.27 45.4481C33.1672 45.4481 35.3323 44.4805 38.3634 41.3614C39.402 42.833 39.7369 43.5367 41.557 45.0962C41.99 45.3567 42.511 45.2519 42.856 44.9068V45.015C43.9826 44.061 45.9785 42.2342 47.105 41.2802C47.5381 41.0198 47.4501 40.4142 47.105 39.9812C46.0665 38.5942 45.0211 37.4643 45.0211 34.8661V26.2869C45.0211 22.6502 45.2985 19.2707 42.6125 16.7605C40.4474 14.6834 36.99 14 34.3039 14ZM35.7653 30.4548H37.2268V31.6726C37.2268 33.7498 37.3181 35.5597 36.2795 37.4643C35.4135 39.0238 34.0231 39.9812 32.4636 39.9812C30.3864 39.9812 29.1076 38.4284 29.1076 36.0028C29.1076 31.9331 32.3012 30.7152 35.7653 30.4548ZM51.0022 43.0935C49.6152 43.0935 47.9643 43.4453 46.7532 44.3114C46.4081 44.5719 46.4284 44.9068 46.8615 44.9068C48.2485 44.7343 51.3439 44.3182 51.9494 45.0962C52.4704 45.7897 51.3608 48.716 50.8398 50.103C50.6673 50.536 51.009 50.6342 51.354 50.3737C53.6917 48.3811 54.304 44.3182 53.871 43.7972C53.6105 43.3642 52.3892 43.0935 51.0022 43.0935ZM14.2767 43.8784C14.0162 43.8784 13.8505 44.3215 14.1955 44.582C19.3918 49.2573 26.2457 52.1057 33.9521 52.1057C39.4088 52.1057 45.718 50.3838 50.1362 47.1801C50.8297 46.6592 50.2343 45.7796 49.5408 46.1247C44.605 48.2018 39.3174 49.237 34.4663 49.237C27.2775 49.237 20.339 47.2444 14.7097 44.0407C14.5372 43.8682 14.3647 43.8784 14.2767 43.8784Z" fill="black"/>
</svg>
