<svg width="361" height="66" viewBox="0 0 361 66" fill="none" xmlns="http://www.w3.org/2000/svg">
<path d="M79.2 31.14C78.2267 31.14 77.3467 30.9733 76.56 30.64C75.7867 30.3067 75.1733 29.8267 74.72 29.2C74.2667 28.5733 74.0333 27.8333 74.02 26.98H77.02C77.06 27.5533 77.26 28.0067 77.62 28.34C77.9933 28.6733 78.5 28.84 79.14 28.84C79.7933 28.84 80.3067 28.6867 80.68 28.38C81.0533 28.06 81.24 27.6467 81.24 27.14C81.24 26.7267 81.1133 26.3867 80.86 26.12C80.6067 25.8533 80.2867 25.6467 79.9 25.5C79.5267 25.34 79.0067 25.1667 78.34 24.98C77.4333 24.7133 76.6933 24.4533 76.12 24.2C75.56 23.9333 75.0733 23.54 74.66 23.02C74.26 22.4867 74.06 21.78 74.06 20.9C74.06 20.0733 74.2667 19.3533 74.68 18.74C75.0933 18.1267 75.6733 17.66 76.42 17.34C77.1667 17.0067 78.02 16.84 78.98 16.84C80.42 16.84 81.5867 17.1933 82.48 17.9C83.3867 18.5933 83.8867 19.5667 83.98 20.82H80.9C80.8733 20.34 80.6667 19.9467 80.28 19.64C79.9067 19.32 79.4067 19.16 78.78 19.16C78.2333 19.16 77.7933 19.3 77.46 19.58C77.14 19.86 76.98 20.2667 76.98 20.8C76.98 21.1733 77.1 21.4867 77.34 21.74C77.5933 21.98 77.9 22.18 78.26 22.34C78.6333 22.4867 79.1533 22.66 79.82 22.86C80.7267 23.1267 81.4667 23.3933 82.04 23.66C82.6133 23.9267 83.1067 24.3267 83.52 24.86C83.9333 25.3933 84.14 26.0933 84.14 26.96C84.14 27.7067 83.9467 28.4 83.56 29.04C83.1733 29.68 82.6067 30.1933 81.86 30.58C81.1133 30.9533 80.2267 31.14 79.2 31.14ZM92.7075 19.76C94.0275 19.76 95.0942 20.18 95.9075 21.02C96.7208 21.8467 97.1275 23.0067 97.1275 24.5V31H94.3275V24.88C94.3275 24 94.1075 23.3267 93.6675 22.86C93.2275 22.38 92.6275 22.14 91.8675 22.14C91.0942 22.14 90.4808 22.38 90.0275 22.86C89.5875 23.3267 89.3675 24 89.3675 24.88V31H86.5675V19.92H89.3675V21.3C89.7408 20.82 90.2142 20.4467 90.7875 20.18C91.3742 19.9 92.0142 19.76 92.7075 19.76ZM99.0702 25.42C99.0702 24.3 99.2902 23.3067 99.7302 22.44C100.183 21.5733 100.79 20.9067 101.55 20.44C102.323 19.9733 103.183 19.74 104.13 19.74C104.957 19.74 105.677 19.9067 106.29 20.24C106.917 20.5733 107.417 20.9933 107.79 21.5V19.92H110.61V31H107.79V29.38C107.43 29.9 106.93 30.3333 106.29 30.68C105.663 31.0133 104.937 31.18 104.11 31.18C103.177 31.18 102.323 30.94 101.55 30.46C100.79 29.98 100.183 29.3067 99.7302 28.44C99.2902 27.56 99.0702 26.5533 99.0702 25.42ZM107.79 25.46C107.79 24.78 107.657 24.2 107.39 23.72C107.123 23.2267 106.763 22.8533 106.31 22.6C105.857 22.3333 105.37 22.2 104.85 22.2C104.33 22.2 103.85 22.3267 103.41 22.58C102.97 22.8333 102.61 23.2067 102.33 23.7C102.063 24.18 101.93 24.7533 101.93 25.42C101.93 26.0867 102.063 26.6733 102.33 27.18C102.61 27.6733 102.97 28.0533 103.41 28.32C103.863 28.5867 104.343 28.72 104.85 28.72C105.37 28.72 105.857 28.5933 106.31 28.34C106.763 28.0733 107.123 27.7 107.39 27.22C107.657 26.7267 107.79 26.14 107.79 25.46ZM116.145 21.52C116.505 21.0133 116.998 20.5933 117.625 20.26C118.265 19.9133 118.992 19.74 119.805 19.74C120.752 19.74 121.605 19.9733 122.365 20.44C123.138 20.9067 123.745 21.5733 124.185 22.44C124.638 23.2933 124.865 24.2867 124.865 25.42C124.865 26.5533 124.638 27.56 124.185 28.44C123.745 29.3067 123.138 29.98 122.365 30.46C121.605 30.94 120.752 31.18 119.805 31.18C118.992 31.18 118.272 31.0133 117.645 30.68C117.032 30.3467 116.532 29.9267 116.145 29.42V36.28H113.345V19.92H116.145V21.52ZM122.005 25.42C122.005 24.7533 121.865 24.18 121.585 23.7C121.318 23.2067 120.958 22.8333 120.505 22.58C120.065 22.3267 119.585 22.2 119.065 22.2C118.558 22.2 118.078 22.3333 117.625 22.6C117.185 22.8533 116.825 23.2267 116.545 23.72C116.278 24.2133 116.145 24.7933 116.145 25.46C116.145 26.1267 116.278 26.7067 116.545 27.2C116.825 27.6933 117.185 28.0733 117.625 28.34C118.078 28.5933 118.558 28.72 119.065 28.72C119.585 28.72 120.065 28.5867 120.505 28.32C120.958 28.0533 121.318 27.6733 121.585 27.18C121.865 26.6867 122.005 26.1 122.005 25.42ZM126.18 25.46C126.18 24.3133 126.413 23.3133 126.88 22.46C127.346 21.5933 127.993 20.9267 128.82 20.46C129.646 19.98 130.593 19.74 131.66 19.74C133.033 19.74 134.166 20.0867 135.06 20.78C135.966 21.46 136.573 22.42 136.88 23.66H133.86C133.7 23.18 133.426 22.8067 133.04 22.54C132.666 22.26 132.2 22.12 131.64 22.12C130.84 22.12 130.206 22.4133 129.74 23C129.273 23.5733 129.04 24.3933 129.04 25.46C129.04 26.5133 129.273 27.3333 129.74 27.92C130.206 28.4933 130.84 28.78 131.64 28.78C132.773 28.78 133.513 28.2733 133.86 27.26H136.88C136.573 28.46 135.966 29.4133 135.06 30.12C134.153 30.8267 133.02 31.18 131.66 31.18C130.593 31.18 129.646 30.9467 128.82 30.48C127.993 30 127.346 29.3333 126.88 28.48C126.413 27.6133 126.18 26.6067 126.18 25.46ZM145.171 19.76C146.011 19.76 146.757 19.9467 147.411 20.32C148.064 20.68 148.571 21.22 148.931 21.94C149.304 22.6467 149.491 23.5 149.491 24.5V31H146.691V24.88C146.691 24 146.471 23.3267 146.031 22.86C145.591 22.38 144.991 22.14 144.231 22.14C143.457 22.14 142.844 22.38 142.391 22.86C141.951 23.3267 141.731 24 141.731 24.88V31H138.931V16.2H141.731V21.3C142.091 20.82 142.571 20.4467 143.171 20.18C143.771 19.9 144.437 19.76 145.171 19.76ZM151.433 25.42C151.433 24.3 151.653 23.3067 152.093 22.44C152.547 21.5733 153.153 20.9067 153.913 20.44C154.687 19.9733 155.547 19.74 156.493 19.74C157.32 19.74 158.04 19.9067 158.653 20.24C159.28 20.5733 159.78 20.9933 160.153 21.5V19.92H162.973V31H160.153V29.38C159.793 29.9 159.293 30.3333 158.653 30.68C158.027 31.0133 157.3 31.18 156.473 31.18C155.54 31.18 154.687 30.94 153.913 30.46C153.153 29.98 152.547 29.3067 152.093 28.44C151.653 27.56 151.433 26.5533 151.433 25.42ZM160.153 25.46C160.153 24.78 160.02 24.2 159.753 23.72C159.487 23.2267 159.127 22.8533 158.673 22.6C158.22 22.3333 157.733 22.2 157.213 22.2C156.693 22.2 156.213 22.3267 155.773 22.58C155.333 22.8333 154.973 23.2067 154.693 23.7C154.427 24.18 154.293 24.7533 154.293 25.42C154.293 26.0867 154.427 26.6733 154.693 27.18C154.973 27.6733 155.333 28.0533 155.773 28.32C156.227 28.5867 156.707 28.72 157.213 28.72C157.733 28.72 158.22 28.5933 158.673 28.34C159.127 28.0733 159.487 27.7 159.753 27.22C160.02 26.7267 160.153 26.14 160.153 25.46ZM168.968 22.22V27.58C168.968 27.9533 169.055 28.2267 169.228 28.4C169.415 28.56 169.721 28.64 170.148 28.64H171.448V31H169.688C167.328 31 166.148 29.8533 166.148 27.56V22.22H164.828V19.92H166.148V17.18H168.968V19.92H171.448V22.22H168.968Z" fill="black"/>
<path d="M306.34 36.98C306.34 37.6733 306.16 38.3267 305.8 38.94C305.453 39.54 304.933 40.04 304.24 40.44C303.56 40.8267 302.753 41.0533 301.82 41.12V42.74H300.54V41.1C299.207 40.98 298.133 40.58 297.32 39.9C296.507 39.2067 296.087 38.2733 296.06 37.1H299.06C299.14 38.06 299.633 38.64 300.54 38.84V35.02C299.58 34.78 298.807 34.54 298.22 34.3C297.633 34.06 297.127 33.6733 296.7 33.14C296.273 32.6067 296.06 31.88 296.06 30.96C296.06 29.8 296.473 28.8533 297.3 28.12C298.14 27.3867 299.22 26.9667 300.54 26.86V25.24H301.82V26.86C303.1 26.9667 304.12 27.3533 304.88 28.02C305.653 28.6867 306.087 29.6067 306.18 30.78H303.16C303.12 30.3933 302.98 30.06 302.74 29.78C302.513 29.4867 302.207 29.28 301.82 29.16V32.94C302.82 33.1933 303.607 33.44 304.18 33.68C304.767 33.9067 305.273 34.2867 305.7 34.82C306.127 35.34 306.34 36.06 306.34 36.98ZM298.98 30.82C298.98 31.26 299.113 31.62 299.38 31.9C299.647 32.1667 300.033 32.3867 300.54 32.56V29.1C300.06 29.1667 299.68 29.3467 299.4 29.64C299.12 29.9333 298.98 30.3267 298.98 30.82ZM301.82 38.88C302.327 38.7867 302.72 38.58 303 38.26C303.293 37.94 303.44 37.5533 303.44 37.1C303.44 36.66 303.3 36.3067 303.02 36.04C302.74 35.7733 302.34 35.5533 301.82 35.38V38.88ZM313.572 29V26.42H318.392V41H315.512V29H313.572ZM322.038 37.84C323.318 36.7733 324.338 35.8867 325.098 35.18C325.858 34.46 326.491 33.7133 326.998 32.94C327.504 32.1667 327.758 31.4067 327.758 30.66C327.758 29.98 327.598 29.4467 327.278 29.06C326.958 28.6733 326.464 28.48 325.798 28.48C325.131 28.48 324.618 28.7067 324.258 29.16C323.898 29.6 323.711 30.2067 323.698 30.98H320.978C321.031 29.38 321.504 28.1667 322.398 27.34C323.304 26.5133 324.451 26.1 325.838 26.1C327.358 26.1 328.524 26.5067 329.338 27.32C330.151 28.12 330.558 29.18 330.558 30.5C330.558 31.54 330.278 32.5333 329.718 33.48C329.158 34.4267 328.518 35.2533 327.798 35.96C327.078 36.6533 326.138 37.4933 324.978 38.48H330.878V40.8H320.998V38.72L322.038 37.84ZM334.202 41.14C333.695 41.14 333.275 40.9867 332.942 40.68C332.622 40.36 332.462 39.9667 332.462 39.5C332.462 39.0333 332.622 38.6467 332.942 38.34C333.275 38.02 333.695 37.86 334.202 37.86C334.695 37.86 335.102 38.02 335.422 38.34C335.742 38.6467 335.902 39.0333 335.902 39.5C335.902 39.9667 335.742 40.36 335.422 40.68C335.102 40.9867 334.695 41.14 334.202 41.14ZM338.717 37.84C339.997 36.7733 341.017 35.8867 341.777 35.18C342.537 34.46 343.171 33.7133 343.677 32.94C344.184 32.1667 344.437 31.4067 344.437 30.66C344.437 29.98 344.277 29.4467 343.957 29.06C343.637 28.6733 343.144 28.48 342.477 28.48C341.811 28.48 341.297 28.7067 340.937 29.16C340.577 29.6 340.391 30.2067 340.377 30.98H337.657C337.711 29.38 338.184 28.1667 339.077 27.34C339.984 26.5133 341.131 26.1 342.517 26.1C344.037 26.1 345.204 26.5067 346.017 27.32C346.831 28.12 347.237 29.18 347.237 30.5C347.237 31.54 346.957 32.5333 346.397 33.48C345.837 34.4267 345.197 35.2533 344.477 35.96C343.757 36.6533 342.817 37.4933 341.657 38.48H347.557V40.8H337.677V38.72L338.717 37.84ZM349.362 30.26C349.428 28.9267 349.895 27.9 350.762 27.18C351.642 26.4467 352.795 26.08 354.222 26.08C355.195 26.08 356.028 26.2533 356.722 26.6C357.415 26.9333 357.935 27.3933 358.282 27.98C358.642 28.5533 358.822 29.2067 358.822 29.94C358.822 30.78 358.602 31.4933 358.162 32.08C357.735 32.6533 357.222 33.04 356.622 33.24V33.32C357.395 33.56 357.995 33.9867 358.422 34.6C358.862 35.2133 359.082 36 359.082 36.96C359.082 37.76 358.895 38.4733 358.522 39.1C358.162 39.7267 357.622 40.22 356.902 40.58C356.195 40.9267 355.342 41.1 354.342 41.1C352.835 41.1 351.608 40.72 350.662 39.96C349.715 39.2 349.215 38.08 349.162 36.6H351.882C351.908 37.2533 352.128 37.78 352.542 38.18C352.968 38.5667 353.548 38.76 354.282 38.76C354.962 38.76 355.482 38.5733 355.842 38.2C356.215 37.8133 356.402 37.32 356.402 36.72C356.402 35.92 356.148 35.3467 355.642 35C355.135 34.6533 354.348 34.48 353.282 34.48H352.702V32.18H353.282C355.175 32.18 356.122 31.5467 356.122 30.28C356.122 29.7067 355.948 29.26 355.602 28.94C355.268 28.62 354.782 28.46 354.142 28.46C353.515 28.46 353.028 28.6333 352.682 28.98C352.348 29.3133 352.155 29.74 352.102 30.26H349.362Z" fill="black"/>
<rect width="66" height="66" rx="17" fill="#F4F6F5"/>
<path d="M74.845 55.675C75.805 54.845 76.56 54.165 77.11 53.635C77.67 53.095 78.135 52.535 78.505 51.955C78.875 51.375 79.06 50.795 79.06 50.215C79.06 49.615 78.915 49.145 78.625 48.805C78.345 48.465 77.9 48.295 77.29 48.295C76.7 48.295 76.24 48.485 75.91 48.865C75.59 49.235 75.42 49.735 75.4 50.365H73.75C73.78 49.225 74.12 48.355 74.77 47.755C75.43 47.145 76.265 46.84 77.275 46.84C78.365 46.84 79.215 47.14 79.825 47.74C80.445 48.34 80.755 49.14 80.755 50.14C80.755 50.86 80.57 51.555 80.2 52.225C79.84 52.885 79.405 53.48 78.895 54.01C78.395 54.53 77.755 55.135 76.975 55.825L76.3 56.425H81.055V57.85H73.765V56.605L74.845 55.675ZM83.5022 55.675C84.4622 54.845 85.2172 54.165 85.7672 53.635C86.3272 53.095 86.7922 52.535 87.1622 51.955C87.5322 51.375 87.7172 50.795 87.7172 50.215C87.7172 49.615 87.5722 49.145 87.2822 48.805C87.0022 48.465 86.5572 48.295 85.9472 48.295C85.3572 48.295 84.8972 48.485 84.5672 48.865C84.2472 49.235 84.0772 49.735 84.0572 50.365H82.4072C82.4372 49.225 82.7772 48.355 83.4272 47.755C84.0872 47.145 84.9222 46.84 85.9322 46.84C87.0222 46.84 87.8722 47.14 88.4822 47.74C89.1022 48.34 89.4122 49.14 89.4122 50.14C89.4122 50.86 89.2272 51.555 88.8572 52.225C88.4972 52.885 88.0622 53.48 87.5522 54.01C87.0522 54.53 86.4122 55.135 85.6322 55.825L84.9572 56.425H89.7122V57.85H82.4222V56.605L83.5022 55.675ZM93.3145 55.945L91.4995 60.085H90.3895L91.4545 55.945H93.3145ZM99.5751 48.64C99.2651 48.64 99.0051 48.535 98.7951 48.325C98.5851 48.115 98.4801 47.855 98.4801 47.545C98.4801 47.235 98.5851 46.975 98.7951 46.765C99.0051 46.555 99.2651 46.45 99.5751 46.45C99.8751 46.45 100.13 46.555 100.34 46.765C100.55 46.975 100.655 47.235 100.655 47.545C100.655 47.855 100.55 48.115 100.34 48.325C100.13 48.535 99.8751 48.64 99.5751 48.64ZM100.415 59.62C100.415 60.43 100.21 61.015 99.8001 61.375C99.4001 61.745 98.8151 61.93 98.0451 61.93H97.1601V60.49H97.7451C98.0951 60.49 98.3401 60.42 98.4801 60.28C98.6301 60.15 98.7051 59.93 98.7051 59.62V49.735H100.415V59.62ZM102.09 53.83C102.09 53 102.26 52.265 102.6 51.625C102.95 50.985 103.42 50.49 104.01 50.14C104.61 49.78 105.27 49.6 105.99 49.6C106.64 49.6 107.205 49.73 107.685 49.99C108.175 50.24 108.565 50.555 108.855 50.935V49.735H110.58V58H108.855V56.77C108.565 57.16 108.17 57.485 107.67 57.745C107.17 58.005 106.6 58.135 105.96 58.135C105.25 58.135 104.6 57.955 104.01 57.595C103.42 57.225 102.95 56.715 102.6 56.065C102.26 55.405 102.09 54.66 102.09 53.83ZM108.855 53.86C108.855 53.29 108.735 52.795 108.495 52.375C108.265 51.955 107.96 51.635 107.58 51.415C107.2 51.195 106.79 51.085 106.35 51.085C105.91 51.085 105.5 51.195 105.12 51.415C104.74 51.625 104.43 51.94 104.19 52.36C103.96 52.77 103.845 53.26 103.845 53.83C103.845 54.4 103.96 54.9 104.19 55.33C104.43 55.76 104.74 56.09 105.12 56.32C105.51 56.54 105.92 56.65 106.35 56.65C106.79 56.65 107.2 56.54 107.58 56.32C107.96 56.1 108.265 55.78 108.495 55.36C108.735 54.93 108.855 54.43 108.855 53.86ZM116.996 49.6C117.646 49.6 118.226 49.735 118.736 50.005C119.256 50.275 119.661 50.675 119.951 51.205C120.241 51.735 120.386 52.375 120.386 53.125V58H118.691V53.38C118.691 52.64 118.506 52.075 118.136 51.685C117.766 51.285 117.261 51.085 116.621 51.085C115.981 51.085 115.471 51.285 115.091 51.685C114.721 52.075 114.536 52.64 114.536 53.38V58H112.826V49.735H114.536V50.68C114.816 50.34 115.171 50.075 115.601 49.885C116.041 49.695 116.506 49.6 116.996 49.6ZM124.442 55.945L122.627 60.085H121.517L122.582 55.945H124.442ZM130.553 55.675C131.513 54.845 132.268 54.165 132.818 53.635C133.378 53.095 133.843 52.535 134.213 51.955C134.583 51.375 134.768 50.795 134.768 50.215C134.768 49.615 134.623 49.145 134.333 48.805C134.053 48.465 133.608 48.295 132.998 48.295C132.408 48.295 131.948 48.485 131.618 48.865C131.298 49.235 131.128 49.735 131.108 50.365H129.458C129.488 49.225 129.828 48.355 130.478 47.755C131.138 47.145 131.973 46.84 132.983 46.84C134.073 46.84 134.923 47.14 135.533 47.74C136.153 48.34 136.463 49.14 136.463 50.14C136.463 50.86 136.278 51.555 135.908 52.225C135.548 52.885 135.113 53.48 134.603 54.01C134.103 54.53 133.463 55.135 132.683 55.825L132.008 56.425H136.763V57.85H129.473V56.605L130.553 55.675ZM138.265 52.39C138.265 50.66 138.555 49.31 139.135 48.34C139.725 47.36 140.735 46.87 142.165 46.87C143.595 46.87 144.6 47.36 145.18 48.34C145.77 49.31 146.065 50.66 146.065 52.39C146.065 54.14 145.77 55.51 145.18 56.5C144.6 57.48 143.595 57.97 142.165 57.97C140.735 57.97 139.725 57.48 139.135 56.5C138.555 55.51 138.265 54.14 138.265 52.39ZM144.385 52.39C144.385 51.58 144.33 50.895 144.22 50.335C144.12 49.775 143.91 49.32 143.59 48.97C143.27 48.61 142.795 48.43 142.165 48.43C141.535 48.43 141.06 48.61 140.74 48.97C140.42 49.32 140.205 49.775 140.095 50.335C139.995 50.895 139.945 51.58 139.945 52.39C139.945 53.23 139.995 53.935 140.095 54.505C140.195 55.075 140.405 55.535 140.725 55.885C141.055 56.235 141.535 56.41 142.165 56.41C142.795 56.41 143.27 56.235 143.59 55.885C143.92 55.535 144.135 55.075 144.235 54.505C144.335 53.935 144.385 53.23 144.385 52.39ZM148.82 55.675C149.78 54.845 150.535 54.165 151.085 53.635C151.645 53.095 152.11 52.535 152.48 51.955C152.85 51.375 153.035 50.795 153.035 50.215C153.035 49.615 152.89 49.145 152.6 48.805C152.32 48.465 151.875 48.295 151.265 48.295C150.675 48.295 150.215 48.485 149.885 48.865C149.565 49.235 149.395 49.735 149.375 50.365H147.725C147.755 49.225 148.095 48.355 148.745 47.755C149.405 47.145 150.24 46.84 151.25 46.84C152.34 46.84 153.19 47.14 153.8 47.74C154.42 48.34 154.73 49.14 154.73 50.14C154.73 50.86 154.545 51.555 154.175 52.225C153.815 52.885 153.38 53.48 152.87 54.01C152.37 54.53 151.73 55.135 150.95 55.825L150.275 56.425H155.03V57.85H147.74V56.605L148.82 55.675ZM157.477 55.675C158.437 54.845 159.192 54.165 159.742 53.635C160.302 53.095 160.767 52.535 161.137 51.955C161.507 51.375 161.692 50.795 161.692 50.215C161.692 49.615 161.547 49.145 161.257 48.805C160.977 48.465 160.532 48.295 159.922 48.295C159.332 48.295 158.872 48.485 158.542 48.865C158.222 49.235 158.052 49.735 158.032 50.365H156.382C156.412 49.225 156.752 48.355 157.402 47.755C158.062 47.145 158.897 46.84 159.907 46.84C160.997 46.84 161.847 47.14 162.457 47.74C163.077 48.34 163.387 49.14 163.387 50.14C163.387 50.86 163.202 51.555 162.832 52.225C162.472 52.885 162.037 53.48 161.527 54.01C161.027 54.53 160.387 55.135 159.607 55.825L158.932 56.425H163.687V57.85H156.397V56.605L157.477 55.675Z" fill="#AAAAAA"/>
<path d="M51.9284 41.5859C46.8812 40.7537 44.5751 35.5266 44.5003 35.3568C44.4902 35.3262 44.4664 35.2719 44.4528 35.2413C44.3 34.9356 44.1471 34.5043 44.2762 34.1986C44.4969 33.6756 45.5464 33.3427 46.1748 33.1423C46.3956 33.071 46.6061 33.0065 46.7692 32.9419C48.2942 32.3374 49.055 31.5494 49.038 30.5916C49.0244 29.8206 48.4334 29.1142 47.5639 28.8085C47.2616 28.6794 46.9152 28.6149 46.5654 28.6149C46.3276 28.6149 45.9676 28.6488 45.6212 28.8085C45.0404 29.0802 44.5309 29.2262 44.1675 29.2432C44.0894 29.2398 44.0214 29.233 43.9637 29.2228L44.0011 28.6251C44.1709 25.9215 44.3849 22.5522 43.4712 20.5042C40.7745 14.4687 35.0616 14 33.3736 14L32.606 14.0068C30.9214 14.0068 25.2188 14.4755 22.5288 20.5076C21.6151 22.5556 21.8257 25.9215 21.9989 28.6285L22.0057 28.7304C22.0159 28.8968 22.0261 29.0632 22.0363 29.2228C21.6593 29.2908 20.9223 29.1651 20.1581 28.8085C19.1188 28.3228 17.2473 28.9647 16.9892 30.3233C16.8737 30.9245 17.013 32.0657 19.2274 32.9385C19.3939 33.0065 19.6011 33.071 19.8252 33.1423C20.4502 33.3427 21.4997 33.6722 21.7204 34.1986C21.8495 34.5043 21.6967 34.9356 21.5166 35.3059C21.4215 35.5266 19.1289 40.7537 14.0716 41.5859C13.4263 41.6912 12.9678 42.2618 13.0018 42.9207C13.012 43.0939 13.0561 43.2671 13.1274 43.4369C13.586 44.5136 15.2536 45.254 18.3647 45.7601C18.4191 45.9435 18.4802 46.2152 18.5142 46.3647C18.5787 46.6737 18.65 46.9862 18.7451 47.3123C18.8369 47.6213 19.1527 48.338 20.1377 48.338C20.4366 48.338 20.7626 48.2735 21.1125 48.2055C21.6287 48.1036 22.274 47.978 23.1028 47.978C23.5647 47.978 24.0402 48.0187 24.5191 48.0968C25.4022 48.2429 26.2003 48.8101 27.1276 49.4622C28.5744 50.4879 30.2149 51.6461 32.7589 51.6461C32.8268 51.6461 32.8947 51.6427 32.9592 51.6393C33.0509 51.6427 33.146 51.6461 33.2411 51.6461C35.7851 51.6461 37.4256 50.4845 38.8758 49.4622C39.7589 48.8339 40.5944 48.2463 41.4809 48.0968C41.9598 48.0187 42.4353 47.978 42.8972 47.978C43.6954 47.978 44.3271 48.0799 44.8909 48.1919C45.2917 48.2701 45.611 48.3074 45.9065 48.3074C46.5654 48.3074 47.0714 47.9304 47.2549 47.2987C47.35 46.9794 47.4179 46.6703 47.4858 46.3579C47.513 46.2424 47.5775 45.9503 47.6353 45.7567C50.7464 45.2506 52.414 44.5102 52.8692 43.4437C52.9439 43.2739 52.9846 43.0973 52.9982 42.9139C53.0322 42.2652 52.5737 41.6946 51.9284 41.5859Z" fill="black"/>
</svg>
