<svg width="356" height="66" viewBox="0 0 356 66" fill="none" xmlns="http://www.w3.org/2000/svg">
<path d="M89.6 17.04V31H86.8V21.92L83.06 31H80.94L77.18 21.92V31H74.38V17.04H77.56L82 27.42L86.44 17.04H89.6ZM93.7883 18.6C93.2949 18.6 92.8816 18.4467 92.5483 18.14C92.2283 17.82 92.0683 17.4267 92.0683 16.96C92.0683 16.4933 92.2283 16.1067 92.5483 15.8C92.8816 15.48 93.2949 15.32 93.7883 15.32C94.2816 15.32 94.6883 15.48 95.0083 15.8C95.3416 16.1067 95.5083 16.4933 95.5083 16.96C95.5083 17.4267 95.3416 17.82 95.0083 18.14C94.6883 18.4467 94.2816 18.6 93.7883 18.6ZM95.1683 19.92V31H92.3683V19.92H95.1683ZM97.2147 25.46C97.2147 24.3133 97.448 23.3133 97.9147 22.46C98.3814 21.5933 99.028 20.9267 99.8547 20.46C100.681 19.98 101.628 19.74 102.695 19.74C104.068 19.74 105.201 20.0867 106.095 20.78C107.001 21.46 107.608 22.42 107.915 23.66H104.895C104.735 23.18 104.461 22.8067 104.075 22.54C103.701 22.26 103.235 22.12 102.675 22.12C101.875 22.12 101.241 22.4133 100.775 23C100.308 23.5733 100.075 24.3933 100.075 25.46C100.075 26.5133 100.308 27.3333 100.775 27.92C101.241 28.4933 101.875 28.78 102.675 28.78C103.808 28.78 104.548 28.2733 104.895 27.26H107.915C107.608 28.46 107.001 29.4133 106.095 30.12C105.188 30.8267 104.055 31.18 102.695 31.18C101.628 31.18 100.681 30.9467 99.8547 30.48C99.028 30 98.3814 29.3333 97.9147 28.48C97.448 27.6133 97.2147 26.6067 97.2147 25.46ZM112.766 21.64C113.126 21.0533 113.593 20.5933 114.166 20.26C114.753 19.9267 115.419 19.76 116.166 19.76V22.7H115.426C114.546 22.7 113.879 22.9067 113.426 23.32C112.986 23.7333 112.766 24.4533 112.766 25.48V31H109.966V19.92H112.766V21.64ZM122.972 31.18C121.905 31.18 120.945 30.9467 120.092 30.48C119.239 30 118.565 29.3267 118.072 28.46C117.592 27.5933 117.352 26.5933 117.352 25.46C117.352 24.3267 117.599 23.3267 118.092 22.46C118.599 21.5933 119.285 20.9267 120.152 20.46C121.019 19.98 121.985 19.74 123.052 19.74C124.119 19.74 125.085 19.98 125.952 20.46C126.819 20.9267 127.499 21.5933 127.992 22.46C128.499 23.3267 128.752 24.3267 128.752 25.46C128.752 26.5933 128.492 27.5933 127.972 28.46C127.465 29.3267 126.772 30 125.892 30.48C125.025 30.9467 124.052 31.18 122.972 31.18ZM122.972 28.74C123.479 28.74 123.952 28.62 124.392 28.38C124.845 28.1267 125.205 27.7533 125.472 27.26C125.739 26.7667 125.872 26.1667 125.872 25.46C125.872 24.4067 125.592 23.6 125.032 23.04C124.485 22.4667 123.812 22.18 123.012 22.18C122.212 22.18 121.539 22.4667 120.992 23.04C120.459 23.6 120.192 24.4067 120.192 25.46C120.192 26.5133 120.452 27.3267 120.972 27.9C121.505 28.46 122.172 28.74 122.972 28.74ZM135.046 31.18C134.139 31.18 133.326 31.02 132.606 30.7C131.886 30.3667 131.312 29.92 130.886 29.36C130.472 28.8 130.246 28.18 130.206 27.5H133.026C133.079 27.9267 133.286 28.28 133.646 28.56C134.019 28.84 134.479 28.98 135.026 28.98C135.559 28.98 135.972 28.8733 136.266 28.66C136.572 28.4467 136.726 28.1733 136.726 27.84C136.726 27.48 136.539 27.2133 136.166 27.04C135.806 26.8533 135.226 26.6533 134.426 26.44C133.599 26.24 132.919 26.0333 132.386 25.82C131.866 25.6067 131.412 25.28 131.026 24.84C130.652 24.4 130.466 23.8067 130.466 23.06C130.466 22.4467 130.639 21.8867 130.986 21.38C131.346 20.8733 131.852 20.4733 132.506 20.18C133.172 19.8867 133.952 19.74 134.846 19.74C136.166 19.74 137.219 20.0733 138.006 20.74C138.792 21.3933 139.226 22.28 139.306 23.4H136.626C136.586 22.96 136.399 22.6133 136.066 22.36C135.746 22.0933 135.312 21.96 134.766 21.96C134.259 21.96 133.866 22.0533 133.586 22.24C133.319 22.4267 133.186 22.6867 133.186 23.02C133.186 23.3933 133.372 23.68 133.746 23.88C134.119 24.0667 134.699 24.26 135.486 24.46C136.286 24.66 136.946 24.8667 137.466 25.08C137.986 25.2933 138.432 25.6267 138.806 26.08C139.192 26.52 139.392 27.1067 139.406 27.84C139.406 28.48 139.226 29.0533 138.866 29.56C138.519 30.0667 138.012 30.4667 137.346 30.76C136.692 31.04 135.926 31.18 135.046 31.18ZM146.624 31.18C145.558 31.18 144.598 30.9467 143.744 30.48C142.891 30 142.218 29.3267 141.724 28.46C141.244 27.5933 141.004 26.5933 141.004 25.46C141.004 24.3267 141.251 23.3267 141.744 22.46C142.251 21.5933 142.938 20.9267 143.804 20.46C144.671 19.98 145.638 19.74 146.704 19.74C147.771 19.74 148.738 19.98 149.604 20.46C150.471 20.9267 151.151 21.5933 151.644 22.46C152.151 23.3267 152.404 24.3267 152.404 25.46C152.404 26.5933 152.144 27.5933 151.624 28.46C151.118 29.3267 150.424 30 149.544 30.48C148.678 30.9467 147.704 31.18 146.624 31.18ZM146.624 28.74C147.131 28.74 147.604 28.62 148.044 28.38C148.498 28.1267 148.858 27.7533 149.124 27.26C149.391 26.7667 149.524 26.1667 149.524 25.46C149.524 24.4067 149.244 23.6 148.684 23.04C148.138 22.4667 147.464 22.18 146.664 22.18C145.864 22.18 145.191 22.4667 144.644 23.04C144.111 23.6 143.844 24.4067 143.844 25.46C143.844 26.5133 144.104 27.3267 144.624 27.9C145.158 28.46 145.824 28.74 146.624 28.74ZM159.538 22.22H157.598V31H154.758V22.22H153.498V19.92H154.758V19.36C154.758 18 155.145 17 155.918 16.36C156.691 15.72 157.858 15.42 159.418 15.46V17.82C158.738 17.8067 158.265 17.92 157.998 18.16C157.731 18.4 157.598 18.8333 157.598 19.46V19.92H159.538V22.22ZM164.613 22.22V27.58C164.613 27.9533 164.699 28.2267 164.873 28.4C165.059 28.56 165.366 28.64 165.793 28.64H167.093V31H165.333C162.973 31 161.793 29.8533 161.793 27.56V22.22H160.473V19.92H161.793V17.18H164.613V19.92H167.093V22.22H164.613Z" fill="black"/>
<path d="M306.34 36.98C306.34 37.6733 306.16 38.3267 305.8 38.94C305.453 39.54 304.933 40.04 304.24 40.44C303.56 40.8267 302.753 41.0533 301.82 41.12V42.74H300.54V41.1C299.207 40.98 298.133 40.58 297.32 39.9C296.507 39.2067 296.087 38.2733 296.06 37.1H299.06C299.14 38.06 299.633 38.64 300.54 38.84V35.02C299.58 34.78 298.807 34.54 298.22 34.3C297.633 34.06 297.127 33.6733 296.7 33.14C296.273 32.6067 296.06 31.88 296.06 30.96C296.06 29.8 296.473 28.8533 297.3 28.12C298.14 27.3867 299.22 26.9667 300.54 26.86V25.24H301.82V26.86C303.1 26.9667 304.12 27.3533 304.88 28.02C305.653 28.6867 306.087 29.6067 306.18 30.78H303.16C303.12 30.3933 302.98 30.06 302.74 29.78C302.513 29.4867 302.207 29.28 301.82 29.16V32.94C302.82 33.1933 303.607 33.44 304.18 33.68C304.767 33.9067 305.273 34.2867 305.7 34.82C306.127 35.34 306.34 36.06 306.34 36.98ZM298.98 30.82C298.98 31.26 299.113 31.62 299.38 31.9C299.647 32.1667 300.033 32.3867 300.54 32.56V29.1C300.06 29.1667 299.68 29.3467 299.4 29.64C299.12 29.9333 298.98 30.3267 298.98 30.82ZM301.82 38.88C302.327 38.7867 302.72 38.58 303 38.26C303.293 37.94 303.44 37.5533 303.44 37.1C303.44 36.66 303.3 36.3067 303.02 36.04C302.74 35.7733 302.34 35.5533 301.82 35.38V38.88ZM317.152 36.9C317.258 37.4867 317.498 37.94 317.872 38.26C318.258 38.5667 318.772 38.72 319.412 38.72C320.238 38.72 320.838 38.38 321.212 37.7C321.585 37.0067 321.772 35.8467 321.772 34.22C321.465 34.6467 321.032 34.98 320.472 35.22C319.925 35.46 319.332 35.58 318.692 35.58C317.838 35.58 317.065 35.4067 316.372 35.06C315.692 34.7 315.152 34.1733 314.752 33.48C314.352 32.7733 314.152 31.92 314.152 30.92C314.152 29.44 314.592 28.2667 315.472 27.4C316.352 26.52 317.552 26.08 319.072 26.08C320.965 26.08 322.298 26.6867 323.072 27.9C323.858 29.1133 324.252 30.94 324.252 33.38C324.252 35.1133 324.098 36.5333 323.792 37.64C323.498 38.7467 322.985 39.5867 322.252 40.16C321.532 40.7333 320.545 41.02 319.292 41.02C318.305 41.02 317.465 40.8333 316.772 40.46C316.078 40.0733 315.545 39.5733 315.172 38.96C314.812 38.3333 314.605 37.6467 314.552 36.9H317.152ZM319.272 33.3C319.965 33.3 320.512 33.0867 320.912 32.66C321.312 32.2333 321.512 31.66 321.512 30.94C321.512 30.1533 321.298 29.5467 320.872 29.12C320.458 28.68 319.892 28.46 319.172 28.46C318.452 28.46 317.878 28.6867 317.452 29.14C317.038 29.58 316.832 30.1667 316.832 30.9C316.832 31.6067 317.032 32.1867 317.432 32.64C317.845 33.08 318.458 33.3 319.272 33.3ZM327.991 41.14C327.484 41.14 327.064 40.9867 326.731 40.68C326.411 40.36 326.251 39.9667 326.251 39.5C326.251 39.0333 326.411 38.6467 326.731 38.34C327.064 38.02 327.484 37.86 327.991 37.86C328.484 37.86 328.891 38.02 329.211 38.34C329.531 38.6467 329.691 39.0333 329.691 39.5C329.691 39.9667 329.531 40.36 329.211 40.68C328.891 40.9867 328.484 41.14 327.991 41.14ZM334.866 36.9C334.973 37.4867 335.213 37.94 335.586 38.26C335.973 38.5667 336.486 38.72 337.126 38.72C337.953 38.72 338.553 38.38 338.926 37.7C339.3 37.0067 339.486 35.8467 339.486 34.22C339.18 34.6467 338.746 34.98 338.186 35.22C337.64 35.46 337.046 35.58 336.406 35.58C335.553 35.58 334.78 35.4067 334.086 35.06C333.406 34.7 332.866 34.1733 332.466 33.48C332.066 32.7733 331.866 31.92 331.866 30.92C331.866 29.44 332.306 28.2667 333.186 27.4C334.066 26.52 335.266 26.08 336.786 26.08C338.68 26.08 340.013 26.6867 340.786 27.9C341.573 29.1133 341.966 30.94 341.966 33.38C341.966 35.1133 341.813 36.5333 341.506 37.64C341.213 38.7467 340.7 39.5867 339.966 40.16C339.246 40.7333 338.26 41.02 337.006 41.02C336.02 41.02 335.18 40.8333 334.486 40.46C333.793 40.0733 333.26 39.5733 332.886 38.96C332.526 38.3333 332.32 37.6467 332.266 36.9H334.866ZM336.986 33.3C337.68 33.3 338.226 33.0867 338.626 32.66C339.026 32.2333 339.226 31.66 339.226 30.94C339.226 30.1533 339.013 29.5467 338.586 29.12C338.173 28.68 337.606 28.46 336.886 28.46C336.166 28.46 335.593 28.6867 335.166 29.14C334.753 29.58 334.546 30.1667 334.546 30.9C334.546 31.6067 334.746 32.1867 335.146 32.64C335.56 33.08 336.173 33.3 336.986 33.3ZM347.386 36.9C347.493 37.4867 347.733 37.94 348.106 38.26C348.493 38.5667 349.006 38.72 349.646 38.72C350.473 38.72 351.073 38.38 351.446 37.7C351.819 37.0067 352.006 35.8467 352.006 34.22C351.699 34.6467 351.266 34.98 350.706 35.22C350.159 35.46 349.566 35.58 348.926 35.58C348.073 35.58 347.299 35.4067 346.606 35.06C345.926 34.7 345.386 34.1733 344.986 33.48C344.586 32.7733 344.386 31.92 344.386 30.92C344.386 29.44 344.826 28.2667 345.706 27.4C346.586 26.52 347.786 26.08 349.306 26.08C351.199 26.08 352.533 26.6867 353.306 27.9C354.093 29.1133 354.486 30.94 354.486 33.38C354.486 35.1133 354.333 36.5333 354.026 37.64C353.733 38.7467 353.219 39.5867 352.486 40.16C351.766 40.7333 350.779 41.02 349.526 41.02C348.539 41.02 347.699 40.8333 347.006 40.46C346.313 40.0733 345.779 39.5733 345.406 38.96C345.046 38.3333 344.839 37.6467 344.786 36.9H347.386ZM349.506 33.3C350.199 33.3 350.746 33.0867 351.146 32.66C351.546 32.2333 351.746 31.66 351.746 30.94C351.746 30.1533 351.533 29.5467 351.106 29.12C350.693 28.68 350.126 28.46 349.406 28.46C348.686 28.46 348.113 28.6867 347.686 29.14C347.273 29.58 347.066 30.1667 347.066 30.9C347.066 31.6067 347.266 32.1867 347.666 32.64C348.079 33.08 348.693 33.3 349.506 33.3Z" fill="black"/>
<rect width="66" height="66" rx="17" fill="#F4F6F5"/>
<path d="M20.9999 19.333C19.5266 19.333 18.3333 20.5263 18.3333 21.9997V29.9997C18.3333 31.473 19.5266 32.6663 20.9999 32.6663H28.9999C30.4733 32.6663 31.6666 31.473 31.6666 29.9997V21.9997C31.6666 20.5263 30.4733 19.333 28.9999 19.333H20.9999ZM36.9999 19.333C35.5266 19.333 34.3333 20.5263 34.3333 21.9997V29.9997C34.3333 31.473 35.5266 32.6663 36.9999 32.6663H44.9999C46.4733 32.6663 47.6666 31.473 47.6666 29.9997V21.9997C47.6666 20.5263 46.4733 19.333 44.9999 19.333H36.9999ZM20.9999 35.333C19.5266 35.333 18.3333 36.5263 18.3333 37.9997V45.9997C18.3333 47.473 19.5266 48.6663 20.9999 48.6663H28.9999C30.4733 48.6663 31.6666 47.473 31.6666 45.9997V37.9997C31.6666 36.5263 30.4733 35.333 28.9999 35.333H20.9999ZM36.9999 35.333C35.5266 35.333 34.3333 36.5263 34.3333 37.9997V45.9997C34.3333 47.473 35.5266 48.6663 36.9999 48.6663H44.9999C46.4733 48.6663 47.6666 47.473 47.6666 45.9997V37.9997C47.6666 36.5263 46.4733 35.333 44.9999 35.333H36.9999Z" fill="black"/>
<path d="M73.9 52.39C73.9 50.66 74.19 49.31 74.77 48.34C75.36 47.36 76.37 46.87 77.8 46.87C79.23 46.87 80.235 47.36 80.815 48.34C81.405 49.31 81.7 50.66 81.7 52.39C81.7 54.14 81.405 55.51 80.815 56.5C80.235 57.48 79.23 57.97 77.8 57.97C76.37 57.97 75.36 57.48 74.77 56.5C74.19 55.51 73.9 54.14 73.9 52.39ZM80.02 52.39C80.02 51.58 79.965 50.895 79.855 50.335C79.755 49.775 79.545 49.32 79.225 48.97C78.905 48.61 78.43 48.43 77.8 48.43C77.17 48.43 76.695 48.61 76.375 48.97C76.055 49.32 75.84 49.775 75.73 50.335C75.63 50.895 75.58 51.58 75.58 52.39C75.58 53.23 75.63 53.935 75.73 54.505C75.83 55.075 76.04 55.535 76.36 55.885C76.69 56.235 77.17 56.41 77.8 56.41C78.43 56.41 78.905 56.235 79.225 55.885C79.555 55.535 79.77 55.075 79.87 54.505C79.97 53.935 80.02 53.23 80.02 52.39ZM84.4544 55.675C85.4144 54.845 86.1694 54.165 86.7194 53.635C87.2794 53.095 87.7444 52.535 88.1144 51.955C88.4844 51.375 88.6694 50.795 88.6694 50.215C88.6694 49.615 88.5244 49.145 88.2344 48.805C87.9544 48.465 87.5094 48.295 86.8994 48.295C86.3094 48.295 85.8494 48.485 85.5194 48.865C85.1994 49.235 85.0294 49.735 85.0094 50.365H83.3594C83.3894 49.225 83.7294 48.355 84.3794 47.755C85.0394 47.145 85.8744 46.84 86.8844 46.84C87.9744 46.84 88.8244 47.14 89.4344 47.74C90.0544 48.34 90.3644 49.14 90.3644 50.14C90.3644 50.86 90.1794 51.555 89.8094 52.225C89.4494 52.885 89.0144 53.48 88.5044 54.01C88.0044 54.53 87.3644 55.135 86.5844 55.825L85.9094 56.425H90.6644V57.85H83.3744V56.605L84.4544 55.675ZM94.2666 55.945L92.4516 60.085H91.3416L92.4066 55.945H94.2666ZM100.527 48.64C100.217 48.64 99.9572 48.535 99.7472 48.325C99.5372 48.115 99.4322 47.855 99.4322 47.545C99.4322 47.235 99.5372 46.975 99.7472 46.765C99.9572 46.555 100.217 46.45 100.527 46.45C100.827 46.45 101.082 46.555 101.292 46.765C101.502 46.975 101.607 47.235 101.607 47.545C101.607 47.855 101.502 48.115 101.292 48.325C101.082 48.535 100.827 48.64 100.527 48.64ZM101.367 59.62C101.367 60.43 101.162 61.015 100.752 61.375C100.352 61.745 99.7672 61.93 98.9972 61.93H98.1122V60.49H98.6972C99.0472 60.49 99.2922 60.42 99.4322 60.28C99.5822 60.15 99.6572 59.93 99.6572 59.62V49.735H101.367V59.62ZM103.042 53.83C103.042 53 103.212 52.265 103.552 51.625C103.902 50.985 104.372 50.49 104.962 50.14C105.562 49.78 106.222 49.6 106.942 49.6C107.592 49.6 108.157 49.73 108.637 49.99C109.127 50.24 109.517 50.555 109.807 50.935V49.735H111.532V58H109.807V56.77C109.517 57.16 109.122 57.485 108.622 57.745C108.122 58.005 107.552 58.135 106.912 58.135C106.202 58.135 105.552 57.955 104.962 57.595C104.372 57.225 103.902 56.715 103.552 56.065C103.212 55.405 103.042 54.66 103.042 53.83ZM109.807 53.86C109.807 53.29 109.687 52.795 109.447 52.375C109.217 51.955 108.912 51.635 108.532 51.415C108.152 51.195 107.742 51.085 107.302 51.085C106.862 51.085 106.452 51.195 106.072 51.415C105.692 51.625 105.382 51.94 105.142 52.36C104.912 52.77 104.797 53.26 104.797 53.83C104.797 54.4 104.912 54.9 105.142 55.33C105.382 55.76 105.692 56.09 106.072 56.32C106.462 56.54 106.872 56.65 107.302 56.65C107.742 56.65 108.152 56.54 108.532 56.32C108.912 56.1 109.217 55.78 109.447 55.36C109.687 54.93 109.807 54.43 109.807 53.86ZM117.948 49.6C118.598 49.6 119.178 49.735 119.688 50.005C120.208 50.275 120.613 50.675 120.903 51.205C121.193 51.735 121.338 52.375 121.338 53.125V58H119.643V53.38C119.643 52.64 119.458 52.075 119.088 51.685C118.718 51.285 118.213 51.085 117.573 51.085C116.933 51.085 116.423 51.285 116.043 51.685C115.673 52.075 115.488 52.64 115.488 53.38V58H113.778V49.735H115.488V50.68C115.768 50.34 116.123 50.075 116.553 49.885C116.993 49.695 117.458 49.6 117.948 49.6ZM125.395 55.945L123.58 60.085H122.47L123.535 55.945H125.395ZM131.505 55.675C132.465 54.845 133.22 54.165 133.77 53.635C134.33 53.095 134.795 52.535 135.165 51.955C135.535 51.375 135.72 50.795 135.72 50.215C135.72 49.615 135.575 49.145 135.285 48.805C135.005 48.465 134.56 48.295 133.95 48.295C133.36 48.295 132.9 48.485 132.57 48.865C132.25 49.235 132.08 49.735 132.06 50.365H130.41C130.44 49.225 130.78 48.355 131.43 47.755C132.09 47.145 132.925 46.84 133.935 46.84C135.025 46.84 135.875 47.14 136.485 47.74C137.105 48.34 137.415 49.14 137.415 50.14C137.415 50.86 137.23 51.555 136.86 52.225C136.5 52.885 136.065 53.48 135.555 54.01C135.055 54.53 134.415 55.135 133.635 55.825L132.96 56.425H137.715V57.85H130.425V56.605L131.505 55.675ZM139.217 52.39C139.217 50.66 139.507 49.31 140.087 48.34C140.677 47.36 141.687 46.87 143.117 46.87C144.547 46.87 145.552 47.36 146.132 48.34C146.722 49.31 147.017 50.66 147.017 52.39C147.017 54.14 146.722 55.51 146.132 56.5C145.552 57.48 144.547 57.97 143.117 57.97C141.687 57.97 140.677 57.48 140.087 56.5C139.507 55.51 139.217 54.14 139.217 52.39ZM145.337 52.39C145.337 51.58 145.282 50.895 145.172 50.335C145.072 49.775 144.862 49.32 144.542 48.97C144.222 48.61 143.747 48.43 143.117 48.43C142.487 48.43 142.012 48.61 141.692 48.97C141.372 49.32 141.157 49.775 141.047 50.335C140.947 50.895 140.897 51.58 140.897 52.39C140.897 53.23 140.947 53.935 141.047 54.505C141.147 55.075 141.357 55.535 141.677 55.885C142.007 56.235 142.487 56.41 143.117 56.41C143.747 56.41 144.222 56.235 144.542 55.885C144.872 55.535 145.087 55.075 145.187 54.505C145.287 53.935 145.337 53.23 145.337 52.39ZM149.772 55.675C150.732 54.845 151.487 54.165 152.037 53.635C152.597 53.095 153.062 52.535 153.432 51.955C153.802 51.375 153.987 50.795 153.987 50.215C153.987 49.615 153.842 49.145 153.552 48.805C153.272 48.465 152.827 48.295 152.217 48.295C151.627 48.295 151.167 48.485 150.837 48.865C150.517 49.235 150.347 49.735 150.327 50.365H148.677C148.707 49.225 149.047 48.355 149.697 47.755C150.357 47.145 151.192 46.84 152.202 46.84C153.292 46.84 154.142 47.14 154.752 47.74C155.372 48.34 155.682 49.14 155.682 50.14C155.682 50.86 155.497 51.555 155.127 52.225C154.767 52.885 154.332 53.48 153.822 54.01C153.322 54.53 152.682 55.135 151.902 55.825L151.227 56.425H155.982V57.85H148.692V56.605L149.772 55.675ZM158.429 55.675C159.389 54.845 160.144 54.165 160.694 53.635C161.254 53.095 161.719 52.535 162.089 51.955C162.459 51.375 162.644 50.795 162.644 50.215C162.644 49.615 162.499 49.145 162.209 48.805C161.929 48.465 161.484 48.295 160.874 48.295C160.284 48.295 159.824 48.485 159.494 48.865C159.174 49.235 159.004 49.735 158.984 50.365H157.334C157.364 49.225 157.704 48.355 158.354 47.755C159.014 47.145 159.849 46.84 160.859 46.84C161.949 46.84 162.799 47.14 163.409 47.74C164.029 48.34 164.339 49.14 164.339 50.14C164.339 50.86 164.154 51.555 163.784 52.225C163.424 52.885 162.989 53.48 162.479 54.01C161.979 54.53 161.339 55.135 160.559 55.825L159.884 56.425H164.639V57.85H157.349V56.605L158.429 55.675Z" fill="#AAAAAA"/>
</svg>
