<svg width="350" height="66" viewBox="0 0 350 66" fill="none" xmlns="http://www.w3.org/2000/svg">
<path d="M73.66 25.42C73.66 24.3 73.88 23.3067 74.32 22.44C74.7733 21.5733 75.38 20.9067 76.14 20.44C76.9133 19.9733 77.7733 19.74 78.72 19.74C79.5467 19.74 80.2667 19.9067 80.88 20.24C81.5067 20.5733 82.0067 20.9933 82.38 21.5V19.92H85.2V31H82.38V29.38C82.02 29.9 81.52 30.3333 80.88 30.68C80.2533 31.0133 79.5267 31.18 78.7 31.18C77.7667 31.18 76.9133 30.94 76.14 30.46C75.38 29.98 74.7733 29.3067 74.32 28.44C73.88 27.56 73.66 26.5533 73.66 25.42ZM82.38 25.46C82.38 24.78 82.2467 24.2 81.98 23.72C81.7133 23.2267 81.3533 22.8533 80.9 22.6C80.4467 22.3333 79.96 22.2 79.44 22.2C78.92 22.2 78.44 22.3267 78 22.58C77.56 22.8333 77.2 23.2067 76.92 23.7C76.6533 24.18 76.52 24.7533 76.52 25.42C76.52 26.0867 76.6533 26.6733 76.92 27.18C77.2 27.6733 77.56 28.0533 78 28.32C78.4533 28.5867 78.9333 28.72 79.44 28.72C79.96 28.72 80.4467 28.5933 80.9 28.34C81.3533 28.0733 81.7133 27.7 81.98 27.22C82.2467 26.7267 82.38 26.14 82.38 25.46ZM87.2147 25.42C87.2147 24.3 87.4347 23.3067 87.8747 22.44C88.328 21.5733 88.9414 20.9067 89.7147 20.44C90.488 19.9733 91.348 19.74 92.2947 19.74C93.0147 19.74 93.7014 19.9 94.3547 20.22C95.008 20.5267 95.528 20.94 95.9147 21.46V16.2H98.7547V31H95.9147V29.36C95.568 29.9067 95.0814 30.3467 94.4547 30.68C93.828 31.0133 93.1014 31.18 92.2747 31.18C91.3414 31.18 90.488 30.94 89.7147 30.46C88.9414 29.98 88.328 29.3067 87.8747 28.44C87.4347 27.56 87.2147 26.5533 87.2147 25.42ZM95.9347 25.46C95.9347 24.78 95.8014 24.2 95.5347 23.72C95.268 23.2267 94.908 22.8533 94.4547 22.6C94.0014 22.3333 93.5147 22.2 92.9947 22.2C92.4747 22.2 91.9947 22.3267 91.5547 22.58C91.1147 22.8333 90.7547 23.2067 90.4747 23.7C90.208 24.18 90.0747 24.7533 90.0747 25.42C90.0747 26.0867 90.208 26.6733 90.4747 27.18C90.7547 27.6733 91.1147 28.0533 91.5547 28.32C92.008 28.5867 92.488 28.72 92.9947 28.72C93.5147 28.72 94.0014 28.5933 94.4547 28.34C94.908 28.0733 95.268 27.7 95.5347 27.22C95.8014 26.7267 95.9347 26.14 95.9347 25.46ZM102.909 18.6C102.416 18.6 102.003 18.4467 101.669 18.14C101.349 17.82 101.189 17.4267 101.189 16.96C101.189 16.4933 101.349 16.1067 101.669 15.8C102.003 15.48 102.416 15.32 102.909 15.32C103.403 15.32 103.809 15.48 104.129 15.8C104.463 16.1067 104.629 16.4933 104.629 16.96C104.629 17.4267 104.463 17.82 104.129 18.14C103.809 18.4467 103.403 18.6 102.909 18.6ZM104.289 19.92V31H101.489V19.92H104.289ZM106.336 25.42C106.336 24.3 106.556 23.3067 106.996 22.44C107.449 21.5733 108.062 20.9067 108.836 20.44C109.609 19.9733 110.469 19.74 111.416 19.74C112.136 19.74 112.822 19.9 113.476 20.22C114.129 20.5267 114.649 20.94 115.036 21.46V16.2H117.876V31H115.036V29.36C114.689 29.9067 114.202 30.3467 113.576 30.68C112.949 31.0133 112.222 31.18 111.396 31.18C110.462 31.18 109.609 30.94 108.836 30.46C108.062 29.98 107.449 29.3067 106.996 28.44C106.556 27.56 106.336 26.5533 106.336 25.42ZM115.056 25.46C115.056 24.78 114.922 24.2 114.656 23.72C114.389 23.2267 114.029 22.8533 113.576 22.6C113.122 22.3333 112.636 22.2 112.116 22.2C111.596 22.2 111.116 22.3267 110.676 22.58C110.236 22.8333 109.876 23.2067 109.596 23.7C109.329 24.18 109.196 24.7533 109.196 25.42C109.196 26.0867 109.329 26.6733 109.596 27.18C109.876 27.6733 110.236 28.0533 110.676 28.32C111.129 28.5867 111.609 28.72 112.116 28.72C112.636 28.72 113.122 28.5933 113.576 28.34C114.029 28.0733 114.389 27.7 114.656 27.22C114.922 26.7267 115.056 26.14 115.056 25.46ZM119.89 25.42C119.89 24.3 120.11 23.3067 120.55 22.44C121.004 21.5733 121.61 20.9067 122.37 20.44C123.144 19.9733 124.004 19.74 124.95 19.74C125.777 19.74 126.497 19.9067 127.11 20.24C127.737 20.5733 128.237 20.9933 128.61 21.5V19.92H131.43V31H128.61V29.38C128.25 29.9 127.75 30.3333 127.11 30.68C126.484 31.0133 125.757 31.18 124.93 31.18C123.997 31.18 123.144 30.94 122.37 30.46C121.61 29.98 121.004 29.3067 120.55 28.44C120.11 27.56 119.89 26.5533 119.89 25.42ZM128.61 25.46C128.61 24.78 128.477 24.2 128.21 23.72C127.944 23.2267 127.584 22.8533 127.13 22.6C126.677 22.3333 126.19 22.2 125.67 22.2C125.15 22.2 124.67 22.3267 124.23 22.58C123.79 22.8333 123.43 23.2067 123.15 23.7C122.884 24.18 122.75 24.7533 122.75 25.42C122.75 26.0867 122.884 26.6733 123.15 27.18C123.43 27.6733 123.79 28.0533 124.23 28.32C124.684 28.5867 125.164 28.72 125.67 28.72C126.19 28.72 126.677 28.5933 127.13 28.34C127.584 28.0733 127.944 27.7 128.21 27.22C128.477 26.7267 128.61 26.14 128.61 25.46ZM138.405 31.18C137.498 31.18 136.685 31.02 135.965 30.7C135.245 30.3667 134.672 29.92 134.245 29.36C133.832 28.8 133.605 28.18 133.565 27.5H136.385C136.438 27.9267 136.645 28.28 137.005 28.56C137.378 28.84 137.838 28.98 138.385 28.98C138.918 28.98 139.332 28.8733 139.625 28.66C139.932 28.4467 140.085 28.1733 140.085 27.84C140.085 27.48 139.898 27.2133 139.525 27.04C139.165 26.8533 138.585 26.6533 137.785 26.44C136.958 26.24 136.278 26.0333 135.745 25.82C135.225 25.6067 134.772 25.28 134.385 24.84C134.012 24.4 133.825 23.8067 133.825 23.06C133.825 22.4467 133.998 21.8867 134.345 21.38C134.705 20.8733 135.212 20.4733 135.865 20.18C136.532 19.8867 137.312 19.74 138.205 19.74C139.525 19.74 140.578 20.0733 141.365 20.74C142.152 21.3933 142.585 22.28 142.665 23.4H139.985C139.945 22.96 139.758 22.6133 139.425 22.36C139.105 22.0933 138.672 21.96 138.125 21.96C137.618 21.96 137.225 22.0533 136.945 22.24C136.678 22.4267 136.545 22.6867 136.545 23.02C136.545 23.3933 136.732 23.68 137.105 23.88C137.478 24.0667 138.058 24.26 138.845 24.46C139.645 24.66 140.305 24.8667 140.825 25.08C141.345 25.2933 141.792 25.6267 142.165 26.08C142.552 26.52 142.752 27.1067 142.765 27.84C142.765 28.48 142.585 29.0533 142.225 29.56C141.878 30.0667 141.372 30.4667 140.705 30.76C140.052 31.04 139.285 31.18 138.405 31.18Z" fill="black"/>
<path d="M306.34 36.98C306.34 37.6733 306.16 38.3267 305.8 38.94C305.453 39.54 304.933 40.04 304.24 40.44C303.56 40.8267 302.753 41.0533 301.82 41.12V42.74H300.54V41.1C299.207 40.98 298.133 40.58 297.32 39.9C296.507 39.2067 296.087 38.2733 296.06 37.1H299.06C299.14 38.06 299.633 38.64 300.54 38.84V35.02C299.58 34.78 298.807 34.54 298.22 34.3C297.633 34.06 297.127 33.6733 296.7 33.14C296.273 32.6067 296.06 31.88 296.06 30.96C296.06 29.8 296.473 28.8533 297.3 28.12C298.14 27.3867 299.22 26.9667 300.54 26.86V25.24H301.82V26.86C303.1 26.9667 304.12 27.3533 304.88 28.02C305.653 28.6867 306.087 29.6067 306.18 30.78H303.16C303.12 30.3933 302.98 30.06 302.74 29.78C302.513 29.4867 302.207 29.28 301.82 29.16V32.94C302.82 33.1933 303.607 33.44 304.18 33.68C304.767 33.9067 305.273 34.2867 305.7 34.82C306.127 35.34 306.34 36.06 306.34 36.98ZM298.98 30.82C298.98 31.26 299.113 31.62 299.38 31.9C299.647 32.1667 300.033 32.3867 300.54 32.56V29.1C300.06 29.1667 299.68 29.3467 299.4 29.64C299.12 29.9333 298.98 30.3267 298.98 30.82ZM301.82 38.88C302.327 38.7867 302.72 38.58 303 38.26C303.293 37.94 303.44 37.5533 303.44 37.1C303.44 36.66 303.3 36.3067 303.02 36.04C302.74 35.7733 302.34 35.5533 301.82 35.38V38.88ZM323.712 28.84H317.232V32.26C317.512 31.9133 317.912 31.6333 318.432 31.42C318.952 31.1933 319.505 31.08 320.092 31.08C321.158 31.08 322.032 31.3133 322.712 31.78C323.392 32.2467 323.885 32.8467 324.192 33.58C324.498 34.3 324.652 35.0733 324.652 35.9C324.652 37.4333 324.212 38.6667 323.332 39.6C322.465 40.5333 321.225 41 319.612 41C318.092 41 316.878 40.62 315.972 39.86C315.065 39.1 314.552 38.1067 314.432 36.88H317.152C317.272 37.4133 317.538 37.84 317.952 38.16C318.378 38.48 318.918 38.64 319.572 38.64C320.358 38.64 320.952 38.3933 321.352 37.9C321.752 37.4067 321.952 36.7533 321.952 35.94C321.952 35.1133 321.745 34.4867 321.332 34.06C320.932 33.62 320.338 33.4 319.552 33.4C318.992 33.4 318.525 33.54 318.152 33.82C317.778 34.1 317.512 34.4733 317.352 34.94H314.672V26.38H323.712V28.84ZM329.223 33.28C327.889 32.5867 327.223 31.5133 327.223 30.06C327.223 29.34 327.403 28.6867 327.763 28.1C328.136 27.5 328.689 27.0267 329.423 26.68C330.169 26.32 331.076 26.14 332.143 26.14C333.209 26.14 334.109 26.32 334.843 26.68C335.589 27.0267 336.143 27.5 336.503 28.1C336.876 28.6867 337.063 29.34 337.063 30.06C337.063 30.7933 336.883 31.44 336.523 32C336.163 32.5467 335.683 32.9733 335.083 33.28C335.816 33.6 336.389 34.0667 336.803 34.68C337.216 35.2933 337.423 36.02 337.423 36.86C337.423 37.7667 337.189 38.56 336.723 39.24C336.269 39.9067 335.643 40.42 334.843 40.78C334.043 41.14 333.143 41.32 332.143 41.32C331.143 41.32 330.243 41.14 329.443 40.78C328.656 40.42 328.029 39.9067 327.563 39.24C327.109 38.56 326.883 37.7667 326.883 36.86C326.883 36.02 327.089 35.2933 327.503 34.68C327.916 34.0533 328.489 33.5867 329.223 33.28ZM334.343 30.46C334.343 29.8067 334.143 29.3 333.743 28.94C333.356 28.58 332.823 28.4 332.143 28.4C331.476 28.4 330.943 28.58 330.543 28.94C330.156 29.3 329.963 29.8133 329.963 30.48C329.963 31.08 330.163 31.56 330.563 31.92C330.976 32.28 331.503 32.46 332.143 32.46C332.783 32.46 333.309 32.28 333.723 31.92C334.136 31.5467 334.343 31.06 334.343 30.46ZM332.143 34.5C331.383 34.5 330.763 34.6933 330.283 35.08C329.816 35.4667 329.583 36.02 329.583 36.74C329.583 37.4067 329.809 37.9533 330.263 38.38C330.729 38.7933 331.356 39 332.143 39C332.929 39 333.549 38.7867 334.003 38.36C334.456 37.9333 334.683 37.3933 334.683 36.74C334.683 36.0333 334.449 35.4867 333.983 35.1C333.516 34.7 332.903 34.5 332.143 34.5ZM348.914 28.54L343.594 41H340.754L346.114 28.86H339.274V26.46H348.914V28.54Z" fill="black"/>
<rect width="66" height="66" rx="17" fill="#F4F6F5"/>
<path d="M73.9 52.39C73.9 50.66 74.19 49.31 74.77 48.34C75.36 47.36 76.37 46.87 77.8 46.87C79.23 46.87 80.235 47.36 80.815 48.34C81.405 49.31 81.7 50.66 81.7 52.39C81.7 54.14 81.405 55.51 80.815 56.5C80.235 57.48 79.23 57.97 77.8 57.97C76.37 57.97 75.36 57.48 74.77 56.5C74.19 55.51 73.9 54.14 73.9 52.39ZM80.02 52.39C80.02 51.58 79.965 50.895 79.855 50.335C79.755 49.775 79.545 49.32 79.225 48.97C78.905 48.61 78.43 48.43 77.8 48.43C77.17 48.43 76.695 48.61 76.375 48.97C76.055 49.32 75.84 49.775 75.73 50.335C75.63 50.895 75.58 51.58 75.58 52.39C75.58 53.23 75.63 53.935 75.73 54.505C75.83 55.075 76.04 55.535 76.36 55.885C76.69 56.235 77.17 56.41 77.8 56.41C78.43 56.41 78.905 56.235 79.225 55.885C79.555 55.535 79.77 55.075 79.87 54.505C79.97 53.935 80.02 53.23 80.02 52.39ZM84.4544 55.675C85.4144 54.845 86.1694 54.165 86.7194 53.635C87.2794 53.095 87.7444 52.535 88.1144 51.955C88.4844 51.375 88.6694 50.795 88.6694 50.215C88.6694 49.615 88.5244 49.145 88.2344 48.805C87.9544 48.465 87.5094 48.295 86.8994 48.295C86.3094 48.295 85.8494 48.485 85.5194 48.865C85.1994 49.235 85.0294 49.735 85.0094 50.365H83.3594C83.3894 49.225 83.7294 48.355 84.3794 47.755C85.0394 47.145 85.8744 46.84 86.8844 46.84C87.9744 46.84 88.8244 47.14 89.4344 47.74C90.0544 48.34 90.3644 49.14 90.3644 50.14C90.3644 50.86 90.1794 51.555 89.8094 52.225C89.4494 52.885 89.0144 53.48 88.5044 54.01C88.0044 54.53 87.3644 55.135 86.5844 55.825L85.9094 56.425H90.6644V57.85H83.3744V56.605L84.4544 55.675ZM94.2666 55.945L92.4516 60.085H91.3416L92.4066 55.945H94.2666ZM100.527 48.64C100.217 48.64 99.9572 48.535 99.7472 48.325C99.5372 48.115 99.4322 47.855 99.4322 47.545C99.4322 47.235 99.5372 46.975 99.7472 46.765C99.9572 46.555 100.217 46.45 100.527 46.45C100.827 46.45 101.082 46.555 101.292 46.765C101.502 46.975 101.607 47.235 101.607 47.545C101.607 47.855 101.502 48.115 101.292 48.325C101.082 48.535 100.827 48.64 100.527 48.64ZM101.367 59.62C101.367 60.43 101.162 61.015 100.752 61.375C100.352 61.745 99.7672 61.93 98.9972 61.93H98.1122V60.49H98.6972C99.0472 60.49 99.2922 60.42 99.4322 60.28C99.5822 60.15 99.6572 59.93 99.6572 59.62V49.735H101.367V59.62ZM103.042 53.83C103.042 53 103.212 52.265 103.552 51.625C103.902 50.985 104.372 50.49 104.962 50.14C105.562 49.78 106.222 49.6 106.942 49.6C107.592 49.6 108.157 49.73 108.637 49.99C109.127 50.24 109.517 50.555 109.807 50.935V49.735H111.532V58H109.807V56.77C109.517 57.16 109.122 57.485 108.622 57.745C108.122 58.005 107.552 58.135 106.912 58.135C106.202 58.135 105.552 57.955 104.962 57.595C104.372 57.225 103.902 56.715 103.552 56.065C103.212 55.405 103.042 54.66 103.042 53.83ZM109.807 53.86C109.807 53.29 109.687 52.795 109.447 52.375C109.217 51.955 108.912 51.635 108.532 51.415C108.152 51.195 107.742 51.085 107.302 51.085C106.862 51.085 106.452 51.195 106.072 51.415C105.692 51.625 105.382 51.94 105.142 52.36C104.912 52.77 104.797 53.26 104.797 53.83C104.797 54.4 104.912 54.9 105.142 55.33C105.382 55.76 105.692 56.09 106.072 56.32C106.462 56.54 106.872 56.65 107.302 56.65C107.742 56.65 108.152 56.54 108.532 56.32C108.912 56.1 109.217 55.78 109.447 55.36C109.687 54.93 109.807 54.43 109.807 53.86ZM117.948 49.6C118.598 49.6 119.178 49.735 119.688 50.005C120.208 50.275 120.613 50.675 120.903 51.205C121.193 51.735 121.338 52.375 121.338 53.125V58H119.643V53.38C119.643 52.64 119.458 52.075 119.088 51.685C118.718 51.285 118.213 51.085 117.573 51.085C116.933 51.085 116.423 51.285 116.043 51.685C115.673 52.075 115.488 52.64 115.488 53.38V58H113.778V49.735H115.488V50.68C115.768 50.34 116.123 50.075 116.553 49.885C116.993 49.695 117.458 49.6 117.948 49.6ZM125.395 55.945L123.58 60.085H122.47L123.535 55.945H125.395ZM131.505 55.675C132.465 54.845 133.22 54.165 133.77 53.635C134.33 53.095 134.795 52.535 135.165 51.955C135.535 51.375 135.72 50.795 135.72 50.215C135.72 49.615 135.575 49.145 135.285 48.805C135.005 48.465 134.56 48.295 133.95 48.295C133.36 48.295 132.9 48.485 132.57 48.865C132.25 49.235 132.08 49.735 132.06 50.365H130.41C130.44 49.225 130.78 48.355 131.43 47.755C132.09 47.145 132.925 46.84 133.935 46.84C135.025 46.84 135.875 47.14 136.485 47.74C137.105 48.34 137.415 49.14 137.415 50.14C137.415 50.86 137.23 51.555 136.86 52.225C136.5 52.885 136.065 53.48 135.555 54.01C135.055 54.53 134.415 55.135 133.635 55.825L132.96 56.425H137.715V57.85H130.425V56.605L131.505 55.675ZM139.217 52.39C139.217 50.66 139.507 49.31 140.087 48.34C140.677 47.36 141.687 46.87 143.117 46.87C144.547 46.87 145.552 47.36 146.132 48.34C146.722 49.31 147.017 50.66 147.017 52.39C147.017 54.14 146.722 55.51 146.132 56.5C145.552 57.48 144.547 57.97 143.117 57.97C141.687 57.97 140.677 57.48 140.087 56.5C139.507 55.51 139.217 54.14 139.217 52.39ZM145.337 52.39C145.337 51.58 145.282 50.895 145.172 50.335C145.072 49.775 144.862 49.32 144.542 48.97C144.222 48.61 143.747 48.43 143.117 48.43C142.487 48.43 142.012 48.61 141.692 48.97C141.372 49.32 141.157 49.775 141.047 50.335C140.947 50.895 140.897 51.58 140.897 52.39C140.897 53.23 140.947 53.935 141.047 54.505C141.147 55.075 141.357 55.535 141.677 55.885C142.007 56.235 142.487 56.41 143.117 56.41C143.747 56.41 144.222 56.235 144.542 55.885C144.872 55.535 145.087 55.075 145.187 54.505C145.287 53.935 145.337 53.23 145.337 52.39ZM149.772 55.675C150.732 54.845 151.487 54.165 152.037 53.635C152.597 53.095 153.062 52.535 153.432 51.955C153.802 51.375 153.987 50.795 153.987 50.215C153.987 49.615 153.842 49.145 153.552 48.805C153.272 48.465 152.827 48.295 152.217 48.295C151.627 48.295 151.167 48.485 150.837 48.865C150.517 49.235 150.347 49.735 150.327 50.365H148.677C148.707 49.225 149.047 48.355 149.697 47.755C150.357 47.145 151.192 46.84 152.202 46.84C153.292 46.84 154.142 47.14 154.752 47.74C155.372 48.34 155.682 49.14 155.682 50.14C155.682 50.86 155.497 51.555 155.127 52.225C154.767 52.885 154.332 53.48 153.822 54.01C153.322 54.53 152.682 55.135 151.902 55.825L151.227 56.425H155.982V57.85H148.692V56.605L149.772 55.675ZM158.429 55.675C159.389 54.845 160.144 54.165 160.694 53.635C161.254 53.095 161.719 52.535 162.089 51.955C162.459 51.375 162.644 50.795 162.644 50.215C162.644 49.615 162.499 49.145 162.209 48.805C161.929 48.465 161.484 48.295 160.874 48.295C160.284 48.295 159.824 48.485 159.494 48.865C159.174 49.235 159.004 49.735 158.984 50.365H157.334C157.364 49.225 157.704 48.355 158.354 47.755C159.014 47.145 159.849 46.84 160.859 46.84C161.949 46.84 162.799 47.14 163.409 47.74C164.029 48.34 164.339 49.14 164.339 50.14C164.339 50.86 164.154 51.555 163.784 52.225C163.424 52.885 162.989 53.48 162.479 54.01C161.979 54.53 161.339 55.135 160.559 55.825L159.884 56.425H164.639V57.85H157.349V56.605L158.429 55.675Z" fill="#AAAAAA"/>
<g clip-path="url(#clip0_39_156)">
<path d="M32.85 19.2246C29.7125 22.8059 28.0719 28.7371 28.275 34.5996H37.4C37.6813 28.6184 36.0375 22.7121 32.85 19.2246ZM13 26.8246C13.3094 29.8277 13.9344 32.2559 14.95 34.5996H26.05C23.1219 30.1996 18.7094 27.8402 13 26.8246ZM53 26.8496C47.1969 27.7309 42.7188 30.2121 39.6 34.5996H50.9C51.9625 32.2871 52.6375 29.784 53 26.8496ZM15.8 36.8496C16.1031 37.509 16.6 38.334 17.025 38.9246L48.75 38.8996C49.2125 38.2527 49.6281 37.5871 49.95 36.8496H15.8ZM18.5 41.0246C19.1563 41.8934 19.7063 42.2465 20.525 42.8996H45.1C45.7875 42.3621 46.5094 41.7277 47.15 41.0246H18.5ZM23.15 44.6246C25.2469 45.9215 27.7063 46.7715 30.5 47.3496L30.175 44.6246H23.15ZM30.85 44.6246C31.3906 45.7496 32.0875 46.6934 32.875 47.5996C33.65 46.6777 34.1531 45.734 34.7 44.6246H30.85ZM35.525 44.6246L35.1 47.1996C37.9063 46.684 40.3781 45.8684 42.525 44.6246H35.525Z" fill="black"/>
</g>
<defs>
<clipPath id="clip0_39_156">
<rect width="40" height="40" fill="white" transform="translate(13 14)"/>
</clipPath>
</defs>
</svg>
