<svg width="326" height="66" viewBox="0 0 326 66" fill="none" xmlns="http://www.w3.org/2000/svg">
<path d="M84.1 21.24C83.78 20.6533 83.34 20.2067 82.78 19.9C82.22 19.5933 81.5667 19.44 80.82 19.44C79.9933 19.44 79.26 19.6267 78.62 20C77.98 20.3733 77.48 20.9067 77.12 21.6C76.76 22.2933 76.58 23.0933 76.58 24C76.58 24.9333 76.76 25.7467 77.12 26.44C77.4933 27.1333 78.0067 27.6667 78.66 28.04C79.3133 28.4133 80.0733 28.6 80.94 28.6C82.0067 28.6 82.88 28.32 83.56 27.76C84.24 27.1867 84.6867 26.3933 84.9 25.38H80.1V23.24H87.66V25.68C87.4733 26.6533 87.0733 27.5533 86.46 28.38C85.8467 29.2067 85.0533 29.8733 84.08 30.38C83.12 30.8733 82.04 31.12 80.84 31.12C79.4933 31.12 78.2733 30.82 77.18 30.22C76.1 29.6067 75.2467 28.76 74.62 27.68C74.0067 26.6 73.7 25.3733 73.7 24C73.7 22.6267 74.0067 21.4 74.62 20.32C75.2467 19.2267 76.1 18.38 77.18 17.78C78.2733 17.1667 79.4867 16.86 80.82 16.86C82.3933 16.86 83.76 17.2467 84.92 18.02C86.08 18.78 86.88 19.8533 87.32 21.24H84.1ZM94.6516 31.18C93.5849 31.18 92.6249 30.9467 91.7716 30.48C90.9182 30 90.2449 29.3267 89.7516 28.46C89.2716 27.5933 89.0316 26.5933 89.0316 25.46C89.0316 24.3267 89.2782 23.3267 89.7716 22.46C90.2782 21.5933 90.9649 20.9267 91.8316 20.46C92.6982 19.98 93.6649 19.74 94.7316 19.74C95.7982 19.74 96.7649 19.98 97.6316 20.46C98.4982 20.9267 99.1782 21.5933 99.6716 22.46C100.178 23.3267 100.432 24.3267 100.432 25.46C100.432 26.5933 100.172 27.5933 99.6516 28.46C99.1449 29.3267 98.4516 30 97.5716 30.48C96.7049 30.9467 95.7316 31.18 94.6516 31.18ZM94.6516 28.74C95.1582 28.74 95.6316 28.62 96.0716 28.38C96.5249 28.1267 96.8849 27.7533 97.1516 27.26C97.4182 26.7667 97.5516 26.1667 97.5516 25.46C97.5516 24.4067 97.2716 23.6 96.7116 23.04C96.1649 22.4667 95.4916 22.18 94.6916 22.18C93.8916 22.18 93.2182 22.4667 92.6716 23.04C92.1382 23.6 91.8716 24.4067 91.8716 25.46C91.8716 26.5133 92.1316 27.3267 92.6516 27.9C93.1849 28.46 93.8516 28.74 94.6516 28.74ZM107.405 31.18C106.339 31.18 105.379 30.9467 104.525 30.48C103.672 30 102.999 29.3267 102.505 28.46C102.025 27.5933 101.785 26.5933 101.785 25.46C101.785 24.3267 102.032 23.3267 102.525 22.46C103.032 21.5933 103.719 20.9267 104.585 20.46C105.452 19.98 106.419 19.74 107.485 19.74C108.552 19.74 109.519 19.98 110.385 20.46C111.252 20.9267 111.932 21.5933 112.425 22.46C112.932 23.3267 113.185 24.3267 113.185 25.46C113.185 26.5933 112.925 27.5933 112.405 28.46C111.899 29.3267 111.205 30 110.325 30.48C109.459 30.9467 108.485 31.18 107.405 31.18ZM107.405 28.74C107.912 28.74 108.385 28.62 108.825 28.38C109.279 28.1267 109.639 27.7533 109.905 27.26C110.172 26.7667 110.305 26.1667 110.305 25.46C110.305 24.4067 110.025 23.6 109.465 23.04C108.919 22.4667 108.245 22.18 107.445 22.18C106.645 22.18 105.972 22.4667 105.425 23.04C104.892 23.6 104.625 24.4067 104.625 25.46C104.625 26.5133 104.885 27.3267 105.405 27.9C105.939 28.46 106.605 28.74 107.405 28.74ZM119.579 19.74C120.406 19.74 121.133 19.9067 121.759 20.24C122.386 20.56 122.879 20.98 123.239 21.5V19.92H126.059V31.08C126.059 32.1067 125.853 33.02 125.439 33.82C125.026 34.6333 124.406 35.2733 123.579 35.74C122.753 36.22 121.753 36.46 120.579 36.46C119.006 36.46 117.713 36.0933 116.699 35.36C115.699 34.6267 115.133 33.6267 114.999 32.36H117.779C117.926 32.8667 118.239 33.2667 118.719 33.56C119.213 33.8667 119.806 34.02 120.499 34.02C121.313 34.02 121.973 33.7733 122.479 33.28C122.986 32.8 123.239 32.0667 123.239 31.08V29.36C122.879 29.88 122.379 30.3133 121.739 30.66C121.113 31.0067 120.393 31.18 119.579 31.18C118.646 31.18 117.793 30.94 117.019 30.46C116.246 29.98 115.633 29.3067 115.179 28.44C114.739 27.56 114.519 26.5533 114.519 25.42C114.519 24.3 114.739 23.3067 115.179 22.44C115.633 21.5733 116.239 20.9067 116.999 20.44C117.773 19.9733 118.633 19.74 119.579 19.74ZM123.239 25.46C123.239 24.78 123.106 24.2 122.839 23.72C122.573 23.2267 122.213 22.8533 121.759 22.6C121.306 22.3333 120.819 22.2 120.299 22.2C119.779 22.2 119.299 22.3267 118.859 22.58C118.419 22.8333 118.059 23.2067 117.779 23.7C117.513 24.18 117.379 24.7533 117.379 25.42C117.379 26.0867 117.513 26.6733 117.779 27.18C118.059 27.6733 118.419 28.0533 118.859 28.32C119.313 28.5867 119.793 28.72 120.299 28.72C120.819 28.72 121.306 28.5933 121.759 28.34C122.213 28.0733 122.573 27.7 122.839 27.22C123.106 26.7267 123.239 26.14 123.239 25.46ZM131.594 16.2V31H128.794V16.2H131.594ZM144.66 25.22C144.66 25.62 144.634 25.98 144.58 26.3H136.48C136.547 27.1 136.827 27.7267 137.32 28.18C137.814 28.6333 138.42 28.86 139.14 28.86C140.18 28.86 140.92 28.4133 141.36 27.52H144.38C144.06 28.5867 143.447 29.4667 142.54 30.16C141.634 30.84 140.52 31.18 139.2 31.18C138.134 31.18 137.174 30.9467 136.32 30.48C135.48 30 134.82 29.3267 134.34 28.46C133.874 27.5933 133.64 26.5933 133.64 25.46C133.64 24.3133 133.874 23.3067 134.34 22.44C134.807 21.5733 135.46 20.9067 136.3 20.44C137.14 19.9733 138.107 19.74 139.2 19.74C140.254 19.74 141.194 19.9667 142.02 20.42C142.86 20.8733 143.507 21.52 143.96 22.36C144.427 23.1867 144.66 24.14 144.66 25.22ZM141.76 24.42C141.747 23.7 141.487 23.1267 140.98 22.7C140.474 22.26 139.854 22.04 139.12 22.04C138.427 22.04 137.84 22.2533 137.36 22.68C136.894 23.0933 136.607 23.6733 136.5 24.42H141.76Z" fill="black"/>
<path d="M306.34 36.98C306.34 37.6733 306.16 38.3267 305.8 38.94C305.453 39.54 304.933 40.04 304.24 40.44C303.56 40.8267 302.753 41.0533 301.82 41.12V42.74H300.54V41.1C299.207 40.98 298.133 40.58 297.32 39.9C296.507 39.2067 296.087 38.2733 296.06 37.1H299.06C299.14 38.06 299.633 38.64 300.54 38.84V35.02C299.58 34.78 298.807 34.54 298.22 34.3C297.633 34.06 297.127 33.6733 296.7 33.14C296.273 32.6067 296.06 31.88 296.06 30.96C296.06 29.8 296.473 28.8533 297.3 28.12C298.14 27.3867 299.22 26.9667 300.54 26.86V25.24H301.82V26.86C303.1 26.9667 304.12 27.3533 304.88 28.02C305.653 28.6867 306.087 29.6067 306.18 30.78H303.16C303.12 30.3933 302.98 30.06 302.74 29.78C302.513 29.4867 302.207 29.28 301.82 29.16V32.94C302.82 33.1933 303.607 33.44 304.18 33.68C304.767 33.9067 305.273 34.2867 305.7 34.82C306.127 35.34 306.34 36.06 306.34 36.98ZM298.98 30.82C298.98 31.26 299.113 31.62 299.38 31.9C299.647 32.1667 300.033 32.3867 300.54 32.56V29.1C300.06 29.1667 299.68 29.3467 299.4 29.64C299.12 29.9333 298.98 30.3267 298.98 30.82ZM301.82 38.88C302.327 38.7867 302.72 38.58 303 38.26C303.293 37.94 303.44 37.5533 303.44 37.1C303.44 36.66 303.3 36.3067 303.02 36.04C302.74 35.7733 302.34 35.5533 301.82 35.38V38.88ZM323.712 28.84H317.232V32.26C317.512 31.9133 317.912 31.6333 318.432 31.42C318.952 31.1933 319.505 31.08 320.092 31.08C321.158 31.08 322.032 31.3133 322.712 31.78C323.392 32.2467 323.885 32.8467 324.192 33.58C324.498 34.3 324.652 35.0733 324.652 35.9C324.652 37.4333 324.212 38.6667 323.332 39.6C322.465 40.5333 321.225 41 319.612 41C318.092 41 316.878 40.62 315.972 39.86C315.065 39.1 314.552 38.1067 314.432 36.88H317.152C317.272 37.4133 317.538 37.84 317.952 38.16C318.378 38.48 318.918 38.64 319.572 38.64C320.358 38.64 320.952 38.3933 321.352 37.9C321.752 37.4067 321.952 36.7533 321.952 35.94C321.952 35.1133 321.745 34.4867 321.332 34.06C320.932 33.62 320.338 33.4 319.552 33.4C318.992 33.4 318.525 33.54 318.152 33.82C317.778 34.1 317.512 34.4733 317.352 34.94H314.672V26.38H323.712V28.84Z" fill="black"/>
<rect width="66" height="66" rx="17" fill="#F4F6F5"/>
<path d="M73.9 52.39C73.9 50.66 74.19 49.31 74.77 48.34C75.36 47.36 76.37 46.87 77.8 46.87C79.23 46.87 80.235 47.36 80.815 48.34C81.405 49.31 81.7 50.66 81.7 52.39C81.7 54.14 81.405 55.51 80.815 56.5C80.235 57.48 79.23 57.97 77.8 57.97C76.37 57.97 75.36 57.48 74.77 56.5C74.19 55.51 73.9 54.14 73.9 52.39ZM80.02 52.39C80.02 51.58 79.965 50.895 79.855 50.335C79.755 49.775 79.545 49.32 79.225 48.97C78.905 48.61 78.43 48.43 77.8 48.43C77.17 48.43 76.695 48.61 76.375 48.97C76.055 49.32 75.84 49.775 75.73 50.335C75.63 50.895 75.58 51.58 75.58 52.39C75.58 53.23 75.63 53.935 75.73 54.505C75.83 55.075 76.04 55.535 76.36 55.885C76.69 56.235 77.17 56.41 77.8 56.41C78.43 56.41 78.905 56.235 79.225 55.885C79.555 55.535 79.77 55.075 79.87 54.505C79.97 53.935 80.02 53.23 80.02 52.39ZM84.4544 55.675C85.4144 54.845 86.1694 54.165 86.7194 53.635C87.2794 53.095 87.7444 52.535 88.1144 51.955C88.4844 51.375 88.6694 50.795 88.6694 50.215C88.6694 49.615 88.5244 49.145 88.2344 48.805C87.9544 48.465 87.5094 48.295 86.8994 48.295C86.3094 48.295 85.8494 48.485 85.5194 48.865C85.1994 49.235 85.0294 49.735 85.0094 50.365H83.3594C83.3894 49.225 83.7294 48.355 84.3794 47.755C85.0394 47.145 85.8744 46.84 86.8844 46.84C87.9744 46.84 88.8244 47.14 89.4344 47.74C90.0544 48.34 90.3644 49.14 90.3644 50.14C90.3644 50.86 90.1794 51.555 89.8094 52.225C89.4494 52.885 89.0144 53.48 88.5044 54.01C88.0044 54.53 87.3644 55.135 86.5844 55.825L85.9094 56.425H90.6644V57.85H83.3744V56.605L84.4544 55.675ZM94.2666 55.945L92.4516 60.085H91.3416L92.4066 55.945H94.2666ZM100.527 48.64C100.217 48.64 99.9572 48.535 99.7472 48.325C99.5372 48.115 99.4322 47.855 99.4322 47.545C99.4322 47.235 99.5372 46.975 99.7472 46.765C99.9572 46.555 100.217 46.45 100.527 46.45C100.827 46.45 101.082 46.555 101.292 46.765C101.502 46.975 101.607 47.235 101.607 47.545C101.607 47.855 101.502 48.115 101.292 48.325C101.082 48.535 100.827 48.64 100.527 48.64ZM101.367 59.62C101.367 60.43 101.162 61.015 100.752 61.375C100.352 61.745 99.7672 61.93 98.9972 61.93H98.1122V60.49H98.6972C99.0472 60.49 99.2922 60.42 99.4322 60.28C99.5822 60.15 99.6572 59.93 99.6572 59.62V49.735H101.367V59.62ZM103.042 53.83C103.042 53 103.212 52.265 103.552 51.625C103.902 50.985 104.372 50.49 104.962 50.14C105.562 49.78 106.222 49.6 106.942 49.6C107.592 49.6 108.157 49.73 108.637 49.99C109.127 50.24 109.517 50.555 109.807 50.935V49.735H111.532V58H109.807V56.77C109.517 57.16 109.122 57.485 108.622 57.745C108.122 58.005 107.552 58.135 106.912 58.135C106.202 58.135 105.552 57.955 104.962 57.595C104.372 57.225 103.902 56.715 103.552 56.065C103.212 55.405 103.042 54.66 103.042 53.83ZM109.807 53.86C109.807 53.29 109.687 52.795 109.447 52.375C109.217 51.955 108.912 51.635 108.532 51.415C108.152 51.195 107.742 51.085 107.302 51.085C106.862 51.085 106.452 51.195 106.072 51.415C105.692 51.625 105.382 51.94 105.142 52.36C104.912 52.77 104.797 53.26 104.797 53.83C104.797 54.4 104.912 54.9 105.142 55.33C105.382 55.76 105.692 56.09 106.072 56.32C106.462 56.54 106.872 56.65 107.302 56.65C107.742 56.65 108.152 56.54 108.532 56.32C108.912 56.1 109.217 55.78 109.447 55.36C109.687 54.93 109.807 54.43 109.807 53.86ZM117.948 49.6C118.598 49.6 119.178 49.735 119.688 50.005C120.208 50.275 120.613 50.675 120.903 51.205C121.193 51.735 121.338 52.375 121.338 53.125V58H119.643V53.38C119.643 52.64 119.458 52.075 119.088 51.685C118.718 51.285 118.213 51.085 117.573 51.085C116.933 51.085 116.423 51.285 116.043 51.685C115.673 52.075 115.488 52.64 115.488 53.38V58H113.778V49.735H115.488V50.68C115.768 50.34 116.123 50.075 116.553 49.885C116.993 49.695 117.458 49.6 117.948 49.6ZM125.395 55.945L123.58 60.085H122.47L123.535 55.945H125.395ZM131.505 55.675C132.465 54.845 133.22 54.165 133.77 53.635C134.33 53.095 134.795 52.535 135.165 51.955C135.535 51.375 135.72 50.795 135.72 50.215C135.72 49.615 135.575 49.145 135.285 48.805C135.005 48.465 134.56 48.295 133.95 48.295C133.36 48.295 132.9 48.485 132.57 48.865C132.25 49.235 132.08 49.735 132.06 50.365H130.41C130.44 49.225 130.78 48.355 131.43 47.755C132.09 47.145 132.925 46.84 133.935 46.84C135.025 46.84 135.875 47.14 136.485 47.74C137.105 48.34 137.415 49.14 137.415 50.14C137.415 50.86 137.23 51.555 136.86 52.225C136.5 52.885 136.065 53.48 135.555 54.01C135.055 54.53 134.415 55.135 133.635 55.825L132.96 56.425H137.715V57.85H130.425V56.605L131.505 55.675ZM139.217 52.39C139.217 50.66 139.507 49.31 140.087 48.34C140.677 47.36 141.687 46.87 143.117 46.87C144.547 46.87 145.552 47.36 146.132 48.34C146.722 49.31 147.017 50.66 147.017 52.39C147.017 54.14 146.722 55.51 146.132 56.5C145.552 57.48 144.547 57.97 143.117 57.97C141.687 57.97 140.677 57.48 140.087 56.5C139.507 55.51 139.217 54.14 139.217 52.39ZM145.337 52.39C145.337 51.58 145.282 50.895 145.172 50.335C145.072 49.775 144.862 49.32 144.542 48.97C144.222 48.61 143.747 48.43 143.117 48.43C142.487 48.43 142.012 48.61 141.692 48.97C141.372 49.32 141.157 49.775 141.047 50.335C140.947 50.895 140.897 51.58 140.897 52.39C140.897 53.23 140.947 53.935 141.047 54.505C141.147 55.075 141.357 55.535 141.677 55.885C142.007 56.235 142.487 56.41 143.117 56.41C143.747 56.41 144.222 56.235 144.542 55.885C144.872 55.535 145.087 55.075 145.187 54.505C145.287 53.935 145.337 53.23 145.337 52.39ZM149.772 55.675C150.732 54.845 151.487 54.165 152.037 53.635C152.597 53.095 153.062 52.535 153.432 51.955C153.802 51.375 153.987 50.795 153.987 50.215C153.987 49.615 153.842 49.145 153.552 48.805C153.272 48.465 152.827 48.295 152.217 48.295C151.627 48.295 151.167 48.485 150.837 48.865C150.517 49.235 150.347 49.735 150.327 50.365H148.677C148.707 49.225 149.047 48.355 149.697 47.755C150.357 47.145 151.192 46.84 152.202 46.84C153.292 46.84 154.142 47.14 154.752 47.74C155.372 48.34 155.682 49.14 155.682 50.14C155.682 50.86 155.497 51.555 155.127 52.225C154.767 52.885 154.332 53.48 153.822 54.01C153.322 54.53 152.682 55.135 151.902 55.825L151.227 56.425H155.982V57.85H148.692V56.605L149.772 55.675ZM158.429 55.675C159.389 54.845 160.144 54.165 160.694 53.635C161.254 53.095 161.719 52.535 162.089 51.955C162.459 51.375 162.644 50.795 162.644 50.215C162.644 49.615 162.499 49.145 162.209 48.805C161.929 48.465 161.484 48.295 160.874 48.295C160.284 48.295 159.824 48.485 159.494 48.865C159.174 49.235 159.004 49.735 158.984 50.365H157.334C157.364 49.225 157.704 48.355 158.354 47.755C159.014 47.145 159.849 46.84 160.859 46.84C161.949 46.84 162.799 47.14 163.409 47.74C164.029 48.34 164.339 49.14 164.339 50.14C164.339 50.86 164.154 51.555 163.784 52.225C163.424 52.885 162.989 53.48 162.479 54.01C161.979 54.53 161.339 55.135 160.559 55.825L159.884 56.425H164.639V57.85H157.349V56.605L158.429 55.675Z" fill="#AAAAAA"/>
<path d="M33.7969 52.3996C23.65 52.3996 15.3938 44.1465 15.3938 33.9996C15.3938 23.8527 23.65 15.5996 33.7969 15.5996C38.3938 15.5996 42.7938 17.3027 46.1907 20.3965L46.8094 20.9621L40.7407 27.0309L40.1782 26.5496C38.3969 25.0246 36.1313 24.184 33.7969 24.184C28.3844 24.184 23.9782 28.5871 23.9782 33.9996C23.9782 39.4121 28.3844 43.8152 33.7969 43.8152C37.7 43.8152 40.7844 41.8215 42.2375 38.4246H32.9969V30.1402L51.0375 30.1652L51.1719 30.7996C52.1125 35.2652 51.3594 41.834 47.5469 46.534C44.3907 50.4246 39.7657 52.3996 33.7969 52.3996Z" fill="black"/>
</svg>
