<svg width="351" height="66" viewBox="0 0 351 66" fill="none" xmlns="http://www.w3.org/2000/svg">
<path d="M86.32 31H83.52L77.18 21.42V31H74.38V17.02H77.18L83.52 26.62V17.02H86.32V31ZM99.387 25.22C99.387 25.62 99.3604 25.98 99.307 26.3H91.207C91.2737 27.1 91.5537 27.7267 92.047 28.18C92.5404 28.6333 93.147 28.86 93.867 28.86C94.907 28.86 95.647 28.4133 96.087 27.52H99.107C98.787 28.5867 98.1737 29.4667 97.267 30.16C96.3604 30.84 95.247 31.18 93.927 31.18C92.8604 31.18 91.9004 30.9467 91.047 30.48C90.207 30 89.547 29.3267 89.067 28.46C88.6004 27.5933 88.367 26.5933 88.367 25.46C88.367 24.3133 88.6004 23.3067 89.067 22.44C89.5337 21.5733 90.187 20.9067 91.027 20.44C91.867 19.9733 92.8337 19.74 93.927 19.74C94.9804 19.74 95.9204 19.9667 96.747 20.42C97.587 20.8733 98.2337 21.52 98.687 22.36C99.1537 23.1867 99.387 24.14 99.387 25.22ZM96.487 24.42C96.4737 23.7 96.2137 23.1267 95.707 22.7C95.2004 22.26 94.5804 22.04 93.847 22.04C93.1537 22.04 92.567 22.2533 92.087 22.68C91.6204 23.0933 91.3337 23.6733 91.227 24.42H96.487ZM104.691 22.22V27.58C104.691 27.9533 104.777 28.2267 104.951 28.4C105.137 28.56 105.444 28.64 105.871 28.64H107.171V31H105.411C103.051 31 101.871 29.8533 101.871 27.56V22.22H100.551V19.92H101.871V17.18H104.691V19.92H107.171V22.22H104.691ZM114.265 22.22H112.325V31H109.485V22.22H108.225V19.92H109.485V19.36C109.485 18 109.871 17 110.645 16.36C111.418 15.72 112.585 15.42 114.145 15.46V17.82C113.465 17.8067 112.991 17.92 112.725 18.16C112.458 18.4 112.325 18.8333 112.325 19.46V19.92H114.265V22.22ZM118.879 16.2V31H116.079V16.2H118.879ZM123.066 18.6C122.572 18.6 122.159 18.4467 121.826 18.14C121.506 17.82 121.346 17.4267 121.346 16.96C121.346 16.4933 121.506 16.1067 121.826 15.8C122.159 15.48 122.572 15.32 123.066 15.32C123.559 15.32 123.966 15.48 124.286 15.8C124.619 16.1067 124.786 16.4933 124.786 16.96C124.786 17.4267 124.619 17.82 124.286 18.14C123.966 18.4467 123.559 18.6 123.066 18.6ZM124.446 19.92V31H121.646V19.92H124.446ZM133.332 31L131.052 27.56L129.032 31H126.032L129.652 25.44L125.992 19.92H129.152L131.412 23.34L133.452 19.92H136.452L132.812 25.44L136.492 31H133.332Z" fill="black"/>
<path d="M306.34 36.98C306.34 37.6733 306.16 38.3267 305.8 38.94C305.453 39.54 304.933 40.04 304.24 40.44C303.56 40.8267 302.753 41.0533 301.82 41.12V42.74H300.54V41.1C299.207 40.98 298.133 40.58 297.32 39.9C296.507 39.2067 296.087 38.2733 296.06 37.1H299.06C299.14 38.06 299.633 38.64 300.54 38.84V35.02C299.58 34.78 298.807 34.54 298.22 34.3C297.633 34.06 297.127 33.6733 296.7 33.14C296.273 32.6067 296.06 31.88 296.06 30.96C296.06 29.8 296.473 28.8533 297.3 28.12C298.14 27.3867 299.22 26.9667 300.54 26.86V25.24H301.82V26.86C303.1 26.9667 304.12 27.3533 304.88 28.02C305.653 28.6867 306.087 29.6067 306.18 30.78H303.16C303.12 30.3933 302.98 30.06 302.74 29.78C302.513 29.4867 302.207 29.28 301.82 29.16V32.94C302.82 33.1933 303.607 33.44 304.18 33.68C304.767 33.9067 305.273 34.2867 305.7 34.82C306.127 35.34 306.34 36.06 306.34 36.98ZM298.98 30.82C298.98 31.26 299.113 31.62 299.38 31.9C299.647 32.1667 300.033 32.3867 300.54 32.56V29.1C300.06 29.1667 299.68 29.3467 299.4 29.64C299.12 29.9333 298.98 30.3267 298.98 30.82ZM301.82 38.88C302.327 38.7867 302.72 38.58 303 38.26C303.293 37.94 303.44 37.5533 303.44 37.1C303.44 36.66 303.3 36.3067 303.02 36.04C302.74 35.7733 302.34 35.5533 301.82 35.38V38.88ZM313.952 30.26C314.018 28.9267 314.485 27.9 315.352 27.18C316.232 26.4467 317.385 26.08 318.812 26.08C319.785 26.08 320.618 26.2533 321.312 26.6C322.005 26.9333 322.525 27.3933 322.872 27.98C323.232 28.5533 323.412 29.2067 323.412 29.94C323.412 30.78 323.192 31.4933 322.752 32.08C322.325 32.6533 321.812 33.04 321.212 33.24V33.32C321.985 33.56 322.585 33.9867 323.012 34.6C323.452 35.2133 323.672 36 323.672 36.96C323.672 37.76 323.485 38.4733 323.112 39.1C322.752 39.7267 322.212 40.22 321.492 40.58C320.785 40.9267 319.932 41.1 318.932 41.1C317.425 41.1 316.198 40.72 315.252 39.96C314.305 39.2 313.805 38.08 313.752 36.6H316.472C316.498 37.2533 316.718 37.78 317.132 38.18C317.558 38.5667 318.138 38.76 318.872 38.76C319.552 38.76 320.072 38.5733 320.432 38.2C320.805 37.8133 320.992 37.32 320.992 36.72C320.992 35.92 320.738 35.3467 320.232 35C319.725 34.6533 318.938 34.48 317.872 34.48H317.292V32.18H317.872C319.765 32.18 320.712 31.5467 320.712 30.28C320.712 29.7067 320.538 29.26 320.192 28.94C319.858 28.62 319.372 28.46 318.732 28.46C318.105 28.46 317.618 28.6333 317.272 28.98C316.938 29.3133 316.745 29.74 316.692 30.26H313.952ZM325.764 38.16V35.96L332.304 26.6H335.564V35.72H337.324V38.16H335.564V41H332.764V38.16H325.764ZM332.944 29.6L328.844 35.72H332.944V29.6ZM348.907 28.84H342.427V32.26C342.707 31.9133 343.107 31.6333 343.627 31.42C344.147 31.1933 344.7 31.08 345.287 31.08C346.354 31.08 347.227 31.3133 347.907 31.78C348.587 32.2467 349.08 32.8467 349.387 33.58C349.694 34.3 349.847 35.0733 349.847 35.9C349.847 37.4333 349.407 38.6667 348.527 39.6C347.66 40.5333 346.42 41 344.807 41C343.287 41 342.074 40.62 341.167 39.86C340.26 39.1 339.747 38.1067 339.627 36.88H342.347C342.467 37.4133 342.734 37.84 343.147 38.16C343.574 38.48 344.114 38.64 344.767 38.64C345.554 38.64 346.147 38.3933 346.547 37.9C346.947 37.4067 347.147 36.7533 347.147 35.94C347.147 35.1133 346.94 34.4867 346.527 34.06C346.127 33.62 345.534 33.4 344.747 33.4C344.187 33.4 343.72 33.54 343.347 33.82C342.974 34.1 342.707 34.4733 342.547 34.94H339.867V26.38H348.907V28.84Z" fill="black"/>
<rect width="66" height="66" rx="17" fill="#F4F6F5"/>
<path d="M73.9 52.39C73.9 50.66 74.19 49.31 74.77 48.34C75.36 47.36 76.37 46.87 77.8 46.87C79.23 46.87 80.235 47.36 80.815 48.34C81.405 49.31 81.7 50.66 81.7 52.39C81.7 54.14 81.405 55.51 80.815 56.5C80.235 57.48 79.23 57.97 77.8 57.97C76.37 57.97 75.36 57.48 74.77 56.5C74.19 55.51 73.9 54.14 73.9 52.39ZM80.02 52.39C80.02 51.58 79.965 50.895 79.855 50.335C79.755 49.775 79.545 49.32 79.225 48.97C78.905 48.61 78.43 48.43 77.8 48.43C77.17 48.43 76.695 48.61 76.375 48.97C76.055 49.32 75.84 49.775 75.73 50.335C75.63 50.895 75.58 51.58 75.58 52.39C75.58 53.23 75.63 53.935 75.73 54.505C75.83 55.075 76.04 55.535 76.36 55.885C76.69 56.235 77.17 56.41 77.8 56.41C78.43 56.41 78.905 56.235 79.225 55.885C79.555 55.535 79.77 55.075 79.87 54.505C79.97 53.935 80.02 53.23 80.02 52.39ZM84.4544 55.675C85.4144 54.845 86.1694 54.165 86.7194 53.635C87.2794 53.095 87.7444 52.535 88.1144 51.955C88.4844 51.375 88.6694 50.795 88.6694 50.215C88.6694 49.615 88.5244 49.145 88.2344 48.805C87.9544 48.465 87.5094 48.295 86.8994 48.295C86.3094 48.295 85.8494 48.485 85.5194 48.865C85.1994 49.235 85.0294 49.735 85.0094 50.365H83.3594C83.3894 49.225 83.7294 48.355 84.3794 47.755C85.0394 47.145 85.8744 46.84 86.8844 46.84C87.9744 46.84 88.8244 47.14 89.4344 47.74C90.0544 48.34 90.3644 49.14 90.3644 50.14C90.3644 50.86 90.1794 51.555 89.8094 52.225C89.4494 52.885 89.0144 53.48 88.5044 54.01C88.0044 54.53 87.3644 55.135 86.5844 55.825L85.9094 56.425H90.6644V57.85H83.3744V56.605L84.4544 55.675ZM94.2666 55.945L92.4516 60.085H91.3416L92.4066 55.945H94.2666ZM100.527 48.64C100.217 48.64 99.9572 48.535 99.7472 48.325C99.5372 48.115 99.4322 47.855 99.4322 47.545C99.4322 47.235 99.5372 46.975 99.7472 46.765C99.9572 46.555 100.217 46.45 100.527 46.45C100.827 46.45 101.082 46.555 101.292 46.765C101.502 46.975 101.607 47.235 101.607 47.545C101.607 47.855 101.502 48.115 101.292 48.325C101.082 48.535 100.827 48.64 100.527 48.64ZM101.367 59.62C101.367 60.43 101.162 61.015 100.752 61.375C100.352 61.745 99.7672 61.93 98.9972 61.93H98.1122V60.49H98.6972C99.0472 60.49 99.2922 60.42 99.4322 60.28C99.5822 60.15 99.6572 59.93 99.6572 59.62V49.735H101.367V59.62ZM103.042 53.83C103.042 53 103.212 52.265 103.552 51.625C103.902 50.985 104.372 50.49 104.962 50.14C105.562 49.78 106.222 49.6 106.942 49.6C107.592 49.6 108.157 49.73 108.637 49.99C109.127 50.24 109.517 50.555 109.807 50.935V49.735H111.532V58H109.807V56.77C109.517 57.16 109.122 57.485 108.622 57.745C108.122 58.005 107.552 58.135 106.912 58.135C106.202 58.135 105.552 57.955 104.962 57.595C104.372 57.225 103.902 56.715 103.552 56.065C103.212 55.405 103.042 54.66 103.042 53.83ZM109.807 53.86C109.807 53.29 109.687 52.795 109.447 52.375C109.217 51.955 108.912 51.635 108.532 51.415C108.152 51.195 107.742 51.085 107.302 51.085C106.862 51.085 106.452 51.195 106.072 51.415C105.692 51.625 105.382 51.94 105.142 52.36C104.912 52.77 104.797 53.26 104.797 53.83C104.797 54.4 104.912 54.9 105.142 55.33C105.382 55.76 105.692 56.09 106.072 56.32C106.462 56.54 106.872 56.65 107.302 56.65C107.742 56.65 108.152 56.54 108.532 56.32C108.912 56.1 109.217 55.78 109.447 55.36C109.687 54.93 109.807 54.43 109.807 53.86ZM117.948 49.6C118.598 49.6 119.178 49.735 119.688 50.005C120.208 50.275 120.613 50.675 120.903 51.205C121.193 51.735 121.338 52.375 121.338 53.125V58H119.643V53.38C119.643 52.64 119.458 52.075 119.088 51.685C118.718 51.285 118.213 51.085 117.573 51.085C116.933 51.085 116.423 51.285 116.043 51.685C115.673 52.075 115.488 52.64 115.488 53.38V58H113.778V49.735H115.488V50.68C115.768 50.34 116.123 50.075 116.553 49.885C116.993 49.695 117.458 49.6 117.948 49.6ZM125.395 55.945L123.58 60.085H122.47L123.535 55.945H125.395ZM131.505 55.675C132.465 54.845 133.22 54.165 133.77 53.635C134.33 53.095 134.795 52.535 135.165 51.955C135.535 51.375 135.72 50.795 135.72 50.215C135.72 49.615 135.575 49.145 135.285 48.805C135.005 48.465 134.56 48.295 133.95 48.295C133.36 48.295 132.9 48.485 132.57 48.865C132.25 49.235 132.08 49.735 132.06 50.365H130.41C130.44 49.225 130.78 48.355 131.43 47.755C132.09 47.145 132.925 46.84 133.935 46.84C135.025 46.84 135.875 47.14 136.485 47.74C137.105 48.34 137.415 49.14 137.415 50.14C137.415 50.86 137.23 51.555 136.86 52.225C136.5 52.885 136.065 53.48 135.555 54.01C135.055 54.53 134.415 55.135 133.635 55.825L132.96 56.425H137.715V57.85H130.425V56.605L131.505 55.675ZM139.217 52.39C139.217 50.66 139.507 49.31 140.087 48.34C140.677 47.36 141.687 46.87 143.117 46.87C144.547 46.87 145.552 47.36 146.132 48.34C146.722 49.31 147.017 50.66 147.017 52.39C147.017 54.14 146.722 55.51 146.132 56.5C145.552 57.48 144.547 57.97 143.117 57.97C141.687 57.97 140.677 57.48 140.087 56.5C139.507 55.51 139.217 54.14 139.217 52.39ZM145.337 52.39C145.337 51.58 145.282 50.895 145.172 50.335C145.072 49.775 144.862 49.32 144.542 48.97C144.222 48.61 143.747 48.43 143.117 48.43C142.487 48.43 142.012 48.61 141.692 48.97C141.372 49.32 141.157 49.775 141.047 50.335C140.947 50.895 140.897 51.58 140.897 52.39C140.897 53.23 140.947 53.935 141.047 54.505C141.147 55.075 141.357 55.535 141.677 55.885C142.007 56.235 142.487 56.41 143.117 56.41C143.747 56.41 144.222 56.235 144.542 55.885C144.872 55.535 145.087 55.075 145.187 54.505C145.287 53.935 145.337 53.23 145.337 52.39ZM149.772 55.675C150.732 54.845 151.487 54.165 152.037 53.635C152.597 53.095 153.062 52.535 153.432 51.955C153.802 51.375 153.987 50.795 153.987 50.215C153.987 49.615 153.842 49.145 153.552 48.805C153.272 48.465 152.827 48.295 152.217 48.295C151.627 48.295 151.167 48.485 150.837 48.865C150.517 49.235 150.347 49.735 150.327 50.365H148.677C148.707 49.225 149.047 48.355 149.697 47.755C150.357 47.145 151.192 46.84 152.202 46.84C153.292 46.84 154.142 47.14 154.752 47.74C155.372 48.34 155.682 49.14 155.682 50.14C155.682 50.86 155.497 51.555 155.127 52.225C154.767 52.885 154.332 53.48 153.822 54.01C153.322 54.53 152.682 55.135 151.902 55.825L151.227 56.425H155.982V57.85H148.692V56.605L149.772 55.675ZM158.429 55.675C159.389 54.845 160.144 54.165 160.694 53.635C161.254 53.095 161.719 52.535 162.089 51.955C162.459 51.375 162.644 50.795 162.644 50.215C162.644 49.615 162.499 49.145 162.209 48.805C161.929 48.465 161.484 48.295 160.874 48.295C160.284 48.295 159.824 48.485 159.494 48.865C159.174 49.235 159.004 49.735 158.984 50.365H157.334C157.364 49.225 157.704 48.355 158.354 47.755C159.014 47.145 159.849 46.84 160.859 46.84C161.949 46.84 162.799 47.14 163.409 47.74C164.029 48.34 164.339 49.14 164.339 50.14C164.339 50.86 164.154 51.555 163.784 52.225C163.424 52.885 162.989 53.48 162.479 54.01C161.979 54.53 161.339 55.135 160.559 55.825L159.884 56.425H164.639V57.85H157.349V56.605L158.429 55.675Z" fill="#AAAAAA"/>
<path d="M20.2 18.2002C17.9944 18.2002 16.2 19.9946 16.2 22.2002V47.8002C16.2 50.0058 17.9944 51.8002 20.2 51.8002H45.7999C48.0055 51.8002 49.7999 50.0058 49.7999 47.8002V22.2002C49.7999 19.9946 48.0055 18.2002 45.7999 18.2002H20.2ZM27.7343 24.6002H30.8296L33.8265 33.2924C33.837 33.3324 33.8506 33.3716 33.8671 33.4096L38.2046 45.9893L35.1953 45.4877L32.1718 37.0236C32.1606 36.9819 32.1459 36.9411 32.1281 36.9018L27.7343 24.6002ZM35.4 24.6002H38.5999V42.2268L35.4 32.9455V24.6002ZM27.4 28.4174L30.6 37.3783V45.5221L27.4 46.0564V28.4174Z" fill="black"/>
</svg>
