<svg width="345" height="66" viewBox="0 0 345 66" fill="none" xmlns="http://www.w3.org/2000/svg">
<path d="M85.96 17.04V31H83.16V25.06H77.18V31H74.38V17.04H77.18V22.78H83.16V17.04H85.96ZM99.1759 19.92V31H96.3559V29.6C95.9959 30.08 95.5226 30.46 94.9359 30.74C94.3626 31.0067 93.7359 31.14 93.0559 31.14C92.1893 31.14 91.4226 30.96 90.7559 30.6C90.0893 30.2267 89.5626 29.6867 89.1759 28.98C88.8026 28.26 88.6159 27.4067 88.6159 26.42V19.92H91.4159V26.02C91.4159 26.9 91.6359 27.58 92.0759 28.06C92.5159 28.5267 93.1159 28.76 93.8759 28.76C94.6493 28.76 95.2559 28.5267 95.6959 28.06C96.1359 27.58 96.3559 26.9 96.3559 26.02V19.92H99.1759ZM104.739 16.2V31H101.939V16.2H104.739ZM117.965 19.92V31H115.145V29.6C114.785 30.08 114.312 30.46 113.725 30.74C113.152 31.0067 112.525 31.14 111.845 31.14C110.978 31.14 110.212 30.96 109.545 30.6C108.878 30.2267 108.352 29.6867 107.965 28.98C107.592 28.26 107.405 27.4067 107.405 26.42V19.92H110.205V26.02C110.205 26.9 110.425 27.58 110.865 28.06C111.305 28.5267 111.905 28.76 112.665 28.76C113.438 28.76 114.045 28.5267 114.485 28.06C114.925 27.58 115.145 26.9 115.145 26.02V19.92H117.965Z" fill="black"/>
<path d="M306.34 36.98C306.34 37.6733 306.16 38.3267 305.8 38.94C305.453 39.54 304.933 40.04 304.24 40.44C303.56 40.8267 302.753 41.0533 301.82 41.12V42.74H300.54V41.1C299.207 40.98 298.133 40.58 297.32 39.9C296.507 39.2067 296.087 38.2733 296.06 37.1H299.06C299.14 38.06 299.633 38.64 300.54 38.84V35.02C299.58 34.78 298.807 34.54 298.22 34.3C297.633 34.06 297.127 33.6733 296.7 33.14C296.273 32.6067 296.06 31.88 296.06 30.96C296.06 29.8 296.473 28.8533 297.3 28.12C298.14 27.3867 299.22 26.9667 300.54 26.86V25.24H301.82V26.86C303.1 26.9667 304.12 27.3533 304.88 28.02C305.653 28.6867 306.087 29.6067 306.18 30.78H303.16C303.12 30.3933 302.98 30.06 302.74 29.78C302.513 29.4867 302.207 29.28 301.82 29.16V32.94C302.82 33.1933 303.607 33.44 304.18 33.68C304.767 33.9067 305.273 34.2867 305.7 34.82C306.127 35.34 306.34 36.06 306.34 36.98ZM298.98 30.82C298.98 31.26 299.113 31.62 299.38 31.9C299.647 32.1667 300.033 32.3867 300.54 32.56V29.1C300.06 29.1667 299.68 29.3467 299.4 29.64C299.12 29.9333 298.98 30.3267 298.98 30.82ZM301.82 38.88C302.327 38.7867 302.72 38.58 303 38.26C303.293 37.94 303.44 37.5533 303.44 37.1C303.44 36.66 303.3 36.3067 303.02 36.04C302.74 35.7733 302.34 35.5533 301.82 35.38V38.88ZM313.572 29V26.42H318.392V41H315.512V29H313.572ZM321.198 30.26C321.264 28.9267 321.731 27.9 322.598 27.18C323.478 26.4467 324.631 26.08 326.058 26.08C327.031 26.08 327.864 26.2533 328.558 26.6C329.251 26.9333 329.771 27.3933 330.118 27.98C330.478 28.5533 330.658 29.2067 330.658 29.94C330.658 30.78 330.438 31.4933 329.998 32.08C329.571 32.6533 329.058 33.04 328.458 33.24V33.32C329.231 33.56 329.831 33.9867 330.258 34.6C330.698 35.2133 330.918 36 330.918 36.96C330.918 37.76 330.731 38.4733 330.358 39.1C329.998 39.7267 329.458 40.22 328.738 40.58C328.031 40.9267 327.178 41.1 326.178 41.1C324.671 41.1 323.444 40.72 322.498 39.96C321.551 39.2 321.051 38.08 320.998 36.6H323.718C323.744 37.2533 323.964 37.78 324.378 38.18C324.804 38.5667 325.384 38.76 326.118 38.76C326.798 38.76 327.318 38.5733 327.678 38.2C328.051 37.8133 328.238 37.32 328.238 36.72C328.238 35.92 327.984 35.3467 327.478 35C326.971 34.6533 326.184 34.48 325.118 34.48H324.538V32.18H325.118C327.011 32.18 327.958 31.5467 327.958 30.28C327.958 29.7067 327.784 29.26 327.438 28.94C327.104 28.62 326.618 28.46 325.978 28.46C325.351 28.46 324.864 28.6333 324.518 28.98C324.184 29.3133 323.991 29.74 323.938 30.26H321.198ZM333.17 30.26C333.237 28.9267 333.704 27.9 334.57 27.18C335.45 26.4467 336.604 26.08 338.03 26.08C339.004 26.08 339.837 26.2533 340.53 26.6C341.224 26.9333 341.744 27.3933 342.09 27.98C342.45 28.5533 342.63 29.2067 342.63 29.94C342.63 30.78 342.41 31.4933 341.97 32.08C341.544 32.6533 341.03 33.04 340.43 33.24V33.32C341.204 33.56 341.804 33.9867 342.23 34.6C342.67 35.2133 342.89 36 342.89 36.96C342.89 37.76 342.704 38.4733 342.33 39.1C341.97 39.7267 341.43 40.22 340.71 40.58C340.004 40.9267 339.15 41.1 338.15 41.1C336.644 41.1 335.417 40.72 334.47 39.96C333.524 39.2 333.024 38.08 332.97 36.6H335.69C335.717 37.2533 335.937 37.78 336.35 38.18C336.777 38.5667 337.357 38.76 338.09 38.76C338.77 38.76 339.29 38.5733 339.65 38.2C340.024 37.8133 340.21 37.32 340.21 36.72C340.21 35.92 339.957 35.3467 339.45 35C338.944 34.6533 338.157 34.48 337.09 34.48H336.51V32.18H337.09C338.984 32.18 339.93 31.5467 339.93 30.28C339.93 29.7067 339.757 29.26 339.41 28.94C339.077 28.62 338.59 28.46 337.95 28.46C337.324 28.46 336.837 28.6333 336.49 28.98C336.157 29.3133 335.964 29.74 335.91 30.26H333.17Z" fill="black"/>
<rect width="66" height="66" rx="17" fill="#F4F6F5"/>
<path d="M73.9 52.39C73.9 50.66 74.19 49.31 74.77 48.34C75.36 47.36 76.37 46.87 77.8 46.87C79.23 46.87 80.235 47.36 80.815 48.34C81.405 49.31 81.7 50.66 81.7 52.39C81.7 54.14 81.405 55.51 80.815 56.5C80.235 57.48 79.23 57.97 77.8 57.97C76.37 57.97 75.36 57.48 74.77 56.5C74.19 55.51 73.9 54.14 73.9 52.39ZM80.02 52.39C80.02 51.58 79.965 50.895 79.855 50.335C79.755 49.775 79.545 49.32 79.225 48.97C78.905 48.61 78.43 48.43 77.8 48.43C77.17 48.43 76.695 48.61 76.375 48.97C76.055 49.32 75.84 49.775 75.73 50.335C75.63 50.895 75.58 51.58 75.58 52.39C75.58 53.23 75.63 53.935 75.73 54.505C75.83 55.075 76.04 55.535 76.36 55.885C76.69 56.235 77.17 56.41 77.8 56.41C78.43 56.41 78.905 56.235 79.225 55.885C79.555 55.535 79.77 55.075 79.87 54.505C79.97 53.935 80.02 53.23 80.02 52.39ZM84.4544 55.675C85.4144 54.845 86.1694 54.165 86.7194 53.635C87.2794 53.095 87.7444 52.535 88.1144 51.955C88.4844 51.375 88.6694 50.795 88.6694 50.215C88.6694 49.615 88.5244 49.145 88.2344 48.805C87.9544 48.465 87.5094 48.295 86.8994 48.295C86.3094 48.295 85.8494 48.485 85.5194 48.865C85.1994 49.235 85.0294 49.735 85.0094 50.365H83.3594C83.3894 49.225 83.7294 48.355 84.3794 47.755C85.0394 47.145 85.8744 46.84 86.8844 46.84C87.9744 46.84 88.8244 47.14 89.4344 47.74C90.0544 48.34 90.3644 49.14 90.3644 50.14C90.3644 50.86 90.1794 51.555 89.8094 52.225C89.4494 52.885 89.0144 53.48 88.5044 54.01C88.0044 54.53 87.3644 55.135 86.5844 55.825L85.9094 56.425H90.6644V57.85H83.3744V56.605L84.4544 55.675ZM94.2666 55.945L92.4516 60.085H91.3416L92.4066 55.945H94.2666ZM100.527 48.64C100.217 48.64 99.9572 48.535 99.7472 48.325C99.5372 48.115 99.4322 47.855 99.4322 47.545C99.4322 47.235 99.5372 46.975 99.7472 46.765C99.9572 46.555 100.217 46.45 100.527 46.45C100.827 46.45 101.082 46.555 101.292 46.765C101.502 46.975 101.607 47.235 101.607 47.545C101.607 47.855 101.502 48.115 101.292 48.325C101.082 48.535 100.827 48.64 100.527 48.64ZM101.367 59.62C101.367 60.43 101.162 61.015 100.752 61.375C100.352 61.745 99.7672 61.93 98.9972 61.93H98.1122V60.49H98.6972C99.0472 60.49 99.2922 60.42 99.4322 60.28C99.5822 60.15 99.6572 59.93 99.6572 59.62V49.735H101.367V59.62ZM103.042 53.83C103.042 53 103.212 52.265 103.552 51.625C103.902 50.985 104.372 50.49 104.962 50.14C105.562 49.78 106.222 49.6 106.942 49.6C107.592 49.6 108.157 49.73 108.637 49.99C109.127 50.24 109.517 50.555 109.807 50.935V49.735H111.532V58H109.807V56.77C109.517 57.16 109.122 57.485 108.622 57.745C108.122 58.005 107.552 58.135 106.912 58.135C106.202 58.135 105.552 57.955 104.962 57.595C104.372 57.225 103.902 56.715 103.552 56.065C103.212 55.405 103.042 54.66 103.042 53.83ZM109.807 53.86C109.807 53.29 109.687 52.795 109.447 52.375C109.217 51.955 108.912 51.635 108.532 51.415C108.152 51.195 107.742 51.085 107.302 51.085C106.862 51.085 106.452 51.195 106.072 51.415C105.692 51.625 105.382 51.94 105.142 52.36C104.912 52.77 104.797 53.26 104.797 53.83C104.797 54.4 104.912 54.9 105.142 55.33C105.382 55.76 105.692 56.09 106.072 56.32C106.462 56.54 106.872 56.65 107.302 56.65C107.742 56.65 108.152 56.54 108.532 56.32C108.912 56.1 109.217 55.78 109.447 55.36C109.687 54.93 109.807 54.43 109.807 53.86ZM117.948 49.6C118.598 49.6 119.178 49.735 119.688 50.005C120.208 50.275 120.613 50.675 120.903 51.205C121.193 51.735 121.338 52.375 121.338 53.125V58H119.643V53.38C119.643 52.64 119.458 52.075 119.088 51.685C118.718 51.285 118.213 51.085 117.573 51.085C116.933 51.085 116.423 51.285 116.043 51.685C115.673 52.075 115.488 52.64 115.488 53.38V58H113.778V49.735H115.488V50.68C115.768 50.34 116.123 50.075 116.553 49.885C116.993 49.695 117.458 49.6 117.948 49.6ZM125.395 55.945L123.58 60.085H122.47L123.535 55.945H125.395ZM131.505 55.675C132.465 54.845 133.22 54.165 133.77 53.635C134.33 53.095 134.795 52.535 135.165 51.955C135.535 51.375 135.72 50.795 135.72 50.215C135.72 49.615 135.575 49.145 135.285 48.805C135.005 48.465 134.56 48.295 133.95 48.295C133.36 48.295 132.9 48.485 132.57 48.865C132.25 49.235 132.08 49.735 132.06 50.365H130.41C130.44 49.225 130.78 48.355 131.43 47.755C132.09 47.145 132.925 46.84 133.935 46.84C135.025 46.84 135.875 47.14 136.485 47.74C137.105 48.34 137.415 49.14 137.415 50.14C137.415 50.86 137.23 51.555 136.86 52.225C136.5 52.885 136.065 53.48 135.555 54.01C135.055 54.53 134.415 55.135 133.635 55.825L132.96 56.425H137.715V57.85H130.425V56.605L131.505 55.675ZM139.217 52.39C139.217 50.66 139.507 49.31 140.087 48.34C140.677 47.36 141.687 46.87 143.117 46.87C144.547 46.87 145.552 47.36 146.132 48.34C146.722 49.31 147.017 50.66 147.017 52.39C147.017 54.14 146.722 55.51 146.132 56.5C145.552 57.48 144.547 57.97 143.117 57.97C141.687 57.97 140.677 57.48 140.087 56.5C139.507 55.51 139.217 54.14 139.217 52.39ZM145.337 52.39C145.337 51.58 145.282 50.895 145.172 50.335C145.072 49.775 144.862 49.32 144.542 48.97C144.222 48.61 143.747 48.43 143.117 48.43C142.487 48.43 142.012 48.61 141.692 48.97C141.372 49.32 141.157 49.775 141.047 50.335C140.947 50.895 140.897 51.58 140.897 52.39C140.897 53.23 140.947 53.935 141.047 54.505C141.147 55.075 141.357 55.535 141.677 55.885C142.007 56.235 142.487 56.41 143.117 56.41C143.747 56.41 144.222 56.235 144.542 55.885C144.872 55.535 145.087 55.075 145.187 54.505C145.287 53.935 145.337 53.23 145.337 52.39ZM149.772 55.675C150.732 54.845 151.487 54.165 152.037 53.635C152.597 53.095 153.062 52.535 153.432 51.955C153.802 51.375 153.987 50.795 153.987 50.215C153.987 49.615 153.842 49.145 153.552 48.805C153.272 48.465 152.827 48.295 152.217 48.295C151.627 48.295 151.167 48.485 150.837 48.865C150.517 49.235 150.347 49.735 150.327 50.365H148.677C148.707 49.225 149.047 48.355 149.697 47.755C150.357 47.145 151.192 46.84 152.202 46.84C153.292 46.84 154.142 47.14 154.752 47.74C155.372 48.34 155.682 49.14 155.682 50.14C155.682 50.86 155.497 51.555 155.127 52.225C154.767 52.885 154.332 53.48 153.822 54.01C153.322 54.53 152.682 55.135 151.902 55.825L151.227 56.425H155.982V57.85H148.692V56.605L149.772 55.675ZM158.429 55.675C159.389 54.845 160.144 54.165 160.694 53.635C161.254 53.095 161.719 52.535 162.089 51.955C162.459 51.375 162.644 50.795 162.644 50.215C162.644 49.615 162.499 49.145 162.209 48.805C161.929 48.465 161.484 48.295 160.874 48.295C160.284 48.295 159.824 48.485 159.494 48.865C159.174 49.235 159.004 49.735 158.984 50.365H157.334C157.364 49.225 157.704 48.355 158.354 47.755C159.014 47.145 159.849 46.84 160.859 46.84C161.949 46.84 162.799 47.14 163.409 47.74C164.029 48.34 164.339 49.14 164.339 50.14C164.339 50.86 164.154 51.555 163.784 52.225C163.424 52.885 162.989 53.48 162.479 54.01C161.979 54.53 161.339 55.135 160.559 55.825L159.884 56.425H164.639V57.85H157.349V56.605L158.429 55.675Z" fill="#AAAAAA"/>
<path d="M14 26V41.2H17.2V34C17.2 33.6 17.5188 33.2 18 33.2H20.4C20.8 33.2 21.2 33.5188 21.2 34V41.2H24.4V33.2C24.4 31.4406 22.9594 30 21.2 30H17.2V26H14ZM38 26V41.2H41.2V26H38ZM26 30V38C26 39.7594 27.4406 41.2 29.2 41.2H33.2C34.9594 41.2 36.3938 39.7594 36.475 38V30H33.275V37.125C33.275 37.6063 32.8813 38 32.4 38H30.075C29.5938 38 29.2 37.6063 29.2 37.125V30H26ZM42.8 30V38C42.8 39.7594 44.2406 41.2 46 41.2H50C51.7594 41.2 53.2 39.7594 53.2 38V30H50V37.2C50 37.6 49.6813 38 49.2 38H46.8C46.4 38 46 37.6813 46 37.2V30H42.8Z" fill="black"/>
</svg>
